<?xml version="1.0" standalone="no"?>
<!DOCTYPE svg PUBLIC "-//W3C//DTD SVG 1.1//EN" "http://www.w3.org/Graphics/SVG/1.1/DTD/svg11.dtd" >
<svg xmlns="http://www.w3.org/2000/svg">
<metadata></metadata>
<defs>
<font id="freeroadbold" horiz-adv-x="1000" >
<font-face units-per-em="2048" ascent="1638" descent="-410" />
<missing-glyph horiz-adv-x="700" />
<glyph horiz-adv-x="2048" />
<glyph horiz-adv-x="2048" />
<glyph unicode="&#xd;" horiz-adv-x="2048" />
<glyph unicode=" "  horiz-adv-x="700" />
<glyph unicode="&#x09;" horiz-adv-x="700" />
<glyph unicode="&#xa0;" horiz-adv-x="700" />
<glyph unicode="!" horiz-adv-x="700" d="M200 0v250h300v-250h-300zM200 1000v400h300v-400l-20 -600h-260z" />
<glyph unicode="&#x22;" horiz-adv-x="1153" d="M200 1200v200h300v-200l-20 -200h-260zM650 1200v200h300v-200l-20 -200h-260z" />
<glyph unicode="#" horiz-adv-x="1500" d="M100 300v250h217l66 300h-183v250h236l64 300h300l-64 -300h200l64 300h300l-64 -300h164v-250h-217l-66 -300h183v-250h-236l-64 -300h-300l64 300h-200l-64 -300h-300l64 300h-164zM617 550h200l66 300h-200z" />
<glyph unicode="$" horiz-adv-x="1098" d="M100 380l298 20q0 -135 76 -165v363q-5 2 -10.5 3.5t-10.5 3.5q-345 115 -345 395q0 385 366 417v183h150v-184q346 -35 362 -391l-298 -25q0 132 -64 163v-348q374 -135 374 -415q0 -385 -374 -417v-183h-150v183q-361 33 -374 397zM408 1010q0 -135 66 -142v296 q-66 -26 -66 -154zM624 235q74 26 74 155q0 146 -74 155v-310z" />
<glyph unicode="%" horiz-adv-x="1700" d="M100 990v90q5 320 300 320t300 -320v-90q0 -330 -300 -330t-300 330zM330 990q0 -120 70 -120q65 0 70 110v90q0 120 -70 120q-67 0 -70 -110v-90zM350 0l710 1400h290l-710 -1400h-290zM1000 330v80q0 330 300 330t300 -330v-90q-5 -320 -300 -320q-300 0 -300 330z M1230 321q3 -111 70 -111t70 111v89q0 120 -70 120q-67 0 -70 -110v-99z" />
<glyph unicode="&#x26;" horiz-adv-x="1350" d="M100 400q0 263 242 373q-72 151 -72 277q0 350 370 350q360 0 360 -350q0 -250 -259 -385l81 -89l88 174l290 -150l-132 -214l212 -210l-209 -219l-185 181q-140 -138 -386 -138q-400 0 -400 400zM400 400q0 -150 120 -150q112 0 175 76l-190 203q-105 -33 -105 -129z M570 1020q0 -67 35 -146q95 30 95 146q0 130 -60 130q-70 0 -70 -130z" />
<glyph unicode="'" horiz-adv-x="700" d="M200 1200v200h300v-200l-20 -200h-260z" />
<glyph unicode="(" horiz-adv-x="750" d="M100 700q0 600 300 900h250q-250 -299 -250 -900t250 -900h-250q-300 300 -300 900z" />
<glyph unicode=")" horiz-adv-x="750" d="M100 -200q250 299 250 900t-250 900h250q300 -300 300 -900t-300 -900h-250z" />
<glyph unicode="*" horiz-adv-x="800" d="M100 1080l30 160l195 -40l-10 200l175 -1l-10 -200l190 41l30 -160l-170 -20l110 -160l-140 -90l-100 180l-100 -180l-140 90l120 160z" />
<glyph unicode="+" horiz-adv-x="1200" d="M100 570v250h350v380h300v-380h350v-250h-350v-370h-300v370h-350z" />
<glyph unicode="," horiz-adv-x="700" d="M200 0v250h300v-250q0 -250 -300 -250v150q70 0 70 100h-70z" />
<glyph unicode="-" horiz-adv-x="800" d="M100 570v250h600v-250h-600z" />
<glyph unicode="." horiz-adv-x="700" d="M200 0v250h300v-250h-300z" />
<glyph unicode="/" horiz-adv-x="700" d="M0 -200l410 1800h290l-410 -1800h-290z" />
<glyph unicode="0" d="M100 480v458q0 482 400 482t400 -482v-458q0 -500 -400 -500t-400 500zM400 480q0 -250 100 -250t100 250v458q0 232 -100 232t-100 -232v-458z" />
<glyph unicode="1" horiz-adv-x="850" d="M200 950v250q100 0 150 200h300v-1400h-300v1050q-49 -100 -150 -100z" />
<glyph unicode="2" d="M100 0v250q30 250 265 425t235 345q-2 150 -101 150q-100 0 -100 -190l-298 38q27 402 398 402q400 0 401 -400q0 -269 -230 -430t-240 -340h470v-250h-800z" />
<glyph unicode="3" horiz-adv-x="1050" d="M100 380l299 30q0 -180 120 -180q129 0 131 150q0 220 -170 220v200q150 0 150 220q-2 150 -111 150q-100 0 -100 -190l-298 38q27 402 398 402q410 0 411 -400q0 -237 -195 -318q215 -80 215 -322q-1 -400 -431 -400q-394 0 -419 400z" />
<glyph unicode="4" horiz-adv-x="1050" d="M100 300v250l250 850h550v-850h50v-250h-50v-300h-300v300h-500zM430 550h170v600z" />
<glyph unicode="5" horiz-adv-x="1050" d="M100 380l299 30q0 -180 120 -180q130 0 131 220v50q0 200 -100 200q-91 0 -140 -120l-290 50l50 770h730v-250h-430l-30 -300q60 100 210 100q300 0 300 -450v-50q-2 -470 -431 -470q-394 0 -419 400z" />
<glyph unicode="6" horiz-adv-x="1050" d="M100 480v430q0 510 430 510q391 0 418 -402l-298 -38q0 190 -120 190q-130 0 -130 -260v-120q57 110 210 110q335 0 340 -440q-6 -480 -420 -480q-430 0 -430 500zM400 480q0 -250 130 -250q116 0 120 220q0 200 -90 200t-160 -90v-80z" />
<glyph unicode="7" horiz-adv-x="1050" d="M100 1000v400h850v-300l-370 -1180l-280 80l360 1150h-260v-150h-300z" />
<glyph unicode="8" horiz-adv-x="1050" d="M100 400q0 222 169 303q-149 83 -149 297q0 400 400 400q410 0 410 -400q0 -215 -153 -297q173 -81 173 -303q0 -400 -430 -400q-420 0 -420 400zM400 430q0 -180 120 -180q130 0 130 180q0 160 -130 160q-120 0 -120 -160zM420 970q0 -170 100 -170q110 0 110 170 q0 180 -110 180q-100 0 -100 -180z" />
<glyph unicode="9" horiz-adv-x="1050" d="M100 940q6 480 420 480q430 0 430 -500v-430q0 -510 -430 -510q-391 0 -418 402l298 38q0 -190 120 -190q130 0 130 260v120q-57 -110 -210 -110q-335 0 -340 440zM400 950q0 -200 90 -200q89 0 160 90v80q0 250 -130 250q-116 0 -120 -220z" />
<glyph unicode=":" horiz-adv-x="700" d="M200 0v250h300v-250h-300zM200 750v250h300v-250h-300z" />
<glyph unicode=";" horiz-adv-x="700" d="M200 0v250h300v-250q0 -250 -300 -250v150q70 0 70 100h-70zM200 750v250h300v-250h-300z" />
<glyph unicode="&#x3c;" d="M100 600v200l800 350v-280l-450 -170l450 -170v-280z" />
<glyph unicode="=" d="M100 350v250h800v-250h-800zM100 800v250h800v-250h-800z" />
<glyph unicode="&#x3e;" d="M100 250v280l450 170l-450 170v280l800 -350v-200z" />
<glyph unicode="?" horiz-adv-x="1099" d="M101 1018q27 402 448 402q450 0 450 -420q0 -250 -150 -370q-149 -120 -160 -230h-280q0 201 145 325t145 275q0 170 -150 170t-150 -190zM399 0v250h300v-250h-300z" />
<glyph unicode="@" horiz-adv-x="1400" d="M100 350v650q0 400 400 400h400q400 0 400 -400v-1000h-300v120q-50 -120 -200 -120q-330 0 -330 450v100q0 450 340 450q140 0 190 -120v170q0 100 -100 100h-400q-100 0 -100 -100v-700q0 -130 85 -176l-194 -186q-191 86 -191 362zM770 450q0 -200 90 -200 q91 0 140 70v360q-49 70 -140 70q-90 0 -90 -200v-100z" />
<glyph unicode="A" d="M0 0l290 1400h420l290 -1400h-300l-51 300h-299l-50 -300h-300zM394 550h212l-106 530z" />
<glyph unicode="B" horiz-adv-x="1100" d="M100 0v1400h430q450 0 450 -400q0 -211 -146 -295q166 -79 166 -305q0 -400 -450 -400h-450zM400 250h150q150 0 150 180q0 140 -150 140h-150v-320zM400 820h130q150 0 150 150q0 180 -150 180h-130v-330z" />
<glyph unicode="C" horiz-adv-x="1099" d="M100 530v330q0 560 450 560q421 0 448 -402l-298 -38q0 190 -150 190t-150 -310v-330q0 -300 150 -300t150 180l299 -30q-25 -400 -449 -400q-450 0 -450 550z" />
<glyph unicode="D" horiz-adv-x="1100" d="M100 0v1400h400q500 0 500 -560v-290q0 -550 -500 -550h-400zM400 250h100q200 0 200 300v290q0 310 -200 310h-100v-900z" />
<glyph unicode="E" d="M100 0v1400h800v-250h-500v-330h450v-250h-450v-320h500v-250h-800z" />
<glyph unicode="F" d="M100 0v1400h800v-250h-500v-330h450v-250h-450v-570h-300z" />
<glyph unicode="G" horiz-adv-x="1100" d="M100 530v330q0 560 450 560q421 0 448 -402l-298 -38q0 190 -150 190t-150 -310v-330q0 -300 150 -300q100 0 150 60v280h-150v250h450v-640q-150 -200 -450 -200q-450 0 -450 550z" />
<glyph unicode="H" horiz-adv-x="1100" d="M100 0v1400h300v-580h300v580h300v-1400h-300v570h-300v-570h-300z" />
<glyph unicode="I" horiz-adv-x="700" d="M200 0v1400h300v-1400h-300z" />
<glyph unicode="J" horiz-adv-x="1001" d="M100 380l299 30q0 -180 100 -180t102 200v970h300v-970q-2 -450 -402 -450q-375 0 -399 400z" />
<glyph unicode="K" horiz-adv-x="1100" d="M100 0v1400h300v-520l270 520h330l-334 -584l334 -816h-330l-200 495l-70 -125v-370h-300z" />
<glyph unicode="L" d="M100 0v1400h300v-1150h500v-250h-800z" />
<glyph unicode="M" horiz-adv-x="1400" d="M100 0v1400h400l200 -720l200 720h400v-1400h-300v725l-160 -525h-280l-160 525v-725h-300z" />
<glyph unicode="N" horiz-adv-x="1100" d="M100 0v1400h300l300 -700v700h300v-1400h-300l-300 700v-700h-300z" />
<glyph unicode="O" horiz-adv-x="1100" d="M100 530v330q0 560 450 560t450 -560v-330q0 -550 -450 -550t-450 550zM400 530q0 -300 150 -300t150 300v330q0 310 -150 310t-150 -310v-330z" />
<glyph unicode="P" horiz-adv-x="1100" d="M100 0v1400h400q500 0 500 -450t-500 -450h-100v-500h-300zM400 750h100q200 0 200 200t-200 200h-100v-400z" />
<glyph unicode="Q" horiz-adv-x="1100" d="M100 530v330q0 560 450 560t450 -560v-330q0 -294 -136 -430q52 -70 136 -70l-50 -250q-101 0 -225 100t-225 100v2q-400 28 -400 548zM400 530q0 -300 150 -300t150 300v330q0 310 -150 310t-150 -310v-330z" />
<glyph unicode="R" horiz-adv-x="1100" d="M100 0v1400h400q500 0 500 -450q0 -251 -202 -360l302 -590h-350l-250 500h-100v-500h-300zM400 750h100q200 0 200 200t-200 200h-100v-400z" />
<glyph unicode="S" horiz-adv-x="1098" d="M100 430l298 20q0 -215 134 -215h12q154 6 154 155q0 136 -295 233t-295 387q0 395 446 407q416 -15 432 -442l-298 -25q0 212 -134 214q-146 -6 -146 -154q0 -144 295 -237t295 -383q0 -397 -454 -407q-431 13 -444 447z" />
<glyph unicode="T" horiz-adv-x="1100" d="M100 1150v250h900v-250h-300v-1150h-300v1150h-300z" />
<glyph unicode="U" horiz-adv-x="1100" d="M100 530v870h300v-870q0 -300 150 -300t150 300v870h300v-870q0 -550 -450 -550t-450 550z" />
<glyph unicode="V" d="M0 1400h300l200 -1120l200 1120h300l-300 -1400h-400z" />
<glyph unicode="W" horiz-adv-x="1650" d="M0 1400h300l150 -1120l150 1120h450l150 -1120l150 1120h300l-220 -1400h-460l-145 1072l-145 -1072h-460z" />
<glyph unicode="X" horiz-adv-x="1100" d="M50 0l285 700l-285 700h330l170 -491l170 491h330l-285 -700l285 -700h-330l-170 491l-170 -491h-330z" />
<glyph unicode="Y" d="M0 1400h300l200 -470l200 470h300l-350 -800v-600h-300v600z" />
<glyph unicode="Z" horiz-adv-x="1100" d="M100 0v250l540 900h-510v250h850v-250l-540 -900h560v-250h-900z" />
<glyph unicode="[" horiz-adv-x="750" d="M100 -200v1800h550v-250h-250v-1300h250v-250h-550z" />
<glyph unicode="\" horiz-adv-x="700" d="M0 1600h290l410 -1800h-290z" />
<glyph unicode="]" horiz-adv-x="750" d="M100 50h250v1300h-250v250h550v-1800h-550v250z" />
<glyph unicode="^" d="M100 700l240 700h320l240 -700h-310l-90 360l-90 -360h-310z" />
<glyph unicode="_" horiz-adv-x="800" d="M0 -200h800v-200h-800v200z" />
<glyph unicode="`" horiz-adv-x="830" d="M200 1400h330l100 -300h-260z" />
<glyph unicode="a" d="M100 280q0 320 400 320h100q0 170 -100 170q-150 0 -250 -100l-130 190q179 160 380 160q400 0 400 -420v-400q0 -98 50 -200h-300q-33 66 -45 132q-72 -152 -255 -152q-250 0 -250 300zM400 280q0 -70 80 -70q90 0 120 70v100h-120q-80 0 -80 -100z" />
<glyph unicode="b" horiz-adv-x="1030" d="M100 0v1400h300v-520q49 120 190 120q340 0 340 -450v-100q0 -450 -330 -450q-151 0 -200 120v-120h-300zM400 330q49 -70 140 -70q90 0 90 150v190q0 150 -90 150q-91 0 -140 -70v-350z" />
<glyph unicode="c" horiz-adv-x="999" d="M100 450v100q5 470 460 470q264 0 339 -170l-199 -170q-50 90 -140 90q-156 0 -160 -220v-90q0 -230 160 -230q90 0 140 90l199 -170q-75 -170 -339 -170q-455 0 -460 470z" />
<glyph unicode="d" horiz-adv-x="1030" d="M100 450v100q0 450 340 450q140 0 190 -120v520h300v-1400h-300v120q-50 -120 -200 -120q-330 0 -330 450zM400 410q0 -150 90 -150q91 0 140 70v350q-49 70 -140 70q-90 0 -90 -150v-190z" />
<glyph unicode="e" d="M100 430v140q4 450 410 450q390 0 390 -430v-200h-500q9 -160 130 -160q140 0 190 80l189 -160q-116 -170 -379 -170q-426 0 -430 450zM400 600h200q-5 170 -90 170q-102 0 -110 -170z" />
<glyph unicode="f" horiz-adv-x="750" d="M100 770v230h100v100q0 300 300 300h150v-250h-50q-100 0 -100 -150h150v-230h-150v-770h-300v770h-100z" />
<glyph unicode="g" horiz-adv-x="1030" d="M100 450v100q0 450 340 450q140 0 190 -120v120h300v-1000q-6 -420 -460 -420q-264 0 -369 150l129 200q100 -100 240 -100q160 0 160 180v110q-50 -120 -200 -120q-330 0 -330 450zM400 450q0 -200 90 -200q91 0 140 70v360q-49 70 -140 70q-90 0 -90 -200v-100z" />
<glyph unicode="h" horiz-adv-x="1030" d="M100 0v1400h300v-520q49 120 190 120q340 0 340 -450v-550h-300v600q0 150 -90 150q-91 0 -140 -70v-680h-300z" />
<glyph unicode="i" horiz-adv-x="700" d="M200 0v1000h300v-1000h-300zM200 1100v300h300v-300h-300z" />
<glyph unicode="j" horiz-adv-x="700" d="M-100 -375l59 234q35 -29 114 -29q121 0 122 100v1070h300v-1020q-1 -400 -422 -400q-112 0 -173 45zM194 1100v300h300v-300h-300z" />
<glyph unicode="k" horiz-adv-x="1053" d="M100 0v1400h300v-690l190 290h360l-300 -389l300 -611h-330l-184 346l-36 -46v-300h-300z" />
<glyph unicode="l" horiz-adv-x="700" d="M200 0v1400h300v-1400h-300z" />
<glyph unicode="m" horiz-adv-x="1530" d="M100 0v1000h300v-120q49 120 190 120q170 0 256 -114q108 114 274 114q340 0 340 -450v-550h-300v600q0 150 -90 150q-91 0 -140 -70v-680h-300v600q0 150 -90 150q-91 0 -140 -70v-680h-300z" />
<glyph unicode="n" horiz-adv-x="1030" d="M100 0v1000h300v-120q49 120 190 120q340 0 340 -450v-550h-300v550q0 200 -90 200q-91 0 -140 -70v-680h-300z" />
<glyph unicode="o" horiz-adv-x="1060" d="M100 450v100q5 470 430 470t430 -470v-100q-5 -470 -430 -470t-430 470zM400 460q0 -230 130 -230t130 230v80q0 230 -130 230t-130 -230v-80z" />
<glyph unicode="p" horiz-adv-x="1030" d="M100 -400v1400h300v-120q49 120 200 120q330 0 330 -450v-100q0 -450 -340 -450q-141 0 -190 120v-520h-300zM400 320q49 -70 140 -70q90 0 90 150v190q0 150 -90 150q-91 0 -140 -70v-350z" />
<glyph unicode="q" horiz-adv-x="1030" d="M100 450v100q0 450 330 450q150 0 200 -120v120h300v-1400h-300v520q-50 -120 -190 -120q-340 0 -340 450zM400 400q0 -150 90 -150q91 0 140 70v350q-49 70 -140 70q-90 0 -90 -150v-190z" />
<glyph unicode="r" horiz-adv-x="900" d="M100 0v1000h300v-150q100 150 260 150q101 0 187 -51l-58 -230q-52 31 -129 31q-160 0 -260 -100v-650h-300z" />
<glyph unicode="s" horiz-adv-x="994" d="M100 70l92 225q85 -75 301 -75q100 0 100 90q0 60 -109 70q-380 11 -380 310q6 330 390 330q211 0 374 -94l-111 -206q-71 60 -263 60q-86 0 -86 -90h-1q0 -70 97 -80q390 -11 390 -300h-2q-5 -330 -399 -330q-278 0 -393 90z" />
<glyph unicode="t" horiz-adv-x="750" d="M100 770v230h100v300h300v-300h150v-230h-150v-420q0 -100 100 -100h50v-250h-150q-300 0 -300 300v470h-100z" />
<glyph unicode="u" horiz-adv-x="1030" d="M100 450v550h300v-550q0 -200 90 -200q91 0 140 70v680h300v-1000h-300v120q-50 -120 -190 -120q-340 0 -340 450z" />
<glyph unicode="v" horiz-adv-x="900" d="M0 1000h310l140 -710l140 710h310l-250 -1000h-400z" />
<glyph unicode="w" horiz-adv-x="1400" d="M0 1000h310l90 -660l90 660h420l90 -660l90 660h310l-200 -1000h-400l-100 666l-100 -666h-400z" />
<glyph unicode="x" d="M50 0l235 500l-235 500h330l120 -329l120 329h330l-235 -500l235 -500h-330l-120 328l-120 -328h-330z" />
<glyph unicode="y" horiz-adv-x="900" d="M0 1000h310l139 -718l141 718h310l-285 -1100q-95 -300 -465 -300q-25 0 -50 2.5t-50 7.5l21 246q25 -4 48 -6t43 -2q150 0 192 152h-104z" />
<glyph unicode="z" d="M100 0v250l420 500h-390v250h750v-250l-410 -500h430v-250h-800z" />
<glyph unicode="{" horiz-adv-x="900" d="M100 570v250q200 0 200 230v50q0 500 500 500v-250q-200 0 -200 -250v-100q0 -217 -155 -300q155 -83 155 -300v-100q0 -250 200 -250v-250q-500 0 -500 500v50q0 220 -200 220z" />
<glyph unicode="|" horiz-adv-x="700" d="M200 -200v1800h300v-1800h-300z" />
<glyph unicode="}" horiz-adv-x="900" d="M100 50q200 0 200 250v100q0 217 155 300q-155 83 -155 300v100q0 250 -200 250v250q500 0 500 -500v-50q0 -220 200 -220v-250q-200 0 -200 -230v-50q0 -500 -500 -500v250z" />
<glyph unicode="~" horiz-adv-x="1200" d="M100 550v250q100 150 250 150q149 0 265 -60q115 -60 255 -60q129 0 230 120v-250q-101 -150 -250 -150q-150 0 -265 60q-116 60 -255 60q-130 0 -230 -120z" />
<glyph unicode="&#xa1;" horiz-adv-x="700" d="M200 0l20 600h260l20 -600v-400h-300v400zM200 750v250h300v-250h-300z" />
<glyph unicode="&#xa2;" horiz-adv-x="999" d="M100 650v100q3 425 380 466v184h150v-183q204 -21 269 -167l-199 -170q-28 49 -70 73v-507q20 11 38 29.5t32 44.5l199 -170q-65 -146 -269 -167v-183h-150v184q-377 39 -380 466zM400 660q0 -177 80 -215v509q-77 -35 -80 -204v-90z" />
<glyph unicode="&#xa3;" horiz-adv-x="1100" d="M100 570v250h100v130q5 470 430 470q294 0 369 -200l-199 -170q-50 120 -170 120q-126 0 -130 -220v-130h200v-250h-200v-320h500v-250h-800v570h-100z" />
<glyph unicode="&#xa5;" horiz-adv-x="1200" d="M100 1400h300l200 -470l200 470h300l-263 -600h163v-200h-250v-200h250v-200h-250v-200h-300v200h-250v200h250v200h-250v200h162z" />
<glyph unicode="&#xa6;" horiz-adv-x="700" d="M200 -200v800h300v-800h-300zM200 800v800h300v-800h-300z" />
<glyph unicode="&#xa8;" horiz-adv-x="954" d="M100 1100v300h300v-300h-300zM550 1100v300h300v-300h-300z" />
<glyph unicode="&#xa9;" horiz-adv-x="1475" d="M100 850q0 264 187 451t451 187t450 -187q187 -187 187 -451t-187 -451q-186 -186 -450 -186t-451 186q-187 187 -187 451zM250 850q0 -202 143 -345q142 -142 345 -142q202 0 344 142q143 143 143 345t-143 345t-344 143q-202 0 -345 -143t-143 -345zM400 850 q0 140 99 239t239 99q139 0 238 -99q73 -73 92 -165h-157q-14 31 -41 59q-54 55 -132 55t-133 -55t-55 -133t55 -133q55 -54 133 -54t132 54q29 29 43 65h155q-18 -96 -92 -170q-99 -99 -238 -99q-140 0 -239 99t-99 238z" />
<glyph unicode="&#xab;" horiz-adv-x="1300" d="M100 700l300 400h300l-250 -400l250 -400h-300zM600 700l300 400h300l-250 -400l250 -400h-300z" />
<glyph unicode="&#xac;" horiz-adv-x="1200" d="M100 570v250h1000v-570h-300v320h-700z" />
<glyph unicode="&#xad;" horiz-adv-x="800" d="M100 570v250h600v-250h-600z" />
<glyph unicode="&#xae;" horiz-adv-x="1050" d="M100 1275q0 176 124 300q125 125 301 125q175 0 300 -125t125 -300q0 -176 -125 -301q-124 -124 -300 -124q-177 0 -301 124t-124 301zM200 1275q0 -133 95 -230q97 -95 230 -95q135 0 230 95q95 97 95 230q0 135 -95 230t-230 95q-133 0 -230 -95q-95 -95 -95 -230z M325 1050v450h250q150 0 150 -150q0 -125 -104 -146l104 -154h-115l-101 150h-84v-150h-100zM425 1300h150q50 0 50 50t-50 50h-150v-100z" />
<glyph unicode="&#xb0;" horiz-adv-x="800" d="M100 1100q0 124 88 212t212 88t212 -88t88 -212t-88 -212t-212 -88t-212 88t-88 212zM300 1100q0 -90 29 -121q31 -29 71 -29q41 0 70 29q30 30 30 121t-30 120q-29 30 -70 30t-71 -30q-29 -29 -29 -120z" />
<glyph unicode="&#xb1;" horiz-adv-x="1200" d="M100 0v250h1000v-250h-1000zM100 770v250h350v380h300v-380h350v-250h-350v-370h-300v370h-350z" />
<glyph unicode="&#xb4;" horiz-adv-x="830" d="M200 1100l100 300h330l-170 -300h-260z" />
<glyph unicode="&#xb5;" horiz-adv-x="1100" d="M100 -400v1400h300v-640q50 -110 150 -110t150 110v640h300v-1000h-300v100q-49 -100 -150 -100t-150 100v-500h-300z" />
<glyph unicode="&#xb6;" horiz-adv-x="1200" d="M100 1000q0 400 400 400h600v-1600h-200v1400h-200v-1400h-200v800q-400 0 -400 400z" />
<glyph unicode="&#xb7;" horiz-adv-x="700" d="M200 550v300h300v-300h-300z" />
<glyph unicode="&#xb8;" horiz-adv-x="830" d="M200 -400l170 300h260l-100 -300h-330z" />
<glyph unicode="&#xbb;" horiz-adv-x="1300" d="M100 300l250 400l-250 400h300l300 -400l-300 -400h-300zM600 300l250 400l-250 400h300l300 -400l-300 -400h-300z" />
<glyph unicode="&#xbf;" horiz-adv-x="1099" d="M101 0q0 250 150 370q149 120 160 230h280q0 -201 -145 -325t-145 -275q0 -170 150 -170t150 190l298 -38q-27 -402 -448 -402q-450 0 -450 420zM401 750v250h300v-250h-300z" />
<glyph unicode="&#xc0;" d="M0 0l290 1400h420l290 -1400h-300l-51 300h-299l-50 -300h-300zM213 1800h330l100 -300h-260zM394 550h212l-106 530z" />
<glyph unicode="&#xc1;" d="M0 0l290 1400h420l290 -1400h-300l-51 300h-299l-50 -300h-300zM357 1500l100 300h330l-170 -300h-260zM394 550h212l-106 530z" />
<glyph unicode="&#xc2;" d="M0 0l290 1400h420l290 -1400h-300l-51 300h-299l-50 -300h-300zM200 1500l160 300h280l160 -300h-230l-70 110l-70 -110h-230zM394 550h212l-106 530z" />
<glyph unicode="&#xc3;" d="M0 0l290 1400h420l290 -1400h-300l-51 300h-299l-50 -300h-300zM170 1502v199q66 99 175 99q90 0 160 -40q70 -39 153 -39q96 0 172 79v-199q-66 -99 -175 -99q-90 0 -160 39q-70 40 -153 40q-96 0 -172 -79zM394 550h212l-106 530z" />
<glyph unicode="&#xc4;" d="M0 0l290 1400h420l290 -1400h-300l-51 300h-299l-50 -300h-300zM125 1500v300h300v-300h-300zM394 550h212l-106 530zM575 1500v300h300v-300h-300z" />
<glyph unicode="&#xc5;" d="M0 0l290 1400h420l290 -1400h-300l-51 300h-299l-50 -300h-300zM300 1700q0 83 58 141q59 59 142 59q82 0 141 -59t59 -141q0 -83 -59 -142q-58 -58 -141 -58q-84 0 -142 58t-58 142zM394 550h212l-106 530zM450 1700q0 -21 14.5 -35.5t35.5 -14.5t35.5 14.5t14.5 35.5 t-14.5 35.5t-35.5 14.5t-35.5 -14.5t-14.5 -35.5z" />
<glyph unicode="&#xc6;" horiz-adv-x="1700" d="M0 0l400 1400h1200v-250h-600v-330h550v-250h-550v-320h600v-250h-900v300h-315l-85 -300h-300zM451 550h249v600h-90z" />
<glyph unicode="&#xc7;" horiz-adv-x="1099" d="M100 530v330q0 560 450 560q421 0 448 -402l-298 -38q0 190 -150 190t-150 -310v-330q0 -300 150 -300t150 180l299 -30q-25 -400 -449 -400q-450 0 -450 550zM335 -400l170 300h260l-100 -300h-330z" />
<glyph unicode="&#xc8;" d="M100 0v1400h800v-250h-500v-330h450v-250h-450v-320h500v-250h-800zM213 1800h330l100 -300h-260z" />
<glyph unicode="&#xc9;" d="M100 0v1400h800v-250h-500v-330h450v-250h-450v-320h500v-250h-800zM357 1500l100 300h330l-170 -300h-260z" />
<glyph unicode="&#xca;" d="M100 0v1400h800v-250h-500v-330h450v-250h-450v-320h500v-250h-800zM200 1500l160 300h280l160 -300h-230l-70 110l-70 -110h-230z" />
<glyph unicode="&#xcb;" d="M100 0v1400h800v-250h-500v-330h450v-250h-450v-320h500v-250h-800zM125 1500v300h300v-300h-300zM575 1500v300h300v-300h-300z" />
<glyph unicode="&#xcc;" horiz-adv-x="700" d="M66 1800h330l100 -300h-260zM200 0v1400h300v-1400h-300z" />
<glyph unicode="&#xcd;" horiz-adv-x="700" d="M200 0v1400h300v-1400h-300zM207 1500l100 300h330l-170 -300h-260z" />
<glyph unicode="&#xce;" horiz-adv-x="700" d="M53 1500l160 300h280l160 -300h-230l-70 110l-70 -110h-230zM200 0v1400h300v-1400h-300z" />
<glyph unicode="&#xcf;" horiz-adv-x="700" d="M-22 1500v300h300v-300h-300zM200 0v1400h300v-1400h-300zM428 1500v300h300v-300h-300z" />
<glyph unicode="&#xd0;" horiz-adv-x="1200" d="M100 590v210h100v600h400q500 0 500 -560v-290q0 -550 -500 -550h-400v590h-100zM500 250h100q200 0 200 300v290q0 310 -200 310h-100v-350h200v-210h-200v-340z" />
<glyph unicode="&#xd1;" horiz-adv-x="1100" d="M100 0v1400h300l300 -700v700h300v-1400h-300l-300 700v-700h-300zM220 1502v199q66 99 175 99q90 0 160 -40q70 -39 153 -39q96 0 172 79v-199q-66 -99 -175 -99q-90 0 -160 39q-70 40 -153 40q-96 0 -172 -79z" />
<glyph unicode="&#xd2;" horiz-adv-x="1100" d="M100 530v330q0 560 450 560t450 -560v-330q0 -550 -450 -550t-450 550zM263 1800h330l100 -300h-260zM400 530q0 -300 150 -300t150 300v330q0 310 -150 310t-150 -310v-330z" />
<glyph unicode="&#xd3;" horiz-adv-x="1100" d="M100 530v330q0 560 450 560t450 -560v-330q0 -550 -450 -550t-450 550zM400 530q0 -300 150 -300t150 300v330q0 310 -150 310t-150 -310v-330zM407 1500l100 300h330l-170 -300h-260z" />
<glyph unicode="&#xd4;" horiz-adv-x="1100" d="M100 530v330q0 560 450 560t450 -560v-330q0 -550 -450 -550t-450 550zM250 1500l160 300h280l160 -300h-230l-70 110l-70 -110h-230zM400 530q0 -300 150 -300t150 300v330q0 310 -150 310t-150 -310v-330z" />
<glyph unicode="&#xd5;" horiz-adv-x="1100" d="M100 530v330q0 560 450 560t450 -560v-330q0 -550 -450 -550t-450 550zM220 1502v199q66 99 175 99q90 0 160 -40q70 -39 153 -39q96 0 172 79v-199q-66 -99 -175 -99q-90 0 -160 39q-70 40 -153 40q-96 0 -172 -79zM400 530q0 -300 150 -300t150 300v330q0 310 -150 310 t-150 -310v-330z" />
<glyph unicode="&#xd6;" horiz-adv-x="1100" d="M100 530v330q0 560 450 560t450 -560v-330q0 -550 -450 -550t-450 550zM175 1500v300h300v-300h-300zM400 530q0 -300 150 -300t150 300v330q0 310 -150 310t-150 -310v-330zM625 1500v300h300v-300h-300z" />
<glyph unicode="&#xd7;" horiz-adv-x="1100" d="M90 453l247 247l-247 247l212 213l248 -248l247 248l212 -213l-247 -247l247 -247l-212 -213l-247 248l-248 -248z" />
<glyph unicode="&#xd8;" horiz-adv-x="1100" d="M100 530v330q0 560 450 560q56 0 106 -9l54 189h190l-74 -261q174 -131 174 -479v-330q0 -550 -450 -550q-58 0 -107 9l-53 -189h-190l73 259q-173 131 -173 471zM400 507l183 661q-11 1 -19 1.5t-14 0.5q-150 0 -150 -310v-353zM516 232q11 -1 19 -1.5t15 -0.5 q150 0 150 300v330v15.5t-1 15.5z" />
<glyph unicode="&#xd9;" horiz-adv-x="1100" d="M100 530v870h300v-870q0 -300 150 -300t150 300v870h300v-870q0 -550 -450 -550t-450 550zM263 1800h330l100 -300h-260z" />
<glyph unicode="&#xda;" horiz-adv-x="1100" d="M100 530v870h300v-870q0 -300 150 -300t150 300v870h300v-870q0 -550 -450 -550t-450 550zM407 1500l100 300h330l-170 -300h-260z" />
<glyph unicode="&#xdb;" horiz-adv-x="1100" d="M100 530v870h300v-870q0 -300 150 -300t150 300v870h300v-870q0 -550 -450 -550t-450 550zM250 1500l160 300h280l160 -300h-230l-70 110l-70 -110h-230z" />
<glyph unicode="&#xdc;" horiz-adv-x="1100" d="M100 530v870h300v-870q0 -300 150 -300t150 300v870h300v-870q0 -550 -450 -550t-450 550zM175 1500v300h300v-300h-300zM625 1500v300h300v-300h-300z" />
<glyph unicode="&#xdd;" d="M0 1400h300l200 -470l200 470h300l-350 -800v-600h-300v600zM357 1500l100 300h330l-170 -300h-260z" />
<glyph unicode="&#xde;" horiz-adv-x="1100" d="M100 0v1400h300v-250h100q500 0 500 -450t-500 -450h-100v-250h-300zM400 500h100q200 0 200 200t-200 200h-100v-400z" />
<glyph unicode="&#xdf;" horiz-adv-x="1100" d="M100 0v950q0 450 450 450t450 -400q0 -215 -188 -298q208 -81 208 -302q0 -400 -520 -400v250q220 0 220 180q0 140 -220 140v250q200 0 200 150q0 180 -150 180t-150 -200v-950h-300z" />
<glyph unicode="&#xe0;" d="M100 280q0 320 400 320h100q0 170 -100 170q-150 0 -250 -100l-130 190q179 160 380 160q400 0 400 -420v-400q0 -98 50 -200h-300q-33 66 -45 132q-72 -152 -255 -152q-250 0 -250 300zM238 1400h330l100 -300h-260zM400 280q0 -70 80 -70q90 0 120 70v100h-120 q-80 0 -80 -100z" />
<glyph unicode="&#xe1;" d="M100 280q0 320 400 320h100q0 170 -100 170q-150 0 -250 -100l-130 190q179 160 380 160q400 0 400 -420v-400q0 -98 50 -200h-300q-33 66 -45 132q-72 -152 -255 -152q-250 0 -250 300zM382 1100l100 300h330l-170 -300h-260zM400 280q0 -70 80 -70q90 0 120 70v100 h-120q-80 0 -80 -100z" />
<glyph unicode="&#xe2;" d="M100 280q0 320 400 320h100q0 170 -100 170q-150 0 -250 -100l-130 190q179 160 380 160q400 0 400 -420v-400q0 -98 50 -200h-300q-33 66 -45 132q-72 -152 -255 -152q-250 0 -250 300zM225 1100l160 300h280l160 -300h-230l-70 110l-70 -110h-230zM400 280 q0 -70 80 -70q90 0 120 70v100h-120q-80 0 -80 -100z" />
<glyph unicode="&#xe3;" d="M100 280q0 320 400 320h100q0 170 -100 170q-150 0 -250 -100l-130 190q179 160 380 160q400 0 400 -420v-400q0 -98 50 -200h-300q-33 66 -45 132q-72 -152 -255 -152q-250 0 -250 300zM195 1102v199q66 99 175 99q90 0 160 -40q70 -39 153 -39q96 0 172 79v-199 q-66 -99 -175 -99q-90 0 -160 39q-70 40 -153 40q-96 0 -172 -79zM400 280q0 -70 80 -70q90 0 120 70v100h-120q-80 0 -80 -100z" />
<glyph unicode="&#xe4;" d="M100 280q0 320 400 320h100q0 170 -100 170q-150 0 -250 -100l-130 190q179 160 380 160q400 0 400 -420v-400q0 -98 50 -200h-300q-33 66 -45 132q-72 -152 -255 -152q-250 0 -250 300zM150 1100v300h300v-300h-300zM400 280q0 -70 80 -70q90 0 120 70v100h-120 q-80 0 -80 -100zM600 1100v300h300v-300h-300z" />
<glyph unicode="&#xe5;" d="M100 280q0 320 400 320h100q0 170 -100 170q-150 0 -250 -100l-130 190q179 160 380 160q400 0 400 -420v-400q0 -98 50 -200h-300q-33 66 -45 132q-72 -152 -255 -152q-250 0 -250 300zM325 1300q0 83 58 141q59 59 142 59q82 0 141 -59t59 -141q0 -83 -59 -142 q-58 -58 -141 -58q-84 0 -142 58t-58 142zM400 280q0 -70 80 -70q90 0 120 70v100h-120q-80 0 -80 -100zM475 1300q0 -21 14.5 -35.5t35.5 -14.5t35.5 14.5t14.5 35.5t-14.5 35.5t-35.5 14.5t-35.5 -14.5t-14.5 -35.5z" />
<glyph unicode="&#xe6;" horiz-adv-x="1500" d="M100 280q0 320 400 320h100q0 170 -100 170q-150 0 -250 -100l-130 190q179 160 380 160q168 0 255 -97q90 97 255 97q390 0 390 -430v-200h-500q9 -160 130 -160q140 0 190 80l189 -160q-116 -170 -379 -170q-198 0 -292 124q-112 -124 -288 -124q-350 0 -350 300z M400 280q0 -70 80 -70q90 0 120 120v50h-120q-80 0 -80 -100zM900 600h200q-5 170 -90 170q-102 0 -110 -170z" />
<glyph unicode="&#xe7;" horiz-adv-x="999" d="M100 450v100q5 470 460 470q264 0 339 -170l-199 -170q-50 90 -140 90q-156 0 -160 -220v-90q0 -230 160 -230q90 0 140 90l199 -170q-75 -170 -339 -170q-455 0 -460 470zM285 -400l170 300h260l-100 -300h-330z" />
<glyph unicode="&#xe8;" d="M100 430v140q4 450 410 450q390 0 390 -430v-200h-500q9 -160 130 -160q140 0 190 80l189 -160q-116 -170 -379 -170q-426 0 -430 450zM218 1400h330l100 -300h-260zM400 600h200q-5 170 -90 170q-102 0 -110 -170z" />
<glyph unicode="&#xe9;" d="M100 430v140q4 450 410 450q390 0 390 -430v-200h-500q9 -160 130 -160q140 0 190 80l189 -160q-116 -170 -379 -170q-426 0 -430 450zM361 1100l100 300h330l-170 -300h-260zM400 600h200q-5 170 -90 170q-102 0 -110 -170z" />
<glyph unicode="&#xea;" d="M100 430v140q4 450 410 450q390 0 390 -430v-200h-500q9 -160 130 -160q140 0 190 80l189 -160q-116 -170 -379 -170q-426 0 -430 450zM205 1100l160 300h280l160 -300h-230l-70 110l-70 -110h-230zM400 600h200q-5 170 -90 170q-102 0 -110 -170z" />
<glyph unicode="&#xeb;" d="M100 430v140q4 450 410 450q390 0 390 -430v-200h-500q9 -160 130 -160q140 0 190 80l189 -160q-116 -170 -379 -170q-426 0 -430 450zM130 1100v300h300v-300h-300zM400 600h200q-5 170 -90 170q-102 0 -110 -170zM580 1100v300h300v-300h-300z" />
<glyph unicode="&#xec;" horiz-adv-x="700" d="M66 1400h330l100 -300h-260zM200 0v1000h300v-1000h-300z" />
<glyph unicode="&#xed;" horiz-adv-x="700" d="M200 0v1000h300v-1000h-300zM207 1100l100 300h330l-170 -300h-260z" />
<glyph unicode="&#xee;" horiz-adv-x="700" d="M53 1100l160 300h280l160 -300h-230l-70 110l-70 -110h-230zM200 0v1000h300v-1000h-300z" />
<glyph unicode="&#xef;" horiz-adv-x="700" d="M-22 1100v300h300v-300h-300zM200 0v1000h300v-1000h-300zM428 1100v300h300v-300h-300z" />
<glyph unicode="&#xf0;" horiz-adv-x="1030" d="M100 450v100q0 450 340 450q140 0 190 -120v220h-160v210h160v90h300v-90h140v-210h-140v-1100h-300v120q-50 -120 -200 -120q-330 0 -330 450zM400 450q0 -200 90 -200q91 0 140 70v360q-49 70 -140 70q-90 0 -90 -200v-100z" />
<glyph unicode="&#xf1;" horiz-adv-x="1030" d="M100 0v1000h300v-120q49 120 190 120q340 0 340 -450v-550h-300v550q0 200 -90 200q-91 0 -140 -70v-680h-300zM185 1102v199q66 99 175 99q90 0 160 -40q70 -39 153 -39q96 0 172 79v-199q-66 -99 -175 -99q-90 0 -160 39q-70 40 -153 40q-96 0 -172 -79z" />
<glyph unicode="&#xf2;" horiz-adv-x="1060" d="M100 450v100q5 470 430 470t430 -470v-100q-5 -470 -430 -470t-430 470zM243 1400h330l100 -300h-260zM400 460q0 -230 130 -230t130 230v80q0 230 -130 230t-130 -230v-80z" />
<glyph unicode="&#xf3;" horiz-adv-x="1060" d="M100 450v100q5 470 430 470t430 -470v-100q-5 -470 -430 -470t-430 470zM387 1100l100 300h330l-170 -300h-260zM400 460q0 -230 130 -230t130 230v80q0 230 -130 230t-130 -230v-80z" />
<glyph unicode="&#xf4;" horiz-adv-x="1060" d="M100 450v100q5 470 430 470t430 -470v-100q-5 -470 -430 -470t-430 470zM230 1100l160 300h280l160 -300h-230l-70 110l-70 -110h-230zM400 460q0 -230 130 -230t130 230v80q0 230 -130 230t-130 -230v-80z" />
<glyph unicode="&#xf5;" horiz-adv-x="1060" d="M100 450v100q5 470 430 470t430 -470v-100q-5 -470 -430 -470t-430 470zM200 1102v199q66 99 175 99q90 0 160 -40q70 -39 153 -39q96 0 172 79v-199q-66 -99 -175 -99q-90 0 -160 39q-70 40 -153 40q-96 0 -172 -79zM400 460q0 -230 130 -230t130 230v80q0 230 -130 230 t-130 -230v-80z" />
<glyph unicode="&#xf6;" horiz-adv-x="1060" d="M100 450v100q5 470 430 470t430 -470v-100q-5 -470 -430 -470t-430 470zM155 1100v300h300v-300h-300zM400 460q0 -230 130 -230t130 230v80q0 230 -130 230t-130 -230v-80zM605 1100v300h300v-300h-300z" />
<glyph unicode="&#xf7;" horiz-adv-x="1200" d="M100 570v250h1000v-250h-1000zM450 150v250h300v-250h-300zM450 1000v250h300v-250h-300z" />
<glyph unicode="&#xf8;" horiz-adv-x="1060" d="M100 450v100q5 470 430 470q13 0 25.5 -0.5t25.5 -1.5l109 382h190l-122 -428q198 -103 202 -422v-100q-5 -470 -430 -470q-14 0 -26.5 0.5t-25.5 1.5l-108 -382h-190l121 428q-199 102 -201 422zM400 460q0 -18 1.5 -34.5t3.5 -30.5l101 371q-106 -22 -106 -226v-80z M553 233q107 23 107 227v80q0 18 -1.5 34.5t-3.5 30.5z" />
<glyph unicode="&#xf9;" horiz-adv-x="1030" d="M100 450v550h300v-550q0 -200 90 -200q91 0 140 70v680h300v-1000h-300v120q-50 -120 -190 -120q-340 0 -340 450zM228 1400h330l100 -300h-260z" />
<glyph unicode="&#xfa;" horiz-adv-x="1030" d="M100 450v550h300v-550q0 -200 90 -200q91 0 140 70v680h300v-1000h-300v120q-50 -120 -190 -120q-340 0 -340 450zM372 1100l100 300h330l-170 -300h-260z" />
<glyph unicode="&#xfb;" horiz-adv-x="1030" d="M100 450v550h300v-550q0 -200 90 -200q91 0 140 70v680h300v-1000h-300v120q-50 -120 -190 -120q-340 0 -340 450zM215 1100l160 300h280l160 -300h-230l-70 110l-70 -110h-230z" />
<glyph unicode="&#xfc;" horiz-adv-x="1030" d="M100 450v550h300v-550q0 -200 90 -200q91 0 140 70v680h300v-1000h-300v120q-50 -120 -190 -120q-340 0 -340 450zM140 1100v300h300v-300h-300zM590 1100v300h300v-300h-300z" />
<glyph unicode="&#xfd;" horiz-adv-x="900" d="M0 1000h310l139 -718l141 718h310l-285 -1100q-95 -300 -465 -300q-25 0 -50 2.5t-50 7.5l21 246q25 -4 48 -6t43 -2q150 0 192 152h-104zM307 1100l100 300h330l-170 -300h-260z" />
<glyph unicode="&#xfe;" horiz-adv-x="1030" d="M100 -400v1800h300v-520q49 120 200 120q330 0 330 -450v-100q0 -450 -340 -450q-141 0 -190 120v-520h-300zM400 320q49 -70 140 -70q90 0 90 200v100q0 200 -90 200q-91 0 -140 -70v-360z" />
<glyph unicode="&#xff;" horiz-adv-x="900" d="M0 1000h310l139 -718l141 718h310l-285 -1100q-95 -300 -465 -300q-25 0 -50 2.5t-50 7.5l21 246q25 -4 48 -6t43 -2q150 0 192 152h-104zM78 1100v300h300v-300h-300zM528 1100v300h300v-300h-300z" />
<glyph unicode="&#x152;" horiz-adv-x="1652" d="M100 530v330q0 560 450 560q176 0 250 -126v106h750v-250h-450v-330h400v-250h-400v-320h450v-250h-750v102q-74 -122 -250 -122q-450 0 -450 550zM400 530q0 -300 200 -300q193 0 200 187v556q-6 197 -200 197q-200 0 -200 -310v-330z" />
<glyph unicode="&#x153;" horiz-adv-x="1600" d="M100 450v100q5 470 430 470q201 0 295 -136q88 136 285 136q390 0 390 -430v-200h-500q9 -160 130 -160q140 0 190 80l189 -160q-116 -170 -379 -170q-208 0 -302 138q-95 -138 -298 -138q-425 0 -430 470zM400 460q0 -230 130 -230t130 230v80q0 230 -130 230t-130 -230 v-80zM1000 600h200q-5 170 -90 170q-102 0 -110 -170z" />
<glyph unicode="&#x178;" d="M0 1400h300l200 -470l200 470h300l-350 -800v-600h-300v600zM125 1500v300h300v-300h-300zM575 1500v300h300v-300h-300z" />
<glyph unicode="&#x2c6;" horiz-adv-x="800" d="M100 1100l160 300h280l160 -300h-230l-70 110l-70 -110h-230z" />
<glyph unicode="&#x2dc;" horiz-adv-x="860" d="M100 1102v199q66 99 175 99q90 0 160 -40q70 -39 153 -39q96 0 172 79v-199q-66 -99 -175 -99q-90 0 -160 39q-70 40 -153 40q-96 0 -172 -79z" />
<glyph unicode="&#x2000;" horiz-adv-x="950" />
<glyph unicode="&#x2001;" horiz-adv-x="1900" />
<glyph unicode="&#x2002;" horiz-adv-x="950" />
<glyph unicode="&#x2003;" horiz-adv-x="1900" />
<glyph unicode="&#x2004;" horiz-adv-x="633" />
<glyph unicode="&#x2005;" horiz-adv-x="475" />
<glyph unicode="&#x2006;" horiz-adv-x="316" />
<glyph unicode="&#x2007;" horiz-adv-x="316" />
<glyph unicode="&#x2008;" horiz-adv-x="237" />
<glyph unicode="&#x2009;" horiz-adv-x="380" />
<glyph unicode="&#x200a;" horiz-adv-x="105" />
<glyph unicode="&#x2010;" horiz-adv-x="800" d="M100 570v250h600v-250h-600z" />
<glyph unicode="&#x2011;" horiz-adv-x="800" d="M100 570v250h600v-250h-600z" />
<glyph unicode="&#x2012;" horiz-adv-x="800" d="M100 570v250h600v-250h-600z" />
<glyph unicode="&#x2013;" horiz-adv-x="800" d="M100 570v250h600v-250h-600z" />
<glyph unicode="&#x2014;" d="M100 570v250h800v-250h-800z" />
<glyph unicode="&#x2018;" horiz-adv-x="700" d="M200 900v250q0 250 300 250v-150q-70 0 -70 -100h70v-250h-300z" />
<glyph unicode="&#x2019;" horiz-adv-x="700" d="M200 900v150q70 0 70 100h-70v250h300v-250q0 -250 -300 -250z" />
<glyph unicode="&#x201a;" horiz-adv-x="700" d="M200 0v250h300v-250q0 -250 -300 -250v150q70 0 70 100h-70z" />
<glyph unicode="&#x201c;" horiz-adv-x="1153" d="M200 900v250q0 250 300 250v-150q-70 0 -70 -100h70v-250h-300zM650 900v250q0 250 300 250v-150q-70 0 -70 -100h70v-250h-300z" />
<glyph unicode="&#x201d;" horiz-adv-x="1153" d="M200 900v150q70 0 70 100h-70v250h300v-250q0 -250 -300 -250zM650 900v150q70 0 70 100h-70v250h300v-250q0 -250 -300 -250z" />
<glyph unicode="&#x201e;" horiz-adv-x="1153" d="M200 0v250h300v-250q0 -250 -300 -250v150q70 0 70 100h-70zM650 0v250h300v-250q0 -250 -300 -250v150q70 0 70 100h-70z" />
<glyph unicode="&#x2022;" horiz-adv-x="800" d="M200 500v400h400v-400h-400z" />
<glyph unicode="&#x2026;" horiz-adv-x="2100" d="M200 0v250h300v-250h-300zM900 0v250h300v-250h-300zM1600 0v250h300v-250h-300z" />
<glyph unicode="&#x202f;" horiz-adv-x="380" />
<glyph unicode="&#x2039;" horiz-adv-x="800" d="M100 700l300 400h300l-250 -400l250 -400h-300z" />
<glyph unicode="&#x203a;" horiz-adv-x="800" d="M100 300l250 400l-250 400h300l300 -400l-300 -400h-300z" />
<glyph unicode="&#x205f;" horiz-adv-x="475" />
<glyph unicode="&#x20ac;" horiz-adv-x="1200" d="M100 440v160h100v200h-100v160h104q37 460 446 460q421 0 448 -402l-298 -38q0 190 -150 190q-133 0 -145 -210h245l-30 -160h-220v-200h183l-30 -160h-148q9 -210 145 -210q150 0 150 180l299 -30q-25 -400 -449 -400q-413 0 -447 460h-103z" />
<glyph unicode="&#x2122;" horiz-adv-x="1300" d="M100 1270v130h450v-130h-170v-470h-130v470h-150zM640 800v600h200l80 -410l80 410h200v-600h-130v400l-80 -400h-140l-80 400v-400h-130z" />
<glyph unicode="&#xe000;" d="M0 0v1000h1000v-1000h-1000z" />
</font>
</defs>
</svg>
