<?xml version="1.0" standalone="no"?>
<!DOCTYPE svg PUBLIC "-//W3C//DTD SVG 1.1//EN" "http://www.w3.org/Graphics/SVG/1.1/DTD/svg11.dtd" >
<svg xmlns="http://www.w3.org/2000/svg">
<metadata></metadata>
<defs>
<font id="freeroaditalic" horiz-adv-x="1000" >
<font-face units-per-em="2048" ascent="1638" descent="-410" />
<missing-glyph horiz-adv-x="600" />
<glyph horiz-adv-x="2048" />
<glyph horiz-adv-x="2048" />
<glyph unicode="&#xd;" horiz-adv-x="2048" />
<glyph unicode=" "  horiz-adv-x="600" />
<glyph unicode="&#x09;" horiz-adv-x="600" />
<glyph unicode="&#xa0;" horiz-adv-x="600" />
<glyph unicode="!" horiz-adv-x="600" d="M200 0l28 200h200l-28 -200h-200zM276 400l65 600l56 400h200l-56 -400l-105 -600h-160z" />
<glyph unicode="&#x22;" horiz-adv-x="900" d="M361 1000l8 200l28 200h200l-28 -200l-48 -200h-160zM661 1000l8 200l28 200h200l-28 -200l-48 -200h-160z" />
<glyph unicode="#" horiz-adv-x="1400" d="M142 300l28 200h207l142 400h-193l28 200h236l107 300h200l-107 -300h300l107 300h200l-107 -300h164l-28 -200h-207l-142 -400h193l-28 -200h-236l-106 -300h-200l106 300h-300l-106 -300h-200l106 300h-164zM577 500h300l142 400h-300z" />
<glyph unicode="$" horiz-adv-x="1098" d="M150 314q0 31 3 66l201 20q-3 -24 -3 -46q0 -143 149 -169l62 443q-11 3 -20 7q-293 104 -293 336q0 14 1 29t3 30q49 355 420 387l26 183h150l-26 -184q310 -31 310 -330q0 -30 -3 -61l-202 -25q4 23 4 48q0 138 -138 165l-61 -438q7 -2 13.5 -5t13.5 -5 q294 -104 294 -338q0 -14 -1 -28t-3 -29q-50 -356 -429 -387l-25 -183h-150l25 183q-321 30 -321 331zM452 1012q0 -94 140 -174l52 376q-168 -25 -191 -184q-1 -5 -1 -9v-9zM650 185q177 26 200 185q1 5 1 9v9q0 96 -148 177z" />
<glyph unicode="%" horiz-adv-x="1600" d="M233 908q0 38 6 82l13 90q50 320 345 320q260 0 260 -248q0 -17 -1.5 -35t-3.5 -37l-13 -90q-47 -330 -346 -330q-260 0 -260 248zM350 0l907 1400h190l-907 -1400h-190zM415 938q0 -118 100 -118q116 0 143 160l13 90q2 14 3 27t1 25q0 118 -100 118q-118 0 -143 -160 l-13 -90q-2 -14 -3 -27t-1 -25zM941 247q0 38 6 83l11 80q46 330 346 330q260 0 260 -248q0 -39 -6 -82l-13 -90q-50 -320 -345 -320q-259 0 -259 247zM1122 279q0 -119 101 -119q116 0 142 161l13 89q2 14 3 27t1 25q0 118 -100 118q-118 0 -143 -160l-14 -99 q-3 -23 -3 -42z" />
<glyph unicode="&#x26;" horiz-adv-x="1350" d="M149 308q0 22 1.5 44.5t5.5 47.5q37 264 325 373q-38 114 -38 210q0 17 1.5 33.5t3.5 33.5q50 350 399 350q307 0 307 -269q0 -38 -6 -81q-36 -251 -402 -375q35 -63 83.5 -130t109.5 -139q48 49 92.5 110t89.5 134l163 -50q-107 -192 -227 -324q46 -48 96.5 -98 t107.5 -102l-159 -139q-54 52 -103 102t-94 99q-189 -138 -405 -138q-351 0 -351 308zM353 354q0 -154 175 -154q132 0 256 76q-142 172 -225 323q-188 -93 -203 -199q-3 -26 -3 -46zM644 996q0 -78 28 -162q258 90 276 216q3 18 3 35q0 115 -132 115q-150 0 -171 -150 q-4 -23 -4 -54z" />
<glyph unicode="'" horiz-adv-x="600" d="M361 1000l8 200l28 200h200l-28 -200l-48 -200h-160z" />
<glyph unicode="(" horiz-adv-x="650" d="M177 423q0 130 21 277q86 601 427 900h150q-291 -299 -377 -900q-24 -173 -24 -320q0 -366 148 -580h-150q-195 226 -195 623z" />
<glyph unicode=")" horiz-adv-x="650" d="M72 -200q292 299 376 900q13 88 19 168t6 155q0 365 -148 577h150q194 -227 194 -621q0 -131 -21 -279q-84 -600 -426 -900h-150z" />
<glyph unicode="*" horiz-adv-x="800" d="M252 1080l52 160l190 -40l18 200l175 -1l-38 -200l195 41l8 -160l-173 -20l88 -160l-153 -90l-75 180l-125 -180l-127 90l142 160z" />
<glyph unicode="+" horiz-adv-x="1200" d="M184 600l28 200h400l56 400h200l-56 -400h400l-28 -200h-400l-56 -400h-200l56 400h-400z" />
<glyph unicode="," horiz-adv-x="600" d="M165 -250l14 100q70 0 91 150h-70l28 200h200l-28 -200q-34 -250 -235 -250z" />
<glyph unicode="-" horiz-adv-x="800" d="M184 600l28 200h600l-28 -200h-600z" />
<glyph unicode="." horiz-adv-x="600" d="M200 0l28 200h200l-28 -200h-200z" />
<glyph unicode="/" horiz-adv-x="700" d="M-28 -200l763 1800h190l-763 -1800h-190z" />
<glyph unicode="0" d="M157 342q0 32 2.5 66.5t7.5 71.5l65 458q68 482 467 482q343 0 343 -354q0 -29 -2.5 -61t-7.5 -67l-65 -458q-71 -500 -470 -500q-340 0 -340 362zM360 385q0 -205 165 -205q200 0 242 300l65 458q6 46 6 84q0 198 -167 198q-200 0 -239 -282l-65 -458q-4 -26 -5.5 -49.5 t-1.5 -45.5z" />
<glyph unicode="1" horiz-adv-x="850" d="M341 1000l28 200q99 0 278 200h200l-197 -1400h-200l162 1150q-141 -150 -271 -150z" />
<glyph unicode="2" d="M100 0l21 150q64 250 381 475t341 395q3 24 3 45q0 155 -176 155q-200 0 -233 -240l-193 38q84 402 455 402q351 0 351 -308q0 -22 -1.5 -44.5t-5.5 -47.5q-38 -270 -348 -480q-309 -210 -337 -340h570l-28 -200h-800z" />
<glyph unicode="3" horiz-adv-x="1050" d="M151 324q0 14 0.5 28t1.5 28l203 30q-2 -14 -3 -28t-1 -27q0 -175 192 -175q230 0 259 200q3 22 3 43q0 177 -242 177l28 200q250 0 281 220q3 22 3 43q0 157 -186 157q-200 0 -233 -240l-193 38q82 402 454 402q362 0 362 -311q0 -21 -1.5 -43.5t-5.5 -45.5 q-33 -237 -240 -318q175 -67 175 -256q0 -16 -1.5 -32.5t-3.5 -33.5q-57 -400 -487 -400q-365 0 -365 344z" />
<glyph unicode="4" horiz-adv-x="1050" d="M156 400l28 200l633 800h230l-113 -800h100l-28 -200h-100l-56 -400h-200l56 400h-550zM414 600h320l70 500z" />
<glyph unicode="5" horiz-adv-x="1050" d="M151 324q0 14 0.5 28t1.5 28l203 30q-2 -14 -3 -28t-1 -27q0 -175 192 -175q230 0 269 270l7 50q2 19 3.5 36t1.5 33q0 181 -170 181q-190 0 -264 -170l-183 50l159 770h730l-29 -200h-530l-79 -350q73 100 224 100q346 0 346 -336q0 -53 -9 -114l-7 -50 q-68 -470 -497 -470q-365 0 -365 344z" />
<glyph unicode="6" horiz-adv-x="1050" d="M157 350q0 30 2.5 62.5t7.5 67.5l61 430q70 510 501 510q364 0 364 -348q0 -13 -0.5 -26.5t-1.5 -27.5l-203 -38q2 16 3 30t1 28q0 182 -191 182q-230 0 -273 -310l-17 -120q122 110 275 110q335 0 335 -334q0 -25 -1.5 -51t-5.5 -55q-74 -480 -487 -480q-370 0 -370 370 zM361 395q0 -215 194 -215q216 0 258 270q2 20 3.5 37.5t1.5 34.5q0 178 -160 178q-141 0 -274 -100l-17 -120q-6 -47 -6 -85z" />
<glyph unicode="7" horiz-adv-x="1050" d="M241 1000l56 400h850l-28 -200l-650 -1280l-169 80l609 1200h-440l-28 -200h-200z" />
<glyph unicode="8" horiz-adv-x="1050" d="M149 311q0 21 1.5 43.5t5.5 45.5q32 222 212 303q-113 68 -113 223q0 35 6 74q55 400 456 400q361 0 361 -310q0 -21 -1.5 -43.5t-5.5 -46.5q-32 -215 -195 -297q135 -68 135 -235q0 -16 -1.5 -33t-3.5 -35q-55 -400 -486 -400q-371 0 -371 311zM353 357q0 -157 195 -157 q229 0 258 200q2 13 3 25.5t1 23.5q0 171 -203 171q-220 0 -251 -220q-3 -23 -3 -43zM457 945q0 -165 173 -165q210 0 241 220q3 24 3 44q0 156 -185 156q-199 0 -228 -200q-2 -15 -3 -28.5t-1 -26.5z" />
<glyph unicode="9" horiz-adv-x="1050" d="M153 328q0 13 0.5 26.5t1.5 27.5l204 38q-2 -16 -3.5 -31t-1.5 -29q0 -180 191 -180q231 0 274 310l16 119q-122 -109 -275 -109q-336 0 -336 333q0 54 9 117q77 470 486 470q368 0 368 -380q0 -32 -3 -67t-8 -73l-57 -410q-72 -510 -502 -510q-364 0 -364 348zM428 878 q0 -178 160 -178q141 0 274 100l14 100q4 26 5.5 50t1.5 46q0 224 -192 224q-216 0 -258 -270q-2 -20 -3.5 -37.5t-1.5 -34.5z" />
<glyph unicode=":" horiz-adv-x="600" d="M200 0l28 200h200l-28 -200h-200zM312 800l29 200h200l-29 -200h-200z" />
<glyph unicode=";" horiz-adv-x="600" d="M165 -250l14 100q70 0 91 150h-70l28 200h200l-28 -200q-34 -250 -235 -250zM313 800l28 200h200l-28 -200h-200z" />
<glyph unicode="&#x3c;" d="M184 600l28 200l849 350l-29 -210l-584 -240l516 -240l-29 -210z" />
<glyph unicode="=" d="M156 400l28 200h800l-28 -200h-800zM212 800l28 200h800l-28 -200h-800z" />
<glyph unicode="&#x3e;" d="M135 250l30 210l583 240l-516 240l29 210l751 -350l-28 -200z" />
<glyph unicode="?" horiz-adv-x="1099" d="M244 1018q82 402 504 402q398 0 398 -328q0 -22 -1.5 -44.5t-5.5 -47.5q-34 -250 -252 -370q-216 -120 -242 -230h-180q29 201 240 325q213 124 234 275q3 24 3 46q0 174 -222 174q-250 0 -283 -240zM399 0l28 200h200l-28 -200h-200z" />
<glyph unicode="@" horiz-adv-x="1400" d="M142 257q0 22 1.5 45t5.5 48l91 650q55 400 456 400h400q351 0 351 -308q0 -22 -1.5 -44.5t-5.5 -47.5l-140 -1000h-200l21 150q-122 -150 -281 -150q-316 0 -316 329q0 56 9 121l14 100q63 450 433 450q159 0 239 -150l21 150q3 25 3 46q0 154 -175 154h-400 q-199 0 -228 -200l-91 -650q-3 -24 -3 -46q0 -93 63 -130l-120 -186q-147 70 -147 269zM727 372q0 -172 141 -172q161 0 274 100l56 400q-85 100 -246 100q-171 0 -205 -250l-14 -100q-6 -44 -6 -78z" />
<glyph unicode="A" d="M0 0l597 1400h200l203 -1400h-200l-39 300h-439l-122 -300h-200zM404 500h332l-79 620z" />
<glyph unicode="B" horiz-adv-x="1100" d="M100 0l197 1400h480q351 0 351 -308q0 -22 -1.5 -44.5t-5.5 -47.5q-30 -211 -188 -295q128 -66 128 -232q0 -17 -1.5 -35t-3.5 -38q-55 -400 -456 -400h-500zM328 200h300q199 0 228 200q3 25 3 46q0 154 -175 154h-300zM412 800h280q200 0 229 200q3 25 3 46 q0 154 -175 154h-280z" />
<glyph unicode="C" horiz-adv-x="1099" d="M163 381q0 35 3 72t8 77l47 330q78 560 528 560q394 0 394 -352q0 -12 -0.5 -24.5t-1.5 -25.5l-203 -38q2 14 3 27t1 26q0 187 -221 187q-251 0 -300 -360l-47 -330q-4 -29 -6 -55t-2 -50q0 -245 209 -245q250 0 282 230l195 -30q-81 -400 -505 -400q-384 0 -384 401z " />
<glyph unicode="D" horiz-adv-x="1100" d="M100 0l197 1400h450q383 0 383 -405q0 -71 -12 -155l-41 -290q-76 -550 -527 -550h-450zM328 200h250q249 0 299 350l41 290q9 61 9 112q0 248 -208 248h-250z" />
<glyph unicode="E" d="M100 0l197 1400h800l-28 -200h-600l-57 -400h550l-28 -200h-550l-56 -400h600l-28 -200h-800z" />
<glyph unicode="F" d="M100 0l197 1400h800l-28 -200h-600l-57 -400h550l-28 -200h-550l-84 -600h-200z" />
<glyph unicode="G" horiz-adv-x="1100" d="M163 381q0 35 3 72t8 77l47 330q78 560 528 560q394 0 394 -352q0 -12 -0.5 -24.5t-1.5 -25.5l-203 -38q2 14 3 27t1 26q0 187 -221 187q-251 0 -300 -360l-47 -330q-4 -29 -6 -55t-2 -50q0 -245 209 -245q200 0 264 100l45 320h-200l28 200h400l-87 -620 q-179 -200 -478 -200q-384 0 -384 401z" />
<glyph unicode="H" horiz-adv-x="1100" d="M100 0l197 1400h200l-85 -600h500l85 600h200l-197 -1400h-200l84 600h-500l-84 -600h-200z" />
<glyph unicode="I" horiz-adv-x="600" d="M200 0l197 1400h200l-197 -1400h-200z" />
<glyph unicode="J" horiz-adv-x="1001" d="M150 320q0 28 3 60l203 30q-2 -16 -3 -30.5t-1 -28.5q0 -171 172 -171q200 0 237 250l137 970h200l-137 -970q-65 -450 -465 -450q-346 0 -346 340z" />
<glyph unicode="K" d="M100 0l197 1400h200l-87 -620l557 620h230l-536 -584l339 -816h-230l-258 655l-142 -155l-70 -500h-200z" />
<glyph unicode="L" d="M100 0l197 1400h200l-169 -1200h600l-28 -200h-800z" />
<glyph unicode="M" horiz-adv-x="1400" d="M100 0l197 1400h300l185 -820l415 820h300l-197 -1400h-200l158 1125l-416 -825h-200l-184 825l-158 -1125h-200z" />
<glyph unicode="N" horiz-adv-x="1100" d="M100 0l197 1400h200l359 -1000l141 1000h200l-197 -1400h-200l-359 1000l-141 -1000h-200z" />
<glyph unicode="O" horiz-adv-x="1100" d="M163 381q0 35 3 72t8 77l47 330q78 560 528 560q384 0 384 -407q0 -71 -12 -153l-47 -330q-76 -550 -527 -550q-384 0 -384 401zM366 425q0 -245 209 -245q249 0 299 350l47 330q4 30 6 57.5t2 52.5q0 250 -208 250q-251 0 -300 -360l-47 -330q-4 -29 -6 -55t-2 -50z" />
<glyph unicode="P" horiz-adv-x="1100" d="M100 0l197 1400h500q351 0 351 -308q0 -22 -1.5 -44.5t-5.5 -47.5q-57 -400 -457 -400h-300l-84 -600h-200zM412 800h300q200 0 229 200q3 25 3 46q0 154 -175 154h-300z" />
<glyph unicode="Q" horiz-adv-x="1100" d="M164 380q0 35 3 72t8 78l46 330q80 560 529 560q383 0 383 -405q0 -71 -12 -155l-46 -330q-49 -354 -254 -480q92 -70 177 -70l-78 -200q-101 0 -211 100t-211 100v2q-334 24 -334 398zM367 425q0 -245 209 -245q249 0 299 350l46 330q9 61 9 112q0 248 -208 248 q-250 0 -301 -360l-46 -330q-4 -29 -6 -55t-2 -50z" />
<glyph unicode="R" horiz-adv-x="1100" d="M100 0l197 1400h500q351 0 351 -308q0 -22 -1.5 -44.5t-5.5 -47.5q-57 -330 -337 -390l296 -610h-250l-266 600h-200l-84 -600h-200zM412 800h300q200 0 229 200q3 25 3 46q0 154 -175 154h-300z" />
<glyph unicode="S" horiz-adv-x="1098" d="M150 315q0 30 3 65l201 20q-3 -24 -3 -46q0 -174 222 -174q250 0 277 190q1 5 1 9v9q0 139 -309 247q-293 104 -293 336q0 14 1 29t3 30q54 390 494 390q386 0 386 -334q0 -30 -3 -61l-202 -25q4 23 4 47q0 173 -213 173q-241 0 -266 -190q-1 -5 -1 -9.5v-9.5 q0 -138 308 -246q294 -104 294 -338q0 -14 -1 -28t-3 -29q-56 -390 -505 -390q-395 0 -395 335z" />
<glyph unicode="T" horiz-adv-x="1100" d="M269 1200l28 200h900l-28 -200h-350l-169 -1200h-200l169 1200h-350z" />
<glyph unicode="U" horiz-adv-x="1100" d="M163 381q0 35 3 72t8 77l123 870h200l-123 -870q-4 -29 -6 -55t-2 -50q0 -245 209 -245q249 0 299 350l123 870h200l-123 -870q-76 -550 -527 -550q-384 0 -384 401z" />
<glyph unicode="V" d="M197 1400h200l143 -1120l457 1120h200l-597 -1400h-200z" />
<glyph unicode="W" horiz-adv-x="1650" d="M197 1400h200l93 -1120l407 1120h250l93 -1120l407 1120h200l-517 -1400h-260l-94 1072l-396 -1072h-260z" />
<glyph unicode="X" horiz-adv-x="1100" d="M50 0l483 700l-286 700h230l201 -491l339 491h230l-484 -700l287 -700h-230l-201 491l-339 -491h-230z" />
<glyph unicode="Y" d="M197 1400h200l217 -590l383 590h200l-512 -800l-85 -600h-200l85 600z" />
<glyph unicode="Z" horiz-adv-x="1100" d="M100 0l28 200l781 1000h-610l28 200h850l-28 -200l-781 -1000h660l-28 -200h-900z" />
<glyph unicode="[" horiz-adv-x="650" d="M72 -200l253 1800h450l-28 -200h-250l-197 -1400h250l-28 -200h-450z" />
<glyph unicode="\" horiz-adv-x="700" d="M225 1600h190l257 -1800h-190z" />
<glyph unicode="]" horiz-adv-x="650" d="M72 -200l28 200h250l197 1400h-250l28 200h450l-253 -1800h-450z" />
<glyph unicode="^" d="M198 700l378 700h240l182 -700h-210l-118 510l-262 -510h-210z" />
<glyph unicode="_" horiz-adv-x="800" d="M-56 -400l21 150h800l-21 -150h-800z" />
<glyph unicode="`" horiz-adv-x="730" d="M397 1400h230l72 -200h-160z" />
<glyph unicode="a" d="M135 219q0 14 1 29.5t3 31.5q42 300 442 300h200l3 20q2 15 3 28.5t1 26.5q0 165 -173 165q-151 0 -264 -100l-110 140q202 160 402 160q349 0 349 -319q0 -23 -2 -48.5t-6 -52.5l-56 -400q-2 -14 -3 -28t-1 -28q0 -71 26 -144h-200q-24 66 -27 132q-93 -152 -276 -152 q-312 0 -312 239zM339 262q0 -102 133 -102q220 0 274 170l11 80h-200q-200 0 -216 -120q-1 -8 -1.5 -14.5t-0.5 -13.5z" />
<glyph unicode="b" horiz-adv-x="1030" d="M100 0l197 1400h200l-78 -550q121 150 282 150q315 0 315 -327q0 -57 -9 -123l-14 -100q-63 -450 -433 -450q-160 0 -239 150l-21 -150h-200zM342 300q85 -100 246 -100q171 0 205 250l14 100q6 43 6 78q0 172 -141 172q-161 0 -274 -100z" />
<glyph unicode="c" horiz-adv-x="999" d="M155 338q0 26 2 54t6 58l14 100q71 470 496 470q294 0 341 -200l-166 -120q-33 120 -203 120q-226 0 -268 -270l-13 -90q-6 -41 -6 -75q0 -205 197 -205q169 0 237 120l132 -120q-104 -200 -397 -200q-372 0 -372 358z" />
<glyph unicode="d" horiz-adv-x="1030" d="M154 329q0 56 9 121l14 100q64 450 434 450q160 0 238 -150l78 550h200l-197 -1400h-200l21 150q-122 -150 -281 -150q-316 0 -316 329zM357 372q0 -172 141 -172q161 0 274 100l56 400q-85 100 -246 100q-171 0 -205 -250l-14 -100q-6 -44 -6 -78z" />
<glyph unicode="e" d="M153 328q0 24 1.5 49.5t5.5 52.5l20 140q67 450 473 450q336 0 336 -333q0 -54 -9 -117l-21 -150h-600q-3 -24 -3 -46q0 -194 199 -194q169 0 237 120l132 -120q-104 -200 -397 -200q-374 0 -374 348zM381 580h400q2 17 3 32.5t1 29.5q0 178 -160 178q-202 0 -244 -240z " />
<glyph unicode="f" horiz-adv-x="750" d="M200 0l115 820h-100l26 180h100l14 100q42 300 342 300q71 0 144 -40l-25 -180q-78 20 -147 20q-101 0 -114 -100l-14 -100h250l-26 -180h-250l-115 -820h-200z" />
<glyph unicode="g" horiz-adv-x="1030" d="M100 -220l166 120q33 -120 203 -120q230 0 262 230l20 140q-122 -150 -281 -150q-316 0 -316 329q0 56 9 121l14 100q64 450 434 450q160 0 238 -150l22 150h200l-140 -990q-60 -430 -490 -430q-294 0 -341 200zM357 372q0 -172 141 -172q161 0 274 100l56 400 q-85 100 -246 100q-171 0 -205 -250l-14 -100q-6 -44 -6 -78z" />
<glyph unicode="h" horiz-adv-x="1030" d="M100 0l197 1400h200l-78 -550q121 150 282 150q315 0 315 -327q0 -57 -9 -123l-77 -550h-200l77 550q6 43 6 78q0 172 -141 172q-161 0 -274 -100l-98 -700h-200z" />
<glyph unicode="i" horiz-adv-x="600" d="M200 0l141 1000h200l-141 -1000h-200zM369 1200l28 200h200l-28 -200h-200z" />
<glyph unicode="j" horiz-adv-x="600" d="M-153 -375l85 184q31 -29 110 -29q120 0 150 200l143 1020h200l-143 -1020q-58 -400 -378 -400q-112 0 -167 45zM362 1200l28 200h200l-28 -200h-200z" />
<glyph unicode="k" horiz-adv-x="953" d="M100 0l197 1400h200l-117 -830l451 430h260l-438 -409l297 -591h-230l-221 446l-157 -146l-42 -300h-200z" />
<glyph unicode="l" horiz-adv-x="600" d="M200 0l197 1400h200l-197 -1400h-200z" />
<glyph unicode="m" horiz-adv-x="1550" d="M100 0l141 1000h200l-22 -150q121 150 252 150q209 0 268 -150q151 150 302 150q296 0 296 -322q0 -29 -2.5 -61t-7.5 -67l-77 -550h-200l77 550q4 23 5.5 44.5t1.5 41.5q0 164 -122 164q-150 0 -244 -100v-17q0 -28 -3 -61t-8 -72l-77 -550h-200l77 550q4 23 5.5 44.5 t1.5 41.5q0 164 -122 164q-131 0 -244 -100l-98 -700h-200z" />
<glyph unicode="n" horiz-adv-x="1030" d="M100 0l141 1000h200l-22 -150q121 150 282 150q315 0 315 -327q0 -57 -9 -123l-77 -550h-200l77 550q6 43 6 78q0 172 -141 172q-161 0 -274 -100l-98 -700h-200z" />
<glyph unicode="o" horiz-adv-x="1060" d="M155 338q0 26 2 54t6 58l14 100q71 470 496 470q372 0 372 -359q0 -26 -2 -54t-6 -57l-14 -100q-71 -470 -496 -470q-372 0 -372 358zM358 385q0 -205 197 -205q230 0 269 280l12 80q6 40 6 75q0 205 -197 205q-230 0 -269 -280l-12 -80q-6 -41 -6 -75z" />
<glyph unicode="p" horiz-adv-x="1030" d="M44 -400l197 1400h200l-21 -150q121 150 281 150q316 0 316 -329q0 -57 -9 -121l-15 -100q-63 -450 -433 -450q-160 0 -239 150l-77 -550h-200zM342 300q85 -100 246 -100q171 0 205 250l15 100q6 43 6 78q0 172 -141 172q-161 0 -274 -100z" />
<glyph unicode="q" horiz-adv-x="1030" d="M154 329q0 56 9 121l14 100q64 450 434 450q160 0 238 -150l22 150h200l-197 -1400h-200l77 550q-122 -150 -281 -150q-316 0 -316 329zM357 372q0 -172 141 -172q161 0 274 100l56 400q-85 100 -246 100q-171 0 -205 -250l-14 -100q-6 -44 -6 -78z" />
<glyph unicode="r" horiz-adv-x="800" d="M100 0l141 1000h200l-22 -150q121 150 282 150q102 0 179 -51l-83 -180q-47 31 -125 31q-161 0 -274 -100l-98 -700h-200z" />
<glyph unicode="s" horiz-adv-x="994" d="M110 70l88 185q103 -85 319 -85q200 0 220 140v2q0 87 -195 98q-343 9 -343 239q0 12 1 24.5t3 26.5q51 320 435 320q211 0 360 -94l-87 -186q-108 90 -300 90q-187 0 -209 -133q-1 -3 -1 -10q0 -88 186 -97q353 -9 353 -240q0 -12 -1 -24.5t-3 -25.5h-2 q-50 -320 -444 -320q-278 0 -380 90z" />
<glyph unicode="t" horiz-adv-x="750" d="M215 820l26 180h100l42 300h200l-42 -300h250l-26 -180h-250l-66 -470q-4 -23 -4 -48q0 -102 83 -102q68 0 153 20l-25 -180q-84 -40 -156 -40q-258 0 -258 259q0 21 1.5 43.5t5.5 47.5l66 470h-100z" />
<glyph unicode="u" horiz-adv-x="1030" d="M154 329q0 56 9 121l78 550h200l-78 -550q-6 -44 -6 -78q0 -172 141 -172q161 0 274 100l99 700h200l-141 -1000h-200l21 150q-122 -150 -281 -150q-316 0 -316 329z" />
<glyph unicode="v" horiz-adv-x="900" d="M141 1000h210l140 -710l340 710h210l-491 -1000h-200z" />
<glyph unicode="w" horiz-adv-x="1400" d="M141 1000h210l97 -660l283 660h220l97 -660l283 660h210l-441 -1000h-200l-106 666l-294 -666h-200z" />
<glyph unicode="x" d="M50 0l405 500l-264 500h230l173 -329l267 329h230l-406 -500l265 -500h-230l-174 328l-266 -328h-230z" />
<glyph unicode="y" horiz-adv-x="900" d="M-5 -390l49 196q37 -6 78 -6q130 0 185 100l47 100h-4l-210 1000h210l138 -718l342 718h210l-539 -1100q-137 -300 -407 -300q-52 0 -99 10z" />
<glyph unicode="z" d="M100 0l28 200l604 600h-490l29 200h750l-29 -200l-604 -600h540l-28 -200h-800z" />
<glyph unicode="{" horiz-adv-x="800" d="M184 600l28 200q199 0 228 200l28 200q57 400 457 400l-29 -200q-199 0 -228 -200l-28 -200q-30 -217 -197 -300q118 -67 118 -227q0 -17 -1.5 -35t-3.5 -38l-28 -200q-3 -26 -3 -46q0 -154 175 -154l-28 -200q-351 0 -351 308q0 22 1.5 44.5t5.5 47.5l28 200q3 25 3 46 q0 154 -175 154z" />
<glyph unicode="|" horiz-adv-x="600" d="M172 -200l253 1800h200l-253 -1800h-200z" />
<glyph unicode="}" horiz-adv-x="800" d="M72 -200l28 200q199 0 228 200l28 200q32 218 196 300q-117 67 -117 226q0 35 6 74l28 200q3 25 3 46q0 154 -175 154l28 200q351 0 351 -308q0 -22 -1.5 -44.5t-5.5 -47.5l-28 -200q-3 -26 -3 -46q0 -154 175 -154l-29 -200q-199 0 -228 -200l-28 -200 q-55 -400 -456 -400z" />
<glyph unicode="~" horiz-adv-x="1200" d="M184 600l21 150q121 150 271 150q149 0 256 -60q106 -60 247 -60q130 0 247 120l-21 -150q-122 -150 -271 -150q-151 0 -257 60q-107 60 -246 60q-130 0 -247 -120z" />
<glyph unicode="&#xa1;" horiz-adv-x="600" d="M144 -400l56 400l105 600h160l-65 -600l-56 -400h-200zM313 800l28 200h200l-28 -200h-200z" />
<glyph unicode="&#xa2;" horiz-adv-x="999" d="M184 538q0 26 2 54t6 58l14 100q63 423 415 465l26 185h150l-26 -183q230 -23 272 -197l-166 -120q-25 93 -134 114l-89 -628q115 21 167 114l132 -120q-91 -174 -327 -197l-26 -183h-150l26 184q-292 36 -292 354zM387 584q0 -158 118 -194l87 620q-153 -44 -186 -260 l-13 -90q-6 -41 -6 -76z" />
<glyph unicode="&#xa3;" horiz-adv-x="1100" d="M184 600l28 200h100l21 150q71 470 496 470q294 0 341 -200l-166 -120q-33 120 -203 120q-226 0 -268 -270l-21 -150h300l-28 -200h-300l-56 -400h600l-28 -200h-800l84 600h-100z" />
<glyph unicode="&#xa5;" horiz-adv-x="1200" d="M235 250l21 150h300l21 150h-300l21 150h250l-251 700h200l217 -590l383 590h200l-449 -700h250l-21 -150h-300l-21 -150h300l-21 -150h-300l-35 -250h-200l35 250h-300z" />
<glyph unicode="&#xa6;" horiz-adv-x="600" d="M172 -200l112 800h200l-112 -800h-200zM313 800l112 800h200l-112 -800h-200z" />
<glyph unicode="&#xa8;" horiz-adv-x="800" d="M269 1200l28 200h200l-28 -200h-200zM669 1200l28 200h200l-28 -200h-200z" />
<glyph unicode="&#xa9;" horiz-adv-x="1475" d="M212 754q0 23 1.5 47t5.5 49q37 264 250 451q214 187 478 187t424 -187q130 -151 130 -354q0 -23 -1.5 -47.5t-5.5 -49.5q-37 -264 -250 -451q-212 -186 -476 -186q-265 0 -425 187q-131 152 -131 354zM364 777q0 -156 100 -271q123 -143 325 -143q201 0 364 142 q162 142 191 345q2 19 3.5 37.5t1.5 35.5q0 156 -99 272q-123 143 -324 143q-202 0 -366 -143q-162 -142 -191 -345q-2 -19 -3.5 -37t-1.5 -36zM516 801q0 23 3 49q19 139 133 239q112 99 253 99q138 0 224 -99q61 -72 69 -165h-157q-11 32 -33 59q-46 55 -124 55 q-79 0 -141 -55q-64 -56 -74 -133q-1 -8 -1.5 -15t-0.5 -14q0 -60 39 -103q46 -55 125 -55q77 0 139 54q35 30 53 65h155q-31 -95 -116 -170q-113 -99 -252 -99q-140 0 -225 99q-69 81 -69 189z" />
<glyph unicode="&#xab;" horiz-adv-x="1100" d="M198 700l356 400h200l-306 -400l194 -400h-200zM598 700l356 400h200l-306 -400l194 -400h-200z" />
<glyph unicode="&#xac;" horiz-adv-x="1200" d="M184 600l28 200h1000l-84 -600h-200l56 400h-800z" />
<glyph unicode="&#xad;" horiz-adv-x="800" d="M184 600l28 200h600l-28 -200h-600z" />
<glyph unicode="&#xae;" horiz-adv-x="1050" d="M274 1210q0 16 1.5 32t3.5 33q24 176 166 300q143 125 318 125q177 0 283 -124q87 -102 87 -238q0 -16 -1 -31.5t-3 -31.5q-26 -178 -167 -301q-142 -124 -318 -124t-283 125q-87 100 -87 235zM375 1226q0 -104 67 -180q82 -96 216 -96t243 95q108 95 128 230q4 23 4 49 q0 105 -67 181q-83 95 -217 95q-133 0 -243 -95q-107 -94 -127 -230q-4 -23 -4 -49zM472 1050l63 450h250q132 0 132 -115q0 -17 -3 -35q-17 -125 -124 -146l82 -154h-115l-80 150h-84l-21 -150h-100zM607 1300h150q49 0 57 50q1 4 1 12q0 38 -44 38h-150z" />
<glyph unicode="&#xb0;" horiz-adv-x="800" d="M251 1056q0 21 3 44q18 124 118 212t225 88q124 0 200 -88q60 -71 60 -166q0 -22 -3 -46q-16 -122 -118 -212q-100 -88 -224 -88t-199 88q-62 73 -62 168zM390 1077q0 -54 34 -91q40 -48 108 -48q66 0 121 47q54 48 63 115q1 7 1.5 13t0.5 12q0 51 -33 90q-41 47 -108 47 t-121 -48q-53 -46 -64 -114q-1 -6 -1.5 -12t-0.5 -11z" />
<glyph unicode="&#xb1;" horiz-adv-x="1200" d="M100 0l28 200h1000l-28 -200h-1000zM212 800l29 200h400l56 400h200l-56 -400h400l-29 -200h-400l-56 -400h-200l56 400h-400z" />
<glyph unicode="&#xb4;" horiz-adv-x="730" d="M369 1200l128 200h230l-198 -200h-160z" />
<glyph unicode="&#xb5;" horiz-adv-x="1100" d="M44 -400l197 1400h200l-99 -700q85 -100 236 -100t264 100l99 700h200l-141 -1000h-200l21 150q-122 -150 -271 -150q-150 0 -229 150l-77 -550h-200z" />
<glyph unicode="&#xb6;" horiz-adv-x="1200" d="M233 908q0 22 1.5 44.5t5.5 47.5q55 400 456 400h600l-224 -1600h-200l196 1400h-200l-196 -1400h-200l112 800q-351 0 -351 308z" />
<glyph unicode="&#xb7;" horiz-adv-x="700" d="M277 550l42 300h300l-42 -300h-300z" />
<glyph unicode="&#xb8;" horiz-adv-x="730" d="M144 -400l198 200h160l-128 -200h-230z" />
<glyph unicode="&#xbb;" horiz-adv-x="1100" d="M142 300l306 400l-194 400h200l244 -400l-356 -400h-200zM542 300l306 400l-194 400h200l244 -400l-356 -400h-200z" />
<glyph unicode="&#xbf;" horiz-adv-x="1099" d="M94 -92q0 22 1.5 44.5t5.5 47.5q34 250 252 370q216 119 242 230h180q-29 -201 -241 -325q-212 -125 -233 -275q-3 -24 -3 -46q0 -174 222 -174q249 0 284 240l192 -38q-83 -402 -504 -402q-398 0 -398 328zM613 800l29 200h200l-29 -200h-200z" />
<glyph unicode="&#xc0;" d="M0 0l597 1400h200l203 -1400h-200l-39 300h-439l-122 -300h-200zM404 500h332l-79 620zM533 1800h230l72 -200h-160z" />
<glyph unicode="&#xc1;" d="M0 0l597 1400h200l203 -1400h-200l-39 300h-439l-122 -300h-200zM404 500h332l-79 620zM615 1600l128 200h230l-198 -200h-160z" />
<glyph unicode="&#xc2;" d="M0 0l597 1400h200l203 -1400h-200l-39 300h-439l-122 -300h-200zM404 500h332l-79 620zM475 1600l158 200h240l102 -200h-180l-55 110l-85 -110h-180z" />
<glyph unicode="&#xc3;" d="M0 0l597 1400h200l203 -1400h-200l-39 300h-439l-122 -300h-200zM388 1552l21 149q79 99 189 99q90 0 154 -40q66 -39 148 -39q97 0 183 79l-21 -149q-80 -99 -189 -99q-89 0 -155 39q-64 40 -147 40q-97 0 -183 -79zM404 500h332l-79 620z" />
<glyph unicode="&#xc4;" d="M0 0l597 1400h200l203 -1400h-200l-39 300h-439l-122 -300h-200zM404 500h332l-79 620zM425 1600l28 200h200l-28 -200h-200zM825 1600l28 200h200l-28 -200h-200z" />
<glyph unicode="&#xc5;" d="M0 0l597 1400h200l203 -1400h-200l-39 300h-439l-122 -300h-200zM404 500h332l-79 620zM537 1669q0 8 0.5 15.5t1.5 15.5q12 82 78 141q68 59 150 59q83 0 134 -58q40 -47 40 -111q0 -8 -0.5 -15.5t-1.5 -15.5q-12 -84 -79 -142q-65 -58 -149 -58q-83 0 -133 59 q-41 47 -41 110zM659 1687q0 -26 16 -43q20 -23 53 -23t59.5 23t31.5 56q1 4 1 13q0 25 -16 44q-21 23 -54 23t-59 -23.5t-31 -56.5q-1 -5 -1 -13z" />
<glyph unicode="&#xc6;" horiz-adv-x="1700" d="M0 0l597 1400h1200l-28 -200h-600l-57 -400h550l-28 -200h-550l-56 -400h600l-28 -200h-800l42 300h-515l-127 -300h-200zM411 500h459l99 700h-260z" />
<glyph unicode="&#xc7;" horiz-adv-x="1099" d="M163 381q0 35 3 72t8 77l47 330q78 560 528 560q394 0 394 -352q0 -12 -0.5 -24.5t-1.5 -25.5l-203 -38q2 14 3 27t1 26q0 187 -221 187q-251 0 -300 -360l-47 -330q-4 -29 -6 -55t-2 -50q0 -245 209 -245q250 0 282 230l195 -30q-81 -400 -505 -400q-384 0 -384 401z M328 -400l198 200h160l-128 -200h-230z" />
<glyph unicode="&#xc8;" d="M100 0l197 1400h800l-28 -200h-600l-57 -400h550l-28 -200h-550l-56 -400h600l-28 -200h-800zM533 1800h230l72 -200h-160z" />
<glyph unicode="&#xc9;" d="M100 0l197 1400h800l-28 -200h-600l-57 -400h550l-28 -200h-550l-56 -400h600l-28 -200h-800zM615 1600l128 200h230l-198 -200h-160z" />
<glyph unicode="&#xca;" d="M100 0l197 1400h800l-28 -200h-600l-57 -400h550l-28 -200h-550l-56 -400h600l-28 -200h-800zM475 1600l158 200h240l102 -200h-180l-55 110l-85 -110h-180z" />
<glyph unicode="&#xcb;" d="M100 0l197 1400h800l-28 -200h-600l-57 -400h550l-28 -200h-550l-56 -400h600l-28 -200h-800zM425 1600l28 200h200l-28 -200h-200zM825 1600l28 200h200l-28 -200h-200z" />
<glyph unicode="&#xcc;" horiz-adv-x="600" d="M200 0l197 1400h200l-197 -1400h-200zM333 1800h230l72 -200h-160z" />
<glyph unicode="&#xcd;" horiz-adv-x="600" d="M200 0l197 1400h200l-197 -1400h-200zM415 1600l128 200h230l-198 -200h-160z" />
<glyph unicode="&#xce;" horiz-adv-x="600" d="M200 0l197 1400h200l-197 -1400h-200zM275 1600l158 200h240l102 -200h-180l-55 110l-85 -110h-180z" />
<glyph unicode="&#xcf;" horiz-adv-x="600" d="M200 0l197 1400h200l-197 -1400h-200zM225 1600l28 200h200l-28 -200h-200zM625 1600l28 200h200l-28 -200h-200z" />
<glyph unicode="&#xd0;" horiz-adv-x="1200" d="M187 620l22 160h100l88 620h450q383 0 383 -405q0 -71 -12 -155l-41 -290q-76 -550 -527 -550h-450l87 620h-100zM428 200h250q249 0 299 350l41 290q9 61 9 112q0 248 -208 248h-250l-60 -420h300l-22 -160h-300z" />
<glyph unicode="&#xd1;" horiz-adv-x="1100" d="M100 0l197 1400h200l359 -1000l141 1000h200l-197 -1400h-200l-359 1000l-141 -1000h-200zM438 1552l21 149q79 99 189 99q90 0 154 -40q66 -39 148 -39q97 0 183 79l-21 -149q-80 -99 -189 -99q-89 0 -155 39q-64 40 -147 40q-97 0 -183 -79z" />
<glyph unicode="&#xd2;" horiz-adv-x="1100" d="M163 381q0 35 3 72t8 77l47 330q78 560 528 560q384 0 384 -407q0 -71 -12 -153l-47 -330q-76 -550 -527 -550q-384 0 -384 401zM366 425q0 -245 209 -245q249 0 299 350l47 330q4 30 6 57.5t2 52.5q0 250 -208 250q-251 0 -300 -360l-47 -330q-4 -29 -6 -55t-2 -50z M583 1800h230l72 -200h-160z" />
<glyph unicode="&#xd3;" horiz-adv-x="1100" d="M163 381q0 35 3 72t8 77l47 330q78 560 528 560q384 0 384 -407q0 -71 -12 -153l-47 -330q-76 -550 -527 -550q-384 0 -384 401zM366 425q0 -245 209 -245q249 0 299 350l47 330q4 30 6 57.5t2 52.5q0 250 -208 250q-251 0 -300 -360l-47 -330q-4 -29 -6 -55t-2 -50z M665 1600l128 200h230l-198 -200h-160z" />
<glyph unicode="&#xd4;" horiz-adv-x="1100" d="M163 381q0 35 3 72t8 77l47 330q78 560 528 560q384 0 384 -407q0 -71 -12 -153l-47 -330q-76 -550 -527 -550q-384 0 -384 401zM366 425q0 -245 209 -245q249 0 299 350l47 330q4 30 6 57.5t2 52.5q0 250 -208 250q-251 0 -300 -360l-47 -330q-4 -29 -6 -55t-2 -50z M525 1600l158 200h240l102 -200h-180l-55 110l-85 -110h-180z" />
<glyph unicode="&#xd5;" horiz-adv-x="1100" d="M163 381q0 35 3 72t8 77l47 330q78 560 528 560q384 0 384 -407q0 -71 -12 -153l-47 -330q-76 -550 -527 -550q-384 0 -384 401zM366 425q0 -245 209 -245q249 0 299 350l47 330q4 30 6 57.5t2 52.5q0 250 -208 250q-251 0 -300 -360l-47 -330q-4 -29 -6 -55t-2 -50z M438 1552l21 149q79 99 189 99q90 0 154 -40q66 -39 148 -39q97 0 183 79l-21 -149q-80 -99 -189 -99q-89 0 -155 39q-64 40 -147 40q-97 0 -183 -79z" />
<glyph unicode="&#xd6;" horiz-adv-x="1100" d="M163 381q0 35 3 72t8 77l47 330q78 560 528 560q384 0 384 -407q0 -71 -12 -153l-47 -330q-76 -550 -527 -550q-384 0 -384 401zM366 425q0 -245 209 -245q249 0 299 350l47 330q4 30 6 57.5t2 52.5q0 250 -208 250q-251 0 -300 -360l-47 -330q-4 -29 -6 -55t-2 -50z M475 1600l28 200h200l-28 -200h-200zM875 1600l28 200h200l-28 -200h-200z" />
<glyph unicode="&#xd7;" horiz-adv-x="1049" d="M155 417l323 283l-243 283l160 141l244 -283l322 283l123 -141l-323 -283l243 -283l-162 -141l-243 283l-323 -283z" />
<glyph unicode="&#xd8;" horiz-adv-x="1100" d="M72 -200l168 302q-76 98 -76 278q0 35 3 72t8 78l46 330q80 560 529 560q121 0 202 -40l123 220h150l-170 -304q78 -101 78 -282q0 -72 -12 -154l-46 -330q-78 -550 -528 -550q-121 0 -203 39l-122 -219h-150zM367 423q0 -47 7 -82l471 846q-48 33 -123 33 q-250 0 -301 -360l-46 -330q-4 -29 -6 -55.5t-2 -51.5zM451 212q49 -32 124 -32q250 0 300 350l46 330q4 30 6 57.5t2 53.5q0 23 -1.5 44.5t-5.5 40.5z" />
<glyph unicode="&#xd9;" horiz-adv-x="1100" d="M163 381q0 35 3 72t8 77l123 870h200l-123 -870q-4 -29 -6 -55t-2 -50q0 -245 209 -245q249 0 299 350l123 870h200l-123 -870q-76 -550 -527 -550q-384 0 -384 401zM583 1800h230l72 -200h-160z" />
<glyph unicode="&#xda;" horiz-adv-x="1100" d="M163 381q0 35 3 72t8 77l123 870h200l-123 -870q-4 -29 -6 -55t-2 -50q0 -245 209 -245q249 0 299 350l123 870h200l-123 -870q-76 -550 -527 -550q-384 0 -384 401zM665 1600l128 200h230l-198 -200h-160z" />
<glyph unicode="&#xdb;" horiz-adv-x="1100" d="M163 381q0 35 3 72t8 77l123 870h200l-123 -870q-4 -29 -6 -55t-2 -50q0 -245 209 -245q249 0 299 350l123 870h200l-123 -870q-76 -550 -527 -550q-384 0 -384 401zM525 1600l158 200h240l102 -200h-180l-55 110l-85 -110h-180z" />
<glyph unicode="&#xdc;" horiz-adv-x="1100" d="M163 381q0 35 3 72t8 77l123 870h200l-123 -870q-4 -29 -6 -55t-2 -50q0 -245 209 -245q249 0 299 350l123 870h200l-123 -870q-76 -550 -527 -550q-384 0 -384 401zM475 1600l28 200h200l-28 -200h-200zM875 1600l28 200h200l-28 -200h-200z" />
<glyph unicode="&#xdd;" d="M197 1400h200l217 -590l383 590h200l-512 -800l-85 -600h-200l85 600zM615 1600l128 200h230l-198 -200h-160z" />
<glyph unicode="&#xde;" horiz-adv-x="1100" d="M100 0l197 1400h200l-42 -300h300q350 0 350 -306q0 -22 -1.5 -45.5t-5.5 -48.5q-55 -400 -456 -400h-300l-42 -300h-200zM370 500h300q199 0 228 200q3 25 3 46q0 154 -175 154h-300z" />
<glyph unicode="&#xdf;" horiz-adv-x="1100" d="M100 0l134 950q63 450 513 450q400 0 400 -316q0 -41 -6 -84q-32 -216 -230 -298q169 -70 169 -244q0 -14 -1 -28.5t-3 -29.5q-55 -400 -576 -400l28 200q319 0 348 200q1 8 1.5 15.5t0.5 15.5q0 169 -294 169l28 200q300 0 329 200q3 19 3 38q0 162 -225 162 q-251 0 -285 -250l-134 -950h-200z" />
<glyph unicode="&#xe0;" d="M135 219q0 14 1 29.5t3 31.5q42 300 442 300h200l3 20q2 15 3 28.5t1 26.5q0 165 -173 165q-151 0 -264 -100l-110 140q202 160 402 160q349 0 349 -319q0 -23 -2 -48.5t-6 -52.5l-56 -400q-2 -14 -3 -28t-1 -28q0 -71 26 -144h-200q-24 66 -27 132q-93 -152 -276 -152 q-312 0 -312 239zM339 262q0 -102 133 -102q220 0 274 170l11 80h-200q-200 0 -216 -120q-1 -8 -1.5 -14.5t-0.5 -13.5zM502 1400h230l71 -200h-160z" />
<glyph unicode="&#xe1;" d="M135 219q0 14 1 29.5t3 31.5q42 300 442 300h200l3 20q2 15 3 28.5t1 26.5q0 165 -173 165q-151 0 -264 -100l-110 140q202 160 402 160q349 0 349 -319q0 -23 -2 -48.5t-6 -52.5l-56 -400q-2 -14 -3 -28t-1 -28q0 -71 26 -144h-200q-24 66 -27 132q-93 -152 -276 -152 q-312 0 -312 239zM339 262q0 -102 133 -102q220 0 274 170l11 80h-200q-200 0 -216 -120q-1 -8 -1.5 -14.5t-0.5 -13.5zM583 1200l129 200h230l-199 -200h-160z" />
<glyph unicode="&#xe2;" d="M135 219q0 14 1 29.5t3 31.5q42 300 442 300h200l3 20q2 15 3 28.5t1 26.5q0 165 -173 165q-151 0 -264 -100l-110 140q202 160 402 160q349 0 349 -319q0 -23 -2 -48.5t-6 -52.5l-56 -400q-2 -14 -3 -28t-1 -28q0 -71 26 -144h-200q-24 66 -27 132q-93 -152 -276 -152 q-312 0 -312 239zM339 262q0 -102 133 -102q220 0 274 170l11 80h-200q-200 0 -216 -120q-1 -8 -1.5 -14.5t-0.5 -13.5zM443 1200l159 200h240l101 -200h-180l-54 110l-86 -110h-180z" />
<glyph unicode="&#xe3;" d="M135 219q0 14 1 29.5t3 31.5q42 300 442 300h200l3 20q2 15 3 28.5t1 26.5q0 165 -173 165q-151 0 -264 -100l-110 140q202 160 402 160q349 0 349 -319q0 -23 -2 -48.5t-6 -52.5l-56 -400q-2 -14 -3 -28t-1 -28q0 -71 26 -144h-200q-24 66 -27 132q-93 -152 -276 -152 q-312 0 -312 239zM339 262q0 -102 133 -102q220 0 274 170l11 80h-200q-200 0 -216 -120q-1 -8 -1.5 -14.5t-0.5 -13.5zM357 1152l21 149q79 99 189 99q90 0 154 -40q64 -39 147 -39q96 0 184 79l-21 -149q-80 -99 -189 -99q-89 0 -155 39q-64 40 -147 40q-97 0 -183 -79z " />
<glyph unicode="&#xe4;" d="M135 219q0 14 1 29.5t3 31.5q42 300 442 300h200l3 20q2 15 3 28.5t1 26.5q0 165 -173 165q-151 0 -264 -100l-110 140q202 160 402 160q349 0 349 -319q0 -23 -2 -48.5t-6 -52.5l-56 -400q-2 -14 -3 -28t-1 -28q0 -71 26 -144h-200q-24 66 -27 132q-93 -152 -276 -152 q-312 0 -312 239zM339 262q0 -102 133 -102q220 0 274 170l11 80h-200q-200 0 -216 -120q-1 -8 -1.5 -14.5t-0.5 -13.5zM393 1200l29 200h200l-29 -200h-200zM793 1200l29 200h200l-29 -200h-200z" />
<glyph unicode="&#xe5;" d="M135 219q0 14 1 29.5t3 31.5q42 300 442 300h200l3 20q2 15 3 28.5t1 26.5q0 165 -173 165q-151 0 -264 -100l-110 140q202 160 402 160q349 0 349 -319q0 -23 -2 -48.5t-6 -52.5l-56 -400q-2 -14 -3 -28t-1 -28q0 -71 26 -144h-200q-24 66 -27 132q-93 -152 -276 -152 q-312 0 -312 239zM339 262q0 -102 133 -102q220 0 274 170l11 80h-200q-200 0 -216 -120q-1 -8 -1.5 -14.5t-0.5 -13.5zM506 1269q0 8 0.5 15.5t1.5 15.5q10 82 78 141t150 59q84 0 133 -58q41 -49 41 -113q0 -7 -0.5 -14t-1.5 -15q-12 -84 -79 -142t-150 -58t-133 59 q-40 46 -40 110zM628 1287q0 -26 16 -43q20 -23 52 -23q33 0 60 23t32 56q1 3 1 11q0 26 -17 46q-20 23 -53 23t-59.5 -23.5t-30.5 -56.5q-1 -5 -1 -13z" />
<glyph unicode="&#xe6;" horiz-adv-x="1600" d="M135 219q0 14 1 29.5t3 31.5q42 300 442 300h200q1 2 1.5 7t2.5 13h-1q2 15 3 28.5t1 26.5q0 165 -173 165q-151 0 -264 -100l-110 140q202 160 402 160q199 0 275 -169q126 169 335 169q336 0 336 -333q0 -54 -9 -117l-21 -150h-600q-3 -24 -3 -46q0 -194 199 -194 q169 0 237 120l132 -120q-104 -200 -397 -200q-287 0 -354 204q-110 -204 -326 -204q-312 0 -312 239zM339 262q0 -102 133 -102q201 0 281 146v28q0 20 1 39.5t3 36.5h-200q-200 0 -216 -120q-1 -8 -1.5 -14.5t-0.5 -13.5zM981 580h400q2 17 3 32.5t1 29.5q0 178 -160 178 q-202 0 -244 -240z" />
<glyph unicode="&#xe7;" horiz-adv-x="999" d="M155 338q0 26 2 54t6 58l14 100q71 470 496 470q294 0 341 -200l-166 -120q-33 120 -203 120q-226 0 -268 -270l-13 -90q-6 -41 -6 -75q0 -205 197 -205q169 0 237 120l132 -120q-104 -200 -397 -200q-372 0 -372 358zM278 -400l198 200h160l-128 -200h-230z" />
<glyph unicode="&#xe8;" d="M153 328q0 24 1.5 49.5t5.5 52.5l20 140q67 450 473 450q336 0 336 -333q0 -54 -9 -117l-21 -150h-600q-3 -24 -3 -46q0 -194 199 -194q169 0 237 120l132 -120q-104 -200 -397 -200q-374 0 -374 348zM381 580h400q2 17 3 32.5t1 29.5q0 178 -160 178q-202 0 -244 -240z M477 1400h230l71 -200h-160z" />
<glyph unicode="&#xe9;" d="M153 328q0 24 1.5 49.5t5.5 52.5l20 140q67 450 473 450q336 0 336 -333q0 -54 -9 -117l-21 -150h-600q-3 -24 -3 -46q0 -194 199 -194q169 0 237 120l132 -120q-104 -200 -397 -200q-374 0 -374 348zM381 580h400q2 17 3 32.5t1 29.5q0 178 -160 178q-202 0 -244 -240z M558 1200l129 200h230l-199 -200h-160z" />
<glyph unicode="&#xea;" d="M153 328q0 24 1.5 49.5t5.5 52.5l20 140q67 450 473 450q336 0 336 -333q0 -54 -9 -117l-21 -150h-600q-3 -24 -3 -46q0 -194 199 -194q169 0 237 120l132 -120q-104 -200 -397 -200q-374 0 -374 348zM381 580h400q2 17 3 32.5t1 29.5q0 178 -160 178q-202 0 -244 -240z M418 1200l159 200h240l101 -200h-180l-54 110l-86 -110h-180z" />
<glyph unicode="&#xeb;" d="M153 328q0 24 1.5 49.5t5.5 52.5l20 140q67 450 473 450q336 0 336 -333q0 -54 -9 -117l-21 -150h-600q-3 -24 -3 -46q0 -194 199 -194q169 0 237 120l132 -120q-104 -200 -397 -200q-374 0 -374 348zM368 1200l29 200h200l-29 -200h-200zM381 580h400q2 17 3 32.5 t1 29.5q0 178 -160 178q-202 0 -244 -240zM768 1200l29 200h200l-29 -200h-200z" />
<glyph unicode="&#xec;" horiz-adv-x="600" d="M200 0l141 1000h200l-141 -1000h-200zM277 1400h230l72 -200h-160z" />
<glyph unicode="&#xed;" horiz-adv-x="600" d="M200 0l141 1000h200l-141 -1000h-200zM359 1200l128 200h230l-198 -200h-160z" />
<glyph unicode="&#xee;" horiz-adv-x="600" d="M200 0l141 1000h200l-141 -1000h-200zM219 1200l158 200h240l102 -200h-180l-55 110l-85 -110h-180z" />
<glyph unicode="&#xef;" horiz-adv-x="600" d="M169 1200l28 200h200l-28 -200h-200zM200 0l141 1000h200l-141 -1000h-200zM569 1200l28 200h200l-28 -200h-200z" />
<glyph unicode="&#xf0;" horiz-adv-x="1030" d="M154 329q0 56 9 121l14 100q64 450 434 450q160 0 238 -150l38 270h-210l23 160h210l17 120h200l-17 -120h190l-23 -160h-190l-157 -1120h-200l21 150q-122 -150 -281 -150q-316 0 -316 329zM357 372q0 -172 141 -172q161 0 274 100l56 400q-85 100 -246 100 q-171 0 -205 -250l-14 -100q-6 -44 -6 -78z" />
<glyph unicode="&#xf1;" horiz-adv-x="1030" d="M100 0l141 1000h200l-22 -150q121 150 282 150q315 0 315 -327q0 -57 -9 -123l-77 -550h-200l77 550q6 43 6 78q0 172 -141 172q-161 0 -274 -100l-98 -700h-200zM347 1152l21 149q79 99 189 99q90 0 154 -40q66 -39 148 -39q97 0 183 79l-21 -149q-80 -99 -189 -99 q-89 0 -155 39q-64 40 -147 40q-97 0 -183 -79z" />
<glyph unicode="&#xf2;" horiz-adv-x="1060" d="M155 338q0 26 2 54t6 58l14 100q71 470 496 470q372 0 372 -359q0 -26 -2 -54t-6 -57l-14 -100q-71 -470 -496 -470q-372 0 -372 358zM358 385q0 -205 197 -205q230 0 269 280l12 80q6 40 6 75q0 205 -197 205q-230 0 -269 -280l-12 -80q-6 -41 -6 -75zM507 1400h230 l71 -200h-160z" />
<glyph unicode="&#xf3;" horiz-adv-x="1060" d="M155 338q0 26 2 54t6 58l14 100q71 470 496 470q372 0 372 -359q0 -26 -2 -54t-6 -57l-14 -100q-71 -470 -496 -470q-372 0 -372 358zM358 385q0 -205 197 -205q230 0 269 280l12 80q6 40 6 75q0 205 -197 205q-230 0 -269 -280l-12 -80q-6 -41 -6 -75zM588 1200l129 200 h230l-199 -200h-160z" />
<glyph unicode="&#xf4;" horiz-adv-x="1060" d="M155 338q0 26 2 54t6 58l14 100q71 470 496 470q372 0 372 -359q0 -26 -2 -54t-6 -57l-14 -100q-71 -470 -496 -470q-372 0 -372 358zM358 385q0 -205 197 -205q230 0 269 280l12 80q6 40 6 75q0 205 -197 205q-230 0 -269 -280l-12 -80q-6 -41 -6 -75zM448 1200l159 200 h240l101 -200h-180l-54 110l-86 -110h-180z" />
<glyph unicode="&#xf5;" horiz-adv-x="1060" d="M155 338q0 26 2 54t6 58l14 100q71 470 496 470q372 0 372 -359q0 -26 -2 -54t-6 -57l-14 -100q-71 -470 -496 -470q-372 0 -372 358zM358 385q0 -205 197 -205q230 0 269 280l12 80q6 40 6 75q0 205 -197 205q-230 0 -269 -280l-12 -80q-6 -41 -6 -75zM362 1152l21 149 q79 99 189 99q90 0 154 -40q64 -39 147 -39q96 0 184 79l-21 -149q-80 -99 -189 -99q-89 0 -155 39q-64 40 -147 40q-97 0 -183 -79z" />
<glyph unicode="&#xf6;" horiz-adv-x="1060" d="M155 338q0 26 2 54t6 58l14 100q71 470 496 470q372 0 372 -359q0 -26 -2 -54t-6 -57l-14 -100q-71 -470 -496 -470q-372 0 -372 358zM358 385q0 -205 197 -205q230 0 269 280l12 80q6 40 6 75q0 205 -197 205q-230 0 -269 -280l-12 -80q-6 -41 -6 -75zM398 1200l29 200 h200l-29 -200h-200zM798 1200l29 200h200l-29 -200h-200z" />
<glyph unicode="&#xf7;" horiz-adv-x="1200" d="M184 600l28 200h1000l-28 -200h-1000zM528 200l28 200h200l-28 -200h-200zM640 1000l28 200h200l-28 -200h-200z" />
<glyph unicode="&#xf8;" horiz-adv-x="1060" d="M44 -400l244 438q-132 85 -132 300q0 57 9 122l13 90q71 470 496 470q87 0 151 -19l222 399h150l-257 -460q105 -89 105 -282q0 -25 -1.5 -52t-5.5 -56l-15 -100q-71 -470 -496 -470q-32 0 -61 3t-55 8l-217 -391h-150zM359 384q0 -94 41 -144l318 571q-32 9 -73 9 q-227 0 -267 -270l-13 -90q-6 -41 -6 -76zM518 182q9 -1 18.5 -1.5t19.5 -0.5q230 0 269 280l11 80q6 40 6 76q0 66 -21 110z" />
<glyph unicode="&#xf9;" horiz-adv-x="1030" d="M154 329q0 56 9 121l78 550h200l-78 -550q-6 -44 -6 -78q0 -172 141 -172q161 0 274 100l99 700h200l-141 -1000h-200l21 150q-122 -150 -281 -150q-316 0 -316 329zM492 1400h230l72 -200h-160z" />
<glyph unicode="&#xfa;" horiz-adv-x="1030" d="M154 329q0 56 9 121l78 550h200l-78 -550q-6 -44 -6 -78q0 -172 141 -172q161 0 274 100l99 700h200l-141 -1000h-200l21 150q-122 -150 -281 -150q-316 0 -316 329zM574 1200l128 200h230l-198 -200h-160z" />
<glyph unicode="&#xfb;" horiz-adv-x="1030" d="M154 329q0 56 9 121l78 550h200l-78 -550q-6 -44 -6 -78q0 -172 141 -172q161 0 274 100l99 700h200l-141 -1000h-200l21 150q-122 -150 -281 -150q-316 0 -316 329zM434 1200l158 200h240l102 -200h-180l-55 110l-85 -110h-180z" />
<glyph unicode="&#xfc;" horiz-adv-x="1030" d="M154 329q0 56 9 121l78 550h200l-78 -550q-6 -44 -6 -78q0 -172 141 -172q161 0 274 100l99 700h200l-141 -1000h-200l21 150q-122 -150 -281 -150q-316 0 -316 329zM384 1200l28 200h200l-28 -200h-200zM784 1200l28 200h200l-28 -200h-200z" />
<glyph unicode="&#xfd;" horiz-adv-x="900" d="M-5 -390l49 196q37 -6 78 -6q130 0 185 100l47 100h-4l-210 1000h210l138 -718l342 718h210l-539 -1100q-137 -300 -407 -300q-52 0 -99 10zM508 1200l129 200h230l-199 -200h-160z" />
<glyph unicode="&#xfe;" horiz-adv-x="1030" d="M44 -400l253 1800h200l-77 -550q121 150 281 150q316 0 316 -329q0 -57 -9 -121l-15 -100q-63 -450 -433 -450q-160 0 -239 150l-77 -550h-200zM342 300q85 -100 246 -100q171 0 205 250l15 100q6 43 6 78q0 172 -141 172q-161 0 -274 -100z" />
<glyph unicode="&#xff;" horiz-adv-x="900" d="M-5 -390l49 196q37 -6 78 -6q130 0 185 100l47 100h-4l-210 1000h210l138 -718l342 718h210l-539 -1100q-137 -300 -407 -300q-52 0 -99 10zM318 1200l29 200h200l-29 -200h-200zM718 1200l29 200h200l-29 -200h-200z" />
<glyph unicode="&#x152;" horiz-adv-x="1652" d="M163 381q0 35 3 72t8 77l47 330q78 560 528 560q177 0 233 -126l15 106h750l-29 -200h-550l-56 -400h500l-28 -200h-500l-56 -400h550l-28 -200h-750l14 102q-90 -122 -267 -122q-384 0 -384 401zM366 425q0 -245 209 -245q242 0 283 237l79 556q3 25 3 48 q0 199 -219 199q-251 0 -300 -360l-47 -330q-4 -29 -6 -55t-2 -50z" />
<glyph unicode="&#x153;" horiz-adv-x="1700" d="M155 338q0 26 2 54t6 58l14 100q71 470 496 470q270 0 313 -241q106 241 367 241q336 0 336 -333q0 -54 -9 -117l-21 -150h-600q-3 -24 -3 -46q0 -194 199 -194q169 0 237 120l132 -120q-104 -200 -397 -200q-278 0 -318 243q-113 -243 -382 -243q-372 0 -372 358z M359 384q0 -204 196 -204q226 0 268 270l14 100q2 17 3 33.5t1 32.5q0 204 -196 204q-226 0 -268 -270l-14 -100q-2 -17 -3 -33.5t-1 -32.5zM1081 580h400q2 17 3 32.5t1 29.5q0 178 -160 178q-202 0 -244 -240z" />
<glyph unicode="&#x178;" d="M197 1400h200l217 -590l383 590h200l-512 -800l-85 -600h-200l85 600zM425 1600l28 200h200l-28 -200h-200zM825 1600l28 200h200l-28 -200h-200z" />
<glyph unicode="&#x2c6;" horiz-adv-x="700" d="M269 1200l158 200h240l102 -200h-180l-55 110l-85 -110h-180z" />
<glyph unicode="&#x2dc;" horiz-adv-x="860" d="M262 1152l21 149q79 99 189 99q90 0 154 -40q66 -39 148 -39q97 0 183 79l-21 -149q-80 -99 -189 -99q-89 0 -155 39q-64 40 -147 40q-97 0 -183 -79z" />
<glyph unicode="&#x2000;" horiz-adv-x="950" />
<glyph unicode="&#x2001;" horiz-adv-x="1900" />
<glyph unicode="&#x2002;" horiz-adv-x="950" />
<glyph unicode="&#x2003;" horiz-adv-x="1900" />
<glyph unicode="&#x2004;" horiz-adv-x="633" />
<glyph unicode="&#x2005;" horiz-adv-x="475" />
<glyph unicode="&#x2006;" horiz-adv-x="316" />
<glyph unicode="&#x2007;" horiz-adv-x="316" />
<glyph unicode="&#x2008;" horiz-adv-x="237" />
<glyph unicode="&#x2009;" horiz-adv-x="380" />
<glyph unicode="&#x200a;" horiz-adv-x="105" />
<glyph unicode="&#x2010;" horiz-adv-x="800" d="M184 600l28 200h600l-28 -200h-600z" />
<glyph unicode="&#x2011;" horiz-adv-x="800" d="M184 600l28 200h600l-28 -200h-600z" />
<glyph unicode="&#x2012;" horiz-adv-x="800" d="M184 600l28 200h600l-28 -200h-600z" />
<glyph unicode="&#x2013;" horiz-adv-x="800" d="M184 600l28 200h600l-28 -200h-600z" />
<glyph unicode="&#x2014;" horiz-adv-x="1200" d="M184 600l28 200h1000l-28 -200h-1000z" />
<glyph unicode="&#x2018;" horiz-adv-x="600" d="M334 950l28 200q34 250 235 250l-14 -100q-70 0 -91 -150h70l-28 -200h-200z" />
<glyph unicode="&#x2019;" horiz-adv-x="600" d="M334 950l14 100q70 0 91 150h-70l28 200h200l-28 -200q-34 -250 -235 -250z" />
<glyph unicode="&#x201a;" horiz-adv-x="600" d="M165 -250l14 100q70 0 91 150h-70l28 200h200l-28 -200q-34 -250 -235 -250z" />
<glyph unicode="&#x201c;" horiz-adv-x="900" d="M334 950l28 200q34 250 235 250l-14 -100q-70 0 -91 -150h70l-28 -200h-200zM634 950l28 200q34 250 235 250l-14 -100q-70 0 -91 -150h70l-28 -200h-200z" />
<glyph unicode="&#x201d;" horiz-adv-x="900" d="M334 950l14 100q70 0 91 150h-70l28 200h200l-28 -200q-34 -250 -235 -250zM634 950l14 100q70 0 91 150h-70l28 200h200l-28 -200q-34 -250 -235 -250z" />
<glyph unicode="&#x201e;" horiz-adv-x="900" d="M165 -250l14 100q70 0 91 150h-70l28 200h200l-28 -200q-34 -250 -235 -250zM465 -250l14 100q70 0 91 150h-70l28 200h200l-28 -200q-34 -250 -235 -250z" />
<glyph unicode="&#x2022;" horiz-adv-x="700" d="M277 550l42 300h300l-42 -300h-300z" />
<glyph unicode="&#x2026;" horiz-adv-x="1800" d="M200 0l28 200h200l-28 -200h-200zM800 0l28 200h200l-28 -200h-200zM1400 0l28 200h200l-28 -200h-200z" />
<glyph unicode="&#x202f;" horiz-adv-x="380" />
<glyph unicode="&#x2039;" horiz-adv-x="700" d="M198 700l356 400h200l-306 -400l194 -400h-200z" />
<glyph unicode="&#x203a;" horiz-adv-x="700" d="M142 300l306 400l-194 400h200l244 -400l-356 -400h-200z" />
<glyph unicode="&#x205f;" horiz-adv-x="475" />
<glyph unicode="&#x20ac;" horiz-adv-x="1299" d="M162 440l22 160h200l29 200h-200l22 160h204q103 460 511 460q393 0 393 -350q0 -13 -0.5 -25.5t-1.5 -26.5l-203 -38q2 14 3 27.5t1 26.5q0 186 -220 186q-213 0 -282 -260h395l-52 -160h-370l-29 -200h333l-52 -160h-298v-18q0 -242 208 -242q250 0 283 230l195 -30 q-82 -400 -506 -400q-384 0 -384 400q0 14 0.5 29t1.5 31h-203z" />
<glyph unicode="&#x2122;" horiz-adv-x="1300" d="M278 1270l18 130h450l-18 -130h-170l-66 -470h-130l66 470h-150zM752 800l84 600h200l23 -410l137 410h200l-84 -600h-130l56 400l-136 -400h-140l-24 400l-56 -400h-130z" />
<glyph unicode="&#xe000;" d="M0 0v1000h1000v-1000h-1000z" />
</font>
</defs>
</svg>
