<?xml version="1.0" standalone="no"?>
<!DOCTYPE svg PUBLIC "-//W3C//DTD SVG 1.1//EN" "http://www.w3.org/Graphics/SVG/1.1/DTD/svg11.dtd" >
<svg xmlns="http://www.w3.org/2000/svg">
<metadata></metadata>
<defs>
<font id="freeroadregular" horiz-adv-x="1000" >
<font-face units-per-em="2048" ascent="1638" descent="-410" />
<missing-glyph horiz-adv-x="600" />
<glyph horiz-adv-x="2048" />
<glyph horiz-adv-x="2048" />
<glyph unicode="&#xd;" horiz-adv-x="2048" />
<glyph unicode=" "  horiz-adv-x="600" />
<glyph unicode="&#x09;" horiz-adv-x="600" />
<glyph unicode="&#xa0;" horiz-adv-x="600" />
<glyph unicode="!" horiz-adv-x="600" d="M200 0v200h200v-200h-200zM200 1000v400h200v-400l-20 -600h-160z" />
<glyph unicode="&#x22;" horiz-adv-x="900" d="M200 1200v200h200v-200l-20 -200h-160zM500 1200v200h200v-200l-20 -200h-160z" />
<glyph unicode="#" horiz-adv-x="1400" d="M100 300v200h207l86 400h-193v200h236l64 300h200l-64 -300h300l64 300h200l-64 -300h164v-200h-207l-86 -400h193v-200h-236l-64 -300h-200l64 300h-300l-64 -300h-200l64 300h-164zM507 500h300l86 400h-300z" />
<glyph unicode="$" horiz-adv-x="1098" d="M100 380l198 20q0 -185 176 -215v443q-5 2 -10.5 3.5t-10.5 3.5q-345 115 -345 395q0 355 366 387v183h150v-184q346 -35 362 -391l-198 -25q0 181 -164 213v-438q7 -2 14 -5t15 -5q345 -116 345 -395q0 -355 -374 -387v-183h-150v183q-361 33 -374 397zM308 1030 q0 -104 166 -192v376q-166 -25 -166 -184zM624 185q174 25 174 185q0 106 -174 195v-380z" />
<glyph unicode="%" horiz-adv-x="1600" d="M100 990v90q5 320 300 320t300 -320v-90q0 -330 -300 -330t-300 330zM280 990q0 -170 120 -170q116 0 120 160v90q0 170 -120 170q-117 0 -120 -160v-90zM350 0l710 1400h190l-710 -1400h-190zM900 330v80q0 330 300 330t300 -330v-90q-5 -320 -300 -320q-300 0 -300 330 zM1080 321q3 -161 120 -161t120 161v89q0 170 -120 170q-117 0 -120 -160v-99z" />
<glyph unicode="&#x26;" horiz-adv-x="1350" d="M100 400q0 263 272 373q-72 151 -72 277q0 350 350 350t350 -350q0 -251 -349 -375q90 -126 231 -269q81 99 148 244l170 -50q-80 -192 -182 -324q53 -48 110.5 -98t121.5 -102l-139 -139q-122 103 -225 201q-170 -138 -386 -138q-400 0 -400 400zM300 400 q0 -200 200 -200q133 0 245 76q-165 171 -270 323q-175 -93 -175 -199zM500 1050q0 -99 55 -216q245 90 245 216q0 150 -150 150t-150 -150z" />
<glyph unicode="'" horiz-adv-x="600" d="M200 1200v200h200v-200l-20 -200h-160z" />
<glyph unicode="(" horiz-adv-x="650" d="M100 700q0 600 300 900h150q-250 -299 -250 -900t250 -900h-150q-300 300 -300 900z" />
<glyph unicode=")" horiz-adv-x="650" d="M100 -200q250 299 250 900t-250 900h150q300 -300 300 -900t-300 -900h-150z" />
<glyph unicode="*" horiz-adv-x="800" d="M100 1080l30 160l195 -40l-10 200l175 -1l-10 -200l190 41l30 -160l-170 -20l110 -160l-140 -90l-100 180l-100 -180l-140 90l120 160z" />
<glyph unicode="+" horiz-adv-x="1200" d="M100 600v200h400v400h200v-400h400v-200h-400v-400h-200v400h-400z" />
<glyph unicode="," horiz-adv-x="600" d="M200 0v200h200v-200q0 -250 -200 -250v100q70 0 70 150h-70z" />
<glyph unicode="-" horiz-adv-x="800" d="M100 600v200h600v-200h-600z" />
<glyph unicode="." horiz-adv-x="600" d="M200 0v200h200v-200h-200z" />
<glyph unicode="/" horiz-adv-x="700" d="M0 -200l510 1800h190l-510 -1800h-190z" />
<glyph unicode="0" d="M100 480v458q0 482 400 482t400 -482v-458q0 -500 -400 -500t-400 500zM300 480q0 -300 200 -300t200 300v458q0 282 -200 282t-200 -282v-458z" />
<glyph unicode="1" horiz-adv-x="850" d="M200 1000v200q100 0 250 200h200v-1400h-200v1150q-120 -150 -250 -150z" />
<glyph unicode="2" d="M100 0v150q30 250 315 475t285 395q-2 200 -201 200q-200 0 -200 -240l-198 38q27 402 398 402q400 0 401 -400q0 -270 -280 -480q-279 -209 -290 -340h570v-200h-800z" />
<glyph unicode="3" horiz-adv-x="1050" d="M100 380l199 30q0 -230 220 -230q229 0 231 200q0 220 -270 220v200q250 0 250 220q-2 200 -211 200q-200 0 -200 -240l-198 38q27 402 398 402q410 0 411 -400q0 -237 -195 -318q215 -80 215 -322q-1 -400 -431 -400q-394 0 -419 400z" />
<glyph unicode="4" horiz-adv-x="1050" d="M100 400v200l520 800h230v-800h100v-200h-100v-400h-200v400h-550zM330 600h320v500z" />
<glyph unicode="5" horiz-adv-x="1050" d="M100 380l199 30q0 -230 220 -230q229 0 231 270v50q0 250 -200 250q-190 0 -240 -170l-190 50l50 770h730v-200h-530l-30 -350q60 100 210 100q400 0 400 -450v-50q-2 -470 -431 -470q-394 0 -419 400z" />
<glyph unicode="6" horiz-adv-x="1050" d="M100 480v430q0 510 430 510q391 0 418 -402l-198 -38q0 240 -220 240q-230 0 -230 -310v-120q107 110 260 110q385 0 390 -440q-6 -480 -420 -480q-430 0 -430 500zM300 480q0 -300 230 -300q215 0 220 270q0 250 -190 250q-141 0 -260 -100v-120z" />
<glyph unicode="7" horiz-adv-x="1050" d="M100 1000v400h850v-200l-470 -1280l-180 80l440 1200h-440v-200h-200z" />
<glyph unicode="8" horiz-adv-x="1050" d="M100 400q0 222 169 303q-149 83 -149 297q0 400 400 400q410 0 410 -400q0 -215 -153 -297q173 -81 173 -303q0 -400 -430 -400q-420 0 -420 400zM300 400q0 -200 220 -200q230 0 230 200q0 220 -230 220q-220 0 -220 -220zM320 1000q0 -220 200 -220q210 0 210 220 q0 200 -210 200q-200 0 -200 -200z" />
<glyph unicode="9" horiz-adv-x="1050" d="M100 950q11 470 420 470q430 0 430 -520v-410q0 -510 -430 -510q-391 0 -418 402l198 38q0 -240 220 -240q230 0 230 310v119q-108 -109 -260 -109q-390 0 -390 450zM300 950q0 -250 190 -250q141 0 260 100v100q0 320 -230 320q-216 0 -220 -270z" />
<glyph unicode=":" horiz-adv-x="600" d="M200 0v200h200v-200h-200zM200 800v200h200v-200h-200z" />
<glyph unicode=";" horiz-adv-x="600" d="M200 0v200h200v-200q0 -250 -200 -250v100q70 0 70 150h-70zM200 800v200h200v-200h-200z" />
<glyph unicode="&#x3c;" d="M100 600v200l800 350v-210l-550 -240l550 -240v-210z" />
<glyph unicode="=" d="M100 400v200h800v-200h-800zM100 800v200h800v-200h-800z" />
<glyph unicode="&#x3e;" d="M100 250v210l550 240l-550 240v210l800 -350v-200z" />
<glyph unicode="?" horiz-adv-x="1099" d="M101 1018q27 402 448 402q450 0 450 -420q0 -250 -200 -370q-199 -120 -210 -230h-180q0 200 195 325q195 124 195 275q0 220 -250 220t-250 -240zM399 0v200h200v-200h-200z" />
<glyph unicode="@" horiz-adv-x="1400" d="M100 350v650q0 400 400 400h400q400 0 400 -400v-1000h-200v150q-101 -150 -260 -150q-370 0 -370 450v100q0 450 370 450q159 0 260 -150v150q0 200 -200 200h-400q-200 0 -200 -200v-650q0 -130 85 -176l-94 -186q-191 86 -191 362zM670 450q0 -250 170 -250 q160 0 260 100v400q-100 100 -260 100q-170 0 -170 -250v-100z" />
<glyph unicode="A" d="M0 0l400 1400h200l400 -1400h-200l-81 300h-439l-80 -300h-200zM334 500h332l-166 620z" />
<glyph unicode="B" horiz-adv-x="1100" d="M100 0v1400h480q400 0 400 -400q0 -211 -146 -295q166 -79 166 -305q0 -400 -400 -400h-500zM300 200h300q200 0 200 200t-200 200h-300v-400zM300 800h280q200 0 200 200t-200 200h-280v-400z" />
<glyph unicode="C" horiz-adv-x="1099" d="M100 530v330q0 560 450 560q421 0 448 -402l-198 -38q0 240 -250 240t-250 -360v-330q0 -350 250 -350t250 230l199 -30q-25 -400 -449 -400q-450 0 -450 550z" />
<glyph unicode="D" horiz-adv-x="1100" d="M100 0v1400h450q450 0 450 -560v-290q0 -550 -450 -550h-450zM300 200h250q250 0 250 350v290q0 360 -250 360h-250v-1000z" />
<glyph unicode="E" d="M100 0v1400h800v-200h-600v-400h550v-200h-550v-400h600v-200h-800z" />
<glyph unicode="F" d="M100 0v1400h800v-200h-600v-400h550v-200h-550v-600h-200z" />
<glyph unicode="G" horiz-adv-x="1100" d="M100 530v330q0 560 450 560q421 0 448 -402l-198 -38q0 240 -250 240t-250 -360v-330q0 -350 250 -350q201 0 250 100v320h-200v200h400v-620q-150 -200 -450 -200q-450 0 -450 550z" />
<glyph unicode="H" horiz-adv-x="1100" d="M100 0v1400h200v-600h500v600h200v-1400h-200v600h-500v-600h-200z" />
<glyph unicode="I" horiz-adv-x="600" d="M200 0v1400h200v-1400h-200z" />
<glyph unicode="J" horiz-adv-x="1001" d="M100 380l199 30q0 -230 200 -230q201 0 202 250v970h200v-970q-2 -450 -402 -450q-375 0 -399 400z" />
<glyph unicode="K" d="M100 0v1400h200v-620l470 620h230l-454 -584l454 -816h-230l-350 655l-120 -155v-500h-200z" />
<glyph unicode="L" d="M100 0v1400h200v-1200h600v-200h-800z" />
<glyph unicode="M" horiz-adv-x="1400" d="M100 0v1400h300l300 -820l300 820h300v-1400h-200v1125l-300 -825h-200l-300 825v-1125h-200z" />
<glyph unicode="N" horiz-adv-x="1100" d="M100 0v1400h200l500 -1000v1000h200v-1400h-200l-500 1000v-1000h-200z" />
<glyph unicode="O" horiz-adv-x="1100" d="M100 530v330q0 560 450 560t450 -560v-330q0 -550 -450 -550t-450 550zM300 530q0 -350 250 -350t250 350v330q0 360 -250 360t-250 -360v-330z" />
<glyph unicode="P" horiz-adv-x="1100" d="M100 0v1400h500q400 0 400 -400t-400 -400h-300v-600h-200zM300 800h300q200 0 200 200t-200 200h-300v-400z" />
<glyph unicode="Q" horiz-adv-x="1100" d="M100 530v330q0 560 450 560t450 -560v-330q0 -354 -186 -480q101 -70 186 -70l-50 -200q-101 0 -225 100t-225 100v2q-400 28 -400 548zM300 530q0 -350 250 -350t250 350v330q0 360 -250 360t-250 -360v-330z" />
<glyph unicode="R" horiz-adv-x="1100" d="M100 0v1400h500q400 0 400 -400q-11 -330 -282 -390l382 -610h-250l-350 600h-200v-600h-200zM300 800h300q200 0 200 200t-200 200h-300v-400z" />
<glyph unicode="S" horiz-adv-x="1098" d="M100 380l198 20q0 -220 250 -220t250 190q0 149 -345 265q-345 115 -345 395q0 390 440 390q420 0 438 -395l-198 -25q0 220 -240 220t-240 -190q0 -150 345 -265q345 -116 345 -395q0 -390 -450 -390q-432 0 -448 400z" />
<glyph unicode="T" horiz-adv-x="1100" d="M100 1200v200h900v-200h-350v-1200h-200v1200h-350z" />
<glyph unicode="U" horiz-adv-x="1100" d="M100 530v870h200v-870q0 -350 250 -350t250 350v870h200v-870q0 -550 -450 -550t-450 550z" />
<glyph unicode="V" d="M0 1400h200l300 -1120l300 1120h200l-400 -1400h-200z" />
<glyph unicode="W" horiz-adv-x="1650" d="M0 1400h200l250 -1120l250 1120h250l250 -1120l250 1120h200l-320 -1400h-260l-245 1072l-245 -1072h-260z" />
<glyph unicode="X" horiz-adv-x="1100" d="M50 0l385 700l-385 700h230l270 -491l270 491h230l-385 -700l385 -700h-230l-270 491l-270 -491h-230z" />
<glyph unicode="Y" d="M0 1400h200l300 -590l300 590h200l-400 -800v-600h-200v600z" />
<glyph unicode="Z" horiz-adv-x="1100" d="M100 0v200l640 1000h-610v200h850v-200l-640 -1000h660v-200h-900z" />
<glyph unicode="[" horiz-adv-x="650" d="M100 -200v1800h450v-200h-250v-1400h250v-200h-450z" />
<glyph unicode="\" horiz-adv-x="700" d="M0 1600h190l510 -1800h-190z" />
<glyph unicode="]" horiz-adv-x="650" d="M100 0h250v1400h-250v200h450v-1800h-450v200z" />
<glyph unicode="^" d="M100 700l280 700h240l280 -700h-210l-190 510l-190 -510h-210z" />
<glyph unicode="_" horiz-adv-x="800" d="M0 -250h800v-150h-800v150z" />
<glyph unicode="`" horiz-adv-x="730" d="M200 1400h230l100 -200h-160z" />
<glyph unicode="a" d="M100 280q0 300 400 300h200v20q0 220 -200 220q-150 0 -250 -100l-130 140q179 160 380 160q400 0 400 -420v-400q0 -98 50 -200h-200q-33 66 -45 132q-72 -152 -255 -152q-350 0 -350 300zM300 290q0 -130 150 -130q220 0 250 170v80h-200q-200 0 -200 -120z" />
<glyph unicode="b" horiz-adv-x="1030" d="M100 0v1400h200v-550q100 150 260 150q370 0 370 -450v-100q0 -450 -370 -450q-160 0 -260 150v-150h-200zM300 300q100 -100 260 -100q170 0 170 250v100q0 250 -170 250q-160 0 -260 -100v-400z" />
<glyph unicode="c" horiz-adv-x="999" d="M100 450v100q5 470 430 470q294 0 369 -200l-149 -120q-50 120 -220 120q-226 0 -230 -270v-90q0 -280 230 -280q170 0 220 120l149 -120q-75 -200 -369 -200q-425 0 -430 470z" />
<glyph unicode="d" horiz-adv-x="1030" d="M100 450v100q0 450 370 450q159 0 260 -150v550h200v-1400h-200v150q-101 -150 -260 -150q-370 0 -370 450zM300 450q0 -250 170 -250q160 0 260 100v400q-100 100 -260 100q-170 0 -170 -250v-100z" />
<glyph unicode="e" d="M100 430v140q4 450 410 450q390 0 390 -450v-150h-600q9 -240 230 -240q170 0 220 120l149 -120q-75 -200 -369 -200q-426 0 -430 450zM300 580h400q-5 240 -190 240q-203 0 -210 -240z" />
<glyph unicode="f" horiz-adv-x="750" d="M100 820v180h100v100q0 300 300 300q71 0 150 -40v-180q-82 20 -150 20q-100 0 -100 -100v-100h250v-180h-250v-820h-200v820h-100z" />
<glyph unicode="g" horiz-adv-x="1030" d="M100 450v100q0 450 370 450q159 0 260 -150v150h200v-990q0 -430 -430 -430q-294 0 -369 200l149 120q49 -120 220 -120q230 0 230 230v140q-101 -150 -260 -150q-370 0 -370 450zM300 450q0 -250 170 -250q160 0 260 100v400q-100 100 -260 100q-170 0 -170 -250v-100z " />
<glyph unicode="h" horiz-adv-x="1030" d="M100 0v1400h200v-550q100 150 260 150q370 0 370 -450v-550h-200v550q0 250 -170 250q-160 0 -260 -100v-700h-200z" />
<glyph unicode="i" horiz-adv-x="600" d="M200 0v1000h200v-1000h-200zM200 1200v200h200v-200h-200z" />
<glyph unicode="j" horiz-adv-x="600" d="M-100 -375l59 184q35 -29 114 -29q120 0 122 200v1020h200v-1020q-1 -400 -322 -400q-112 0 -173 45zM194 1200v200h200v-200h-200z" />
<glyph unicode="k" horiz-adv-x="953" d="M100 0v1400h200v-830l390 430h260l-380 -409l380 -591h-230l-284 446l-136 -146v-300h-200z" />
<glyph unicode="l" horiz-adv-x="600" d="M200 0v1400h200v-1400h-200z" />
<glyph unicode="m" horiz-adv-x="1550" d="M100 0v1000h200v-150q100 150 230 150q210 0 290 -150q130 150 280 150q350 0 350 -450v-550h-200v550q0 250 -150 250q-151 0 -230 -100q5 -30 7.5 -67.5t2.5 -82.5v-550h-200v550q0 250 -150 250q-130 0 -230 -100v-700h-200z" />
<glyph unicode="n" horiz-adv-x="1030" d="M100 0v1000h200v-150q100 150 260 150q370 0 370 -450v-550h-200v550q0 250 -170 250q-160 0 -260 -100v-700h-200z" />
<glyph unicode="o" horiz-adv-x="1060" d="M100 450v100q5 470 430 470t430 -470v-100q-5 -470 -430 -470t-430 470zM300 460q0 -280 230 -280t230 280v80q0 280 -230 280t-230 -280v-80z" />
<glyph unicode="p" horiz-adv-x="1030" d="M100 -400v1400h200v-150q100 150 260 150q370 0 370 -450v-100q0 -450 -370 -450q-160 0 -260 150v-550h-200zM300 300q100 -100 260 -100q170 0 170 250v100q0 250 -170 250q-160 0 -260 -100v-400z" />
<glyph unicode="q" horiz-adv-x="1030" d="M100 450v100q0 450 370 450q159 0 260 -150v150h200v-1400h-200v550q-101 -150 -260 -150q-370 0 -370 450zM300 450q0 -250 170 -250q160 0 260 100v400q-100 100 -260 100q-170 0 -170 -250v-100z" />
<glyph unicode="r" horiz-adv-x="800" d="M100 0v1000h200v-150q100 150 260 150q101 0 187 -51l-58 -180q-52 31 -129 31q-160 0 -260 -100v-700h-200z" />
<glyph unicode="s" horiz-adv-x="994" d="M100 70l62 185q115 -85 331 -85q200 0 200 140q-10 90 -209 100q-380 11 -380 290q6 320 390 320q211 0 374 -94l-61 -186q-122 90 -313 90q-186 0 -190 -133q3 -96 200 -107q390 -11 390 -290h-2q-5 -320 -399 -320q-278 0 -393 90z" />
<glyph unicode="t" horiz-adv-x="750" d="M100 820v180h100v300h200v-300h250v-180h-250v-470q0 -150 100 -150q68 0 150 20v-180q-79 -40 -150 -40q-300 0 -300 350v470h-100z" />
<glyph unicode="u" horiz-adv-x="1030" d="M100 450v550h200v-550q0 -250 170 -250q160 0 260 100v700h200v-1000h-200v150q-101 -150 -260 -150q-370 0 -370 450z" />
<glyph unicode="v" horiz-adv-x="900" d="M0 1000h210l240 -710l240 710h210l-350 -1000h-200z" />
<glyph unicode="w" horiz-adv-x="1400" d="M0 1000h210l190 -660l190 660h220l190 -660l190 660h210l-300 -1000h-200l-200 666l-200 -666h-200z" />
<glyph unicode="x" d="M50 0l335 500l-335 500h230l220 -329l220 329h230l-335 -500l335 -500h-230l-220 328l-220 -328h-230z" />
<glyph unicode="y" horiz-adv-x="900" d="M0 1000h210l239 -718l241 718h210l-385 -1100q-95 -300 -365 -300q-25 0 -50 2.5t-50 7.5l21 196q39 -6 79 -6q131 0 171 100l33 100h-4z" />
<glyph unicode="z" d="M100 0v200l520 600h-490v200h750v-200l-520 -600h540v-200h-800z" />
<glyph unicode="{" horiz-adv-x="800" d="M100 600v200q200 0 200 200v200q0 400 400 400v-200q-200 0 -200 -200v-200q0 -217 -155 -300q155 -83 155 -300v-200q0 -200 200 -200v-200q-400 0 -400 400v200q0 200 -200 200z" />
<glyph unicode="|" horiz-adv-x="600" d="M200 -200v1800h200v-1800h-200z" />
<glyph unicode="}" horiz-adv-x="800" d="M100 0q200 0 200 200v200q0 218 154 300q-154 82 -154 300v200q0 200 -200 200v200q400 0 400 -400v-200q0 -200 200 -200v-200q-200 0 -200 -200v-200q0 -400 -400 -400v200z" />
<glyph unicode="~" horiz-adv-x="1200" d="M100 600v150q100 150 250 150q149 0 265 -60q115 -60 255 -60q129 0 230 120v-150q-101 -150 -250 -150q-150 0 -265 60q-116 60 -255 60q-130 0 -230 -120z" />
<glyph unicode="&#xa1;" horiz-adv-x="600" d="M200 0l20 600h160l20 -600v-400h-200v400zM200 800v200h200v-200h-200z" />
<glyph unicode="&#xa2;" horiz-adv-x="999" d="M100 650v100q5 423 350 465v185h150v-183q233 -23 299 -197l-149 -120q-39 93 -150 114v-628q111 21 150 114l149 -120q-66 -174 -299 -197v-183h-150v184q-346 42 -350 466zM300 660q0 -227 150 -270v620q-147 -44 -150 -260v-90z" />
<glyph unicode="&#xa3;" horiz-adv-x="1100" d="M100 600v200h100v150q5 470 430 470q294 0 369 -200l-149 -120q-50 120 -220 120q-226 0 -230 -270v-150h300v-200h-300v-400h600v-200h-800v600h-100z" />
<glyph unicode="&#xa5;" horiz-adv-x="1200" d="M100 1400h200l300 -590l300 590h200l-350 -700h250v-150h-300v-150h300v-150h-300v-250h-200v250h-300v150h300v150h-300v150h250z" />
<glyph unicode="&#xa6;" horiz-adv-x="600" d="M200 -200v800h200v-800h-200zM200 800v800h200v-800h-200z" />
<glyph unicode="&#xa8;" horiz-adv-x="800" d="M100 1200v200h200v-200h-200zM500 1200v200h200v-200h-200z" />
<glyph unicode="&#xa9;" horiz-adv-x="1475" d="M100 850q0 264 187 451t451 187t450 -187q187 -187 187 -451t-187 -451q-186 -186 -450 -186t-451 186q-187 187 -187 451zM250 850q0 -202 143 -345q142 -142 345 -142q202 0 344 142q143 143 143 345t-143 345t-344 143q-202 0 -345 -143t-143 -345zM400 850 q0 140 99 239t239 99q139 0 238 -99q73 -73 92 -165h-157q-14 31 -41 59q-54 55 -132 55t-133 -55t-55 -133t55 -133q55 -54 133 -54t132 54q29 29 43 65h155q-18 -96 -92 -170q-99 -99 -238 -99q-140 0 -239 99t-99 238z" />
<glyph unicode="&#xab;" horiz-adv-x="1100" d="M100 700l300 400h200l-250 -400l250 -400h-200zM500 700l300 400h200l-250 -400l250 -400h-200z" />
<glyph unicode="&#xac;" horiz-adv-x="1200" d="M100 600v200h1000v-600h-200v400h-800z" />
<glyph unicode="&#xad;" horiz-adv-x="800" d="M100 600v200h600v-200h-600z" />
<glyph unicode="&#xae;" horiz-adv-x="1050" d="M100 1275q0 176 124 300q125 125 301 125q175 0 300 -125t125 -300q0 -176 -125 -301q-124 -124 -300 -124q-177 0 -301 124t-124 301zM200 1275q0 -133 95 -230q97 -95 230 -95q135 0 230 95q95 97 95 230q0 135 -95 230t-230 95q-133 0 -230 -95q-95 -95 -95 -230z M325 1050v450h250q150 0 150 -150q0 -125 -104 -146l104 -154h-115l-101 150h-84v-150h-100zM425 1300h150q50 0 50 50t-50 50h-150v-100z" />
<glyph unicode="&#xb0;" horiz-adv-x="800" d="M100 1100q0 124 88 212t212 88t212 -88t88 -212t-88 -212t-212 -88t-212 88t-88 212zM238 1100q0 -66 47 -115q49 -47 115 -47q67 0 114 47q48 48 48 115t-48 114q-47 48 -114 48t-115 -48q-47 -47 -47 -114z" />
<glyph unicode="&#xb1;" horiz-adv-x="1200" d="M100 0v200h1000v-200h-1000zM100 800v200h400v400h200v-400h400v-200h-400v-400h-200v400h-400z" />
<glyph unicode="&#xb4;" horiz-adv-x="730" d="M200 1200l100 200h230l-170 -200h-160z" />
<glyph unicode="&#xb5;" horiz-adv-x="1100" d="M100 -400v1400h200v-700q100 -100 250 -100t250 100v700h200v-1000h-200v150q-101 -150 -250 -150q-150 0 -250 150v-550h-200z" />
<glyph unicode="&#xb6;" horiz-adv-x="1200" d="M100 1000q0 400 400 400h600v-1600h-200v1400h-200v-1400h-200v800q-400 0 -400 400z" />
<glyph unicode="&#xb7;" horiz-adv-x="700" d="M200 550v300h300v-300h-300z" />
<glyph unicode="&#xb8;" horiz-adv-x="730" d="M200 -400l170 200h160l-100 -200h-230z" />
<glyph unicode="&#xbb;" horiz-adv-x="1100" d="M100 300l250 400l-250 400h200l300 -400l-300 -400h-200zM500 300l250 400l-250 400h200l300 -400l-300 -400h-200z" />
<glyph unicode="&#xbf;" horiz-adv-x="1099" d="M101 0q0 250 200 370q199 120 210 230h180q0 -200 -195 -325q-195 -124 -195 -275q0 -220 250 -220t250 240l198 -38q-27 -402 -448 -402q-450 0 -450 420zM501 800v200h200v-200h-200z" />
<glyph unicode="&#xc0;" d="M0 0l400 1400h200l400 -1400h-200l-81 300h-439l-80 -300h-200zM280 1800h230l100 -200h-160zM334 500h332l-166 620z" />
<glyph unicode="&#xc1;" d="M0 0l400 1400h200l400 -1400h-200l-81 300h-439l-80 -300h-200zM334 500h332l-166 620zM390 1600l100 200h230l-170 -200h-160z" />
<glyph unicode="&#xc2;" d="M0 0l400 1400h200l400 -1400h-200l-81 300h-439l-80 -300h-200zM250 1600l130 200h240l130 -200h-180l-70 110l-70 -110h-180zM334 500h332l-166 620z" />
<glyph unicode="&#xc3;" d="M0 0l400 1400h200l400 -1400h-200l-81 300h-439l-80 -300h-200zM170 1552v149q66 99 175 99q90 0 160 -40q70 -39 153 -39q96 0 172 79v-149q-66 -99 -175 -99q-90 0 -160 39q-70 40 -153 40q-96 0 -172 -79zM334 500h332l-166 620z" />
<glyph unicode="&#xc4;" d="M0 0l400 1400h200l400 -1400h-200l-81 300h-439l-80 -300h-200zM200 1600v200h200v-200h-200zM334 500h332l-166 620zM600 1600v200h200v-200h-200z" />
<glyph unicode="&#xc5;" d="M0 0l400 1400h200l400 -1400h-200l-81 300h-439l-80 -300h-200zM300 1700q0 83 58 141q59 59 142 59q82 0 141 -59t59 -141q0 -83 -59 -142q-58 -58 -141 -58q-84 0 -142 58t-58 142zM334 500h332l-166 620zM421 1700q0 -33 23 -56t56 -23t56.5 23t23.5 56t-23.5 56.5 t-56.5 23.5t-56 -23.5t-23 -56.5z" />
<glyph unicode="&#xc6;" horiz-adv-x="1700" d="M0 0l400 1400h1200v-200h-600v-400h550v-200h-550v-400h600v-200h-800v300h-515l-85 -300h-200zM341 500h459v700h-260z" />
<glyph unicode="&#xc7;" horiz-adv-x="1099" d="M100 530v330q0 560 450 560q421 0 448 -402l-198 -38q0 240 -250 240t-250 -360v-330q0 -350 250 -350t250 230l199 -30q-25 -400 -449 -400q-450 0 -450 550zM385 -400l170 200h160l-100 -200h-230z" />
<glyph unicode="&#xc8;" d="M100 0v1400h800v-200h-600v-400h550v-200h-550v-400h600v-200h-800zM280 1800h230l100 -200h-160z" />
<glyph unicode="&#xc9;" d="M100 0v1400h800v-200h-600v-400h550v-200h-550v-400h600v-200h-800zM390 1600l100 200h230l-170 -200h-160z" />
<glyph unicode="&#xca;" d="M100 0v1400h800v-200h-600v-400h550v-200h-550v-400h600v-200h-800zM250 1600l130 200h240l130 -200h-180l-70 110l-70 -110h-180z" />
<glyph unicode="&#xcb;" d="M100 0v1400h800v-200h-600v-400h550v-200h-550v-400h600v-200h-800zM200 1600v200h200v-200h-200zM600 1600v200h200v-200h-200z" />
<glyph unicode="&#xcc;" horiz-adv-x="600" d="M83 1800h230l100 -200h-160zM200 0v1400h200v-1400h-200z" />
<glyph unicode="&#xcd;" horiz-adv-x="600" d="M193 1600l100 200h230l-170 -200h-160zM200 0v1400h200v-1400h-200z" />
<glyph unicode="&#xce;" horiz-adv-x="600" d="M53 1600l130 200h240l130 -200h-180l-70 110l-70 -110h-180zM200 0v1400h200v-1400h-200z" />
<glyph unicode="&#xcf;" horiz-adv-x="600" d="M3 1600v200h200v-200h-200zM200 0v1400h200v-1400h-200zM403 1600v200h200v-200h-200z" />
<glyph unicode="&#xd0;" horiz-adv-x="1200" d="M100 620v160h100v620h450q450 0 450 -560v-290q0 -550 -450 -550h-450v620h-100zM400 200h250q250 0 250 350v290q0 360 -250 360h-250v-420h300v-160h-300v-420z" />
<glyph unicode="&#xd1;" horiz-adv-x="1100" d="M100 0v1400h200l500 -1000v1000h200v-1400h-200l-500 1000v-1000h-200zM220 1552v149q66 99 175 99q90 0 160 -40q70 -39 153 -39q96 0 172 79v-149q-66 -99 -175 -99q-90 0 -160 39q-70 40 -153 40q-96 0 -172 -79z" />
<glyph unicode="&#xd2;" horiz-adv-x="1100" d="M100 530v330q0 560 450 560t450 -560v-330q0 -550 -450 -550t-450 550zM300 530q0 -350 250 -350t250 350v330q0 360 -250 360t-250 -360v-330zM330 1800h230l100 -200h-160z" />
<glyph unicode="&#xd3;" horiz-adv-x="1100" d="M100 530v330q0 560 450 560t450 -560v-330q0 -550 -450 -550t-450 550zM300 530q0 -350 250 -350t250 350v330q0 360 -250 360t-250 -360v-330zM440 1600l100 200h230l-170 -200h-160z" />
<glyph unicode="&#xd4;" horiz-adv-x="1100" d="M100 530v330q0 560 450 560t450 -560v-330q0 -550 -450 -550t-450 550zM300 530q0 -350 250 -350t250 350v330q0 360 -250 360t-250 -360v-330zM300 1600l130 200h240l130 -200h-180l-70 110l-70 -110h-180z" />
<glyph unicode="&#xd5;" horiz-adv-x="1100" d="M100 530v330q0 560 450 560t450 -560v-330q0 -550 -450 -550t-450 550zM220 1552v149q66 99 175 99q90 0 160 -40q70 -39 153 -39q96 0 172 79v-149q-66 -99 -175 -99q-90 0 -160 39q-70 40 -153 40q-96 0 -172 -79zM300 530q0 -350 250 -350t250 350v330q0 360 -250 360 t-250 -360v-330z" />
<glyph unicode="&#xd6;" horiz-adv-x="1100" d="M100 530v330q0 560 450 560t450 -560v-330q0 -550 -450 -550t-450 550zM250 1600v200h200v-200h-200zM300 530q0 -350 250 -350t250 350v330q0 360 -250 360t-250 -360v-330zM650 1600v200h200v-200h-200z" />
<glyph unicode="&#xd7;" horiz-adv-x="1049" d="M96 417l283 283l-283 283l141 141l283 -283l283 283l142 -141l-283 -283l283 -283l-142 -141l-283 283l-283 -283z" />
<glyph unicode="&#xd8;" horiz-adv-x="1100" d="M100 -200l126 302q-126 136 -126 428v330q0 560 450 560q121 0 208 -40l92 220h150l-127 -304q127 -139 127 -436v-330q0 -550 -450 -550q-121 0 -209 39l-91 -219h-150zM300 530q0 -111 26 -189l352 846q-53 33 -128 33q-250 0 -250 -360v-330zM421 212q53 -32 129 -32 q250 0 250 350v330q0 116 -27 196z" />
<glyph unicode="&#xd9;" horiz-adv-x="1100" d="M100 530v870h200v-870q0 -350 250 -350t250 350v870h200v-870q0 -550 -450 -550t-450 550zM330 1800h230l100 -200h-160z" />
<glyph unicode="&#xda;" horiz-adv-x="1100" d="M100 530v870h200v-870q0 -350 250 -350t250 350v870h200v-870q0 -550 -450 -550t-450 550zM440 1600l100 200h230l-170 -200h-160z" />
<glyph unicode="&#xdb;" horiz-adv-x="1100" d="M100 530v870h200v-870q0 -350 250 -350t250 350v870h200v-870q0 -550 -450 -550t-450 550zM300 1600l130 200h240l130 -200h-180l-70 110l-70 -110h-180z" />
<glyph unicode="&#xdc;" horiz-adv-x="1100" d="M100 530v870h200v-870q0 -350 250 -350t250 350v870h200v-870q0 -550 -450 -550t-450 550zM250 1600v200h200v-200h-200zM650 1600v200h200v-200h-200z" />
<glyph unicode="&#xdd;" d="M0 1400h200l300 -590l300 590h200l-400 -800v-600h-200v600zM390 1600l100 200h230l-170 -200h-160z" />
<glyph unicode="&#xde;" horiz-adv-x="1100" d="M100 0v1400h200v-300h300q400 0 400 -400t-400 -400h-300v-300h-200zM300 500h300q200 0 200 200t-200 200h-300v-400z" />
<glyph unicode="&#xdf;" horiz-adv-x="1100" d="M100 0v950q0 450 450 450t450 -400q0 -215 -188 -298q208 -81 208 -302q0 -400 -520 -400v200q320 0 320 200t-320 200v200q300 0 300 200t-250 200t-250 -250v-950h-200z" />
<glyph unicode="&#xe0;" d="M100 280q0 300 400 300h200v20q0 220 -200 220q-150 0 -250 -100l-130 140q179 160 380 160q400 0 400 -420v-400q0 -98 50 -200h-200q-33 66 -45 132q-72 -152 -255 -152q-350 0 -350 300zM300 290q0 -130 150 -130q220 0 250 170v80h-200q-200 0 -200 -120zM305 1400 h230l100 -200h-160z" />
<glyph unicode="&#xe1;" d="M100 280q0 300 400 300h200v20q0 220 -200 220q-150 0 -250 -100l-130 140q179 160 380 160q400 0 400 -420v-400q0 -98 50 -200h-200q-33 66 -45 132q-72 -152 -255 -152q-350 0 -350 300zM300 290q0 -130 150 -130q220 0 250 170v80h-200q-200 0 -200 -120zM415 1200 l100 200h230l-170 -200h-160z" />
<glyph unicode="&#xe2;" d="M100 280q0 300 400 300h200v20q0 220 -200 220q-150 0 -250 -100l-130 140q179 160 380 160q400 0 400 -420v-400q0 -98 50 -200h-200q-33 66 -45 132q-72 -152 -255 -152q-350 0 -350 300zM275 1200l130 200h240l130 -200h-180l-70 110l-70 -110h-180zM300 290 q0 -130 150 -130q220 0 250 170v80h-200q-200 0 -200 -120z" />
<glyph unicode="&#xe3;" d="M100 280q0 300 400 300h200v20q0 220 -200 220q-150 0 -250 -100l-130 140q179 160 380 160q400 0 400 -420v-400q0 -98 50 -200h-200q-33 66 -45 132q-72 -152 -255 -152q-350 0 -350 300zM195 1152v149q66 99 175 99q90 0 160 -40q70 -39 153 -39q96 0 172 79v-149 q-66 -99 -175 -99q-90 0 -160 39q-70 40 -153 40q-96 0 -172 -79zM300 290q0 -130 150 -130q220 0 250 170v80h-200q-200 0 -200 -120z" />
<glyph unicode="&#xe4;" d="M100 280q0 300 400 300h200v20q0 220 -200 220q-150 0 -250 -100l-130 140q179 160 380 160q400 0 400 -420v-400q0 -98 50 -200h-200q-33 66 -45 132q-72 -152 -255 -152q-350 0 -350 300zM225 1200v200h200v-200h-200zM300 290q0 -130 150 -130q220 0 250 170v80h-200 q-200 0 -200 -120zM625 1200v200h200v-200h-200z" />
<glyph unicode="&#xe5;" d="M100 280q0 300 400 300h200v20q0 220 -200 220q-150 0 -250 -100l-130 140q179 160 380 160q400 0 400 -420v-400q0 -98 50 -200h-200q-33 66 -45 132q-72 -152 -255 -152q-350 0 -350 300zM300 290q0 -130 150 -130q220 0 250 170v80h-200q-200 0 -200 -120zM325 1300 q0 83 58 141q59 59 142 59q82 0 141 -59t59 -141q0 -83 -59 -142q-58 -58 -141 -58q-84 0 -142 58t-58 142zM446 1300q0 -33 23 -56t56 -23t56.5 23t23.5 56t-23.5 56.5t-56.5 23.5t-56 -23.5t-23 -56.5z" />
<glyph unicode="&#xe6;" horiz-adv-x="1600" d="M100 280q0 300 400 300h200v7t1 13h-1q0 220 -200 220q-150 0 -250 -100l-130 140q179 160 380 160q199 0 299 -169q102 169 311 169q390 0 390 -450v-150h-600q9 -240 230 -240q170 0 220 120l149 -120q-75 -200 -369 -200q-287 0 -383 204q-80 -204 -297 -204 q-350 0 -350 300zM300 290q0 -130 150 -130q201 0 260 146q-5 29 -7.5 55t-2.5 49h-200q-200 0 -200 -120zM900 580h400q-5 240 -190 240q-203 0 -210 -240z" />
<glyph unicode="&#xe7;" horiz-adv-x="999" d="M100 450v100q5 470 430 470q294 0 369 -200l-149 -120q-50 120 -220 120q-226 0 -230 -270v-90q0 -280 230 -280q170 0 220 120l149 -120q-75 -200 -369 -200q-425 0 -430 470zM335 -400l170 200h160l-100 -200h-230z" />
<glyph unicode="&#xe8;" d="M100 430v140q4 450 410 450q390 0 390 -450v-150h-600q9 -240 230 -240q170 0 220 120l149 -120q-75 -200 -369 -200q-426 0 -430 450zM280 1400h230l100 -200h-160zM300 580h400q-5 240 -190 240q-203 0 -210 -240z" />
<glyph unicode="&#xe9;" d="M100 430v140q4 450 410 450q390 0 390 -450v-150h-600q9 -240 230 -240q170 0 220 120l149 -120q-75 -200 -369 -200q-426 0 -430 450zM300 580h400q-5 240 -190 240q-203 0 -210 -240zM390 1200l100 200h230l-170 -200h-160z" />
<glyph unicode="&#xea;" d="M100 430v140q4 450 410 450q390 0 390 -450v-150h-600q9 -240 230 -240q170 0 220 120l149 -120q-75 -200 -369 -200q-426 0 -430 450zM250 1200l130 200h240l130 -200h-180l-70 110l-70 -110h-180zM300 580h400q-5 240 -190 240q-203 0 -210 -240z" />
<glyph unicode="&#xeb;" d="M100 430v140q4 450 410 450q390 0 390 -450v-150h-600q9 -240 230 -240q170 0 220 120l149 -120q-75 -200 -369 -200q-426 0 -430 450zM200 1200v200h200v-200h-200zM300 580h400q-5 240 -190 240q-203 0 -210 -240zM600 1200v200h200v-200h-200z" />
<glyph unicode="&#xec;" horiz-adv-x="600" d="M83 1400h230l100 -200h-160zM200 0v1000h200v-1000h-200z" />
<glyph unicode="&#xed;" horiz-adv-x="600" d="M193 1200l100 200h230l-170 -200h-160zM200 0v1000h200v-1000h-200z" />
<glyph unicode="&#xee;" horiz-adv-x="600" d="M53 1200l130 200h240l130 -200h-180l-70 110l-70 -110h-180zM200 0v1000h200v-1000h-200z" />
<glyph unicode="&#xef;" horiz-adv-x="600" d="M3 1200v200h200v-200h-200zM200 0v1000h200v-1000h-200zM403 1200v200h200v-200h-200z" />
<glyph unicode="&#xf0;" horiz-adv-x="1030" d="M100 450v100q0 450 370 450q159 0 260 -150v270h-210v160h210v120h200v-120h190v-160h-190v-1120h-200v150q-101 -150 -260 -150q-370 0 -370 450zM300 450q0 -250 170 -250q160 0 260 100v400q-100 100 -260 100q-170 0 -170 -250v-100z" />
<glyph unicode="&#xf1;" horiz-adv-x="1030" d="M100 0v1000h200v-150q100 150 260 150q370 0 370 -450v-550h-200v550q0 250 -170 250q-160 0 -260 -100v-700h-200zM185 1152v149q66 99 175 99q90 0 160 -40q70 -39 153 -39q96 0 172 79v-149q-66 -99 -175 -99q-90 0 -160 39q-70 40 -153 40q-96 0 -172 -79z" />
<glyph unicode="&#xf2;" horiz-adv-x="1060" d="M100 450v100q5 470 430 470t430 -470v-100q-5 -470 -430 -470t-430 470zM300 460q0 -280 230 -280t230 280v80q0 280 -230 280t-230 -280v-80zM310 1400h230l100 -200h-160z" />
<glyph unicode="&#xf3;" horiz-adv-x="1060" d="M100 450v100q5 470 430 470t430 -470v-100q-5 -470 -430 -470t-430 470zM300 460q0 -280 230 -280t230 280v80q0 280 -230 280t-230 -280v-80zM420 1200l100 200h230l-170 -200h-160z" />
<glyph unicode="&#xf4;" horiz-adv-x="1060" d="M100 450v100q5 470 430 470t430 -470v-100q-5 -470 -430 -470t-430 470zM280 1200l130 200h240l130 -200h-180l-70 110l-70 -110h-180zM300 460q0 -280 230 -280t230 280v80q0 280 -230 280t-230 -280v-80z" />
<glyph unicode="&#xf5;" horiz-adv-x="1060" d="M100 450v100q5 470 430 470t430 -470v-100q-5 -470 -430 -470t-430 470zM200 1152v149q66 99 175 99q90 0 160 -40q70 -39 153 -39q96 0 172 79v-149q-66 -99 -175 -99q-90 0 -160 39q-70 40 -153 40q-96 0 -172 -79zM300 460q0 -280 230 -280t230 280v80q0 280 -230 280 t-230 -280v-80z" />
<glyph unicode="&#xf6;" horiz-adv-x="1060" d="M100 450v100q5 470 430 470t430 -470v-100q-5 -470 -430 -470t-430 470zM230 1200v200h200v-200h-200zM300 460q0 -280 230 -280t230 280v80q0 280 -230 280t-230 -280v-80zM630 1200v200h200v-200h-200z" />
<glyph unicode="&#xf7;" horiz-adv-x="1200" d="M100 600v200h1000v-200h-1000zM500 200v200h200v-200h-200zM500 1000v200h200v-200h-200z" />
<glyph unicode="&#xf8;" horiz-adv-x="1060" d="M100 -400l182 438q-182 110 -182 422v90q5 470 430 470q87 0 154 -19l166 399h150l-192 -460q149 -113 152 -390v-100q-5 -470 -430 -470q-32 0 -61.5 3t-56.5 8l-162 -391h-150zM300 460q0 -151 66 -220l238 571q-33 9 -74 9q-226 0 -230 -270v-90zM492 182 q9 -1 18.5 -1.5t19.5 -0.5q230 0 230 280v80q0 118 -41 186z" />
<glyph unicode="&#xf9;" horiz-adv-x="1030" d="M100 450v550h200v-550q0 -250 170 -250q160 0 260 100v700h200v-1000h-200v150q-101 -150 -260 -150q-370 0 -370 450zM295 1400h230l100 -200h-160z" />
<glyph unicode="&#xfa;" horiz-adv-x="1030" d="M100 450v550h200v-550q0 -250 170 -250q160 0 260 100v700h200v-1000h-200v150q-101 -150 -260 -150q-370 0 -370 450zM405 1200l100 200h230l-170 -200h-160z" />
<glyph unicode="&#xfb;" horiz-adv-x="1030" d="M100 450v550h200v-550q0 -250 170 -250q160 0 260 100v700h200v-1000h-200v150q-101 -150 -260 -150q-370 0 -370 450zM265 1200l130 200h240l130 -200h-180l-70 110l-70 -110h-180z" />
<glyph unicode="&#xfc;" horiz-adv-x="1030" d="M100 450v550h200v-550q0 -250 170 -250q160 0 260 100v700h200v-1000h-200v150q-101 -150 -260 -150q-370 0 -370 450zM215 1200v200h200v-200h-200zM615 1200v200h200v-200h-200z" />
<glyph unicode="&#xfd;" horiz-adv-x="900" d="M0 1000h210l239 -718l241 718h210l-385 -1100q-95 -300 -365 -300q-25 0 -50 2.5t-50 7.5l21 196q39 -6 79 -6q131 0 171 100l33 100h-4zM340 1200l100 200h230l-170 -200h-160z" />
<glyph unicode="&#xfe;" horiz-adv-x="1030" d="M100 -400v1800h200v-550q100 150 260 150q370 0 370 -450v-100q0 -450 -370 -450q-160 0 -260 150v-550h-200zM300 300q100 -100 260 -100q170 0 170 250v100q0 250 -170 250q-160 0 -260 -100v-400z" />
<glyph unicode="&#xff;" horiz-adv-x="900" d="M0 1000h210l239 -718l241 718h210l-385 -1100q-95 -300 -365 -300q-25 0 -50 2.5t-50 7.5l21 196q39 -6 79 -6q131 0 171 100l33 100h-4zM150 1200v200h200v-200h-200zM550 1200v200h200v-200h-200z" />
<glyph unicode="&#x152;" horiz-adv-x="1652" d="M100 530v330q0 560 450 560q176 0 250 -126v106h750v-200h-550v-400h500v-200h-500v-400h550v-200h-750v102q-74 -122 -250 -122q-450 0 -450 550zM300 530q0 -350 250 -350q242 0 250 237v556q-6 247 -250 247q-250 0 -250 -360v-330z" />
<glyph unicode="&#x153;" horiz-adv-x="1700" d="M100 450v100q5 470 430 470q269 0 347 -241q72 241 333 241q390 0 390 -450v-150h-600q9 -240 230 -240q170 0 220 120l149 -120q-75 -200 -369 -200q-277 0 -352 243q-78 -243 -348 -243q-425 0 -430 470zM300 450q4 -270 230 -270q225 0 230 270v100q-5 270 -230 270 q-226 0 -230 -270v-100zM1000 580h400q-5 240 -190 240q-203 0 -210 -240z" />
<glyph unicode="&#x178;" d="M0 1400h200l300 -590l300 590h200l-400 -800v-600h-200v600zM200 1600v200h200v-200h-200zM600 1600v200h200v-200h-200z" />
<glyph unicode="&#x2c6;" horiz-adv-x="700" d="M100 1200l130 200h240l130 -200h-180l-70 110l-70 -110h-180z" />
<glyph unicode="&#x2dc;" horiz-adv-x="860" d="M100 1152v149q66 99 175 99q90 0 160 -40q70 -39 153 -39q96 0 172 79v-149q-66 -99 -175 -99q-90 0 -160 39q-70 40 -153 40q-96 0 -172 -79z" />
<glyph unicode="&#x2000;" horiz-adv-x="950" />
<glyph unicode="&#x2001;" horiz-adv-x="1900" />
<glyph unicode="&#x2002;" horiz-adv-x="950" />
<glyph unicode="&#x2003;" horiz-adv-x="1900" />
<glyph unicode="&#x2004;" horiz-adv-x="633" />
<glyph unicode="&#x2005;" horiz-adv-x="475" />
<glyph unicode="&#x2006;" horiz-adv-x="316" />
<glyph unicode="&#x2007;" horiz-adv-x="316" />
<glyph unicode="&#x2008;" horiz-adv-x="237" />
<glyph unicode="&#x2009;" horiz-adv-x="380" />
<glyph unicode="&#x200a;" horiz-adv-x="105" />
<glyph unicode="&#x2010;" horiz-adv-x="800" d="M100 600v200h600v-200h-600z" />
<glyph unicode="&#x2011;" horiz-adv-x="800" d="M100 600v200h600v-200h-600z" />
<glyph unicode="&#x2012;" horiz-adv-x="800" d="M100 600v200h600v-200h-600z" />
<glyph unicode="&#x2013;" horiz-adv-x="800" d="M100 600v200h600v-200h-600z" />
<glyph unicode="&#x2014;" horiz-adv-x="1200" d="M100 600v200h1000v-200h-1000z" />
<glyph unicode="&#x2018;" horiz-adv-x="600" d="M200 950v200q0 250 200 250v-100q-70 0 -70 -150h70v-200h-200z" />
<glyph unicode="&#x2019;" horiz-adv-x="600" d="M200 950v100q70 0 70 150h-70v200h200v-200q0 -250 -200 -250z" />
<glyph unicode="&#x201a;" horiz-adv-x="600" d="M200 0v200h200v-200q0 -250 -200 -250v100q70 0 70 150h-70z" />
<glyph unicode="&#x201c;" horiz-adv-x="900" d="M200 950v200q0 250 200 250v-100q-70 0 -70 -150h70v-200h-200zM500 950v200q0 250 200 250v-100q-70 0 -70 -150h70v-200h-200z" />
<glyph unicode="&#x201d;" horiz-adv-x="900" d="M200 950v100q70 0 70 150h-70v200h200v-200q0 -250 -200 -250zM500 950v100q70 0 70 150h-70v200h200v-200q0 -250 -200 -250z" />
<glyph unicode="&#x201e;" horiz-adv-x="900" d="M200 0v200h200v-200q0 -250 -200 -250v100q70 0 70 150h-70zM500 0v200h200v-200q0 -250 -200 -250v100q70 0 70 150h-70z" />
<glyph unicode="&#x2022;" horiz-adv-x="700" d="M200 550v300h300v-300h-300z" />
<glyph unicode="&#x2026;" horiz-adv-x="1800" d="M200 0v200h200v-200h-200zM800 0v200h200v-200h-200zM1400 0v200h200v-200h-200z" />
<glyph unicode="&#x202f;" horiz-adv-x="380" />
<glyph unicode="&#x2039;" horiz-adv-x="700" d="M100 700l300 400h200l-250 -400l250 -400h-200z" />
<glyph unicode="&#x203a;" horiz-adv-x="700" d="M100 300l250 400l-250 400h200l300 -400l-300 -400h-200z" />
<glyph unicode="&#x205f;" horiz-adv-x="475" />
<glyph unicode="&#x20ac;" horiz-adv-x="1299" d="M100 440v160h200v200h-200v160h204q37 460 446 460q421 0 448 -402l-198 -38q0 240 -250 240q-213 0 -245 -260h395l-30 -160h-370v-200h333l-30 -160h-298q29 -260 245 -260q250 0 250 230l199 -30q-25 -400 -449 -400q-413 0 -447 460h-203z" />
<glyph unicode="&#x2122;" horiz-adv-x="1300" d="M100 1270v130h450v-130h-170v-470h-130v470h-150zM640 800v600h200l80 -410l80 410h200v-600h-130v400l-80 -400h-140l-80 400v-400h-130z" />
<glyph unicode="&#xe000;" d="M0 0v1000h1000v-1000h-1000z" />
</font>
</defs>
</svg>
