<?xml version="1.0" standalone="no"?>
<!DOCTYPE svg PUBLIC "-//W3C//DTD SVG 1.1//EN" "http://www.w3.org/Graphics/SVG/1.1/DTD/svg11.dtd" >
<svg xmlns="http://www.w3.org/2000/svg">
<metadata></metadata>
<defs>
<font id="freeroad_lightregular" horiz-adv-x="1000" >
<font-face units-per-em="2048" ascent="1638" descent="-410" />
<missing-glyph horiz-adv-x="600" />
<glyph horiz-adv-x="2048" />
<glyph horiz-adv-x="2048" />
<glyph unicode="&#xd;" horiz-adv-x="2048" />
<glyph unicode=" "  horiz-adv-x="600" />
<glyph unicode="&#x09;" horiz-adv-x="600" />
<glyph unicode="&#xa0;" horiz-adv-x="600" />
<glyph unicode="!" horiz-adv-x="500" d="M200 0v100h100v-100h-100zM200 1000v400h100v-400l-20 -600h-60z" />
<glyph unicode="&#x22;" horiz-adv-x="700" d="M200 1200v200h100v-200l-20 -200h-60zM400 1200v200h100v-200l-20 -200h-60z" />
<glyph unicode="#" horiz-adv-x="1300" d="M100 300v100h187l126 600h-213v100h236l64 300h100l-64 -300h400l64 300h100l-64 -300h164v-100h-187l-126 -600h213v-100h-236l-64 -300h-100l64 300h-400l-64 -300h-100l64 300h-164zM387 400h400l126 600h-400z" />
<glyph unicode="$" horiz-adv-x="1054" d="M100 380l98 20q0 -285 276 -315v583q-5 2 -10.5 3.5t-10.5 3.5q-345 75 -345 355q0 355 366 387v183h100v-184q346 -35 362 -391l-98 -25q0 281 -264 313v-578q7 -2 14 -5t15 -5q345 -75 345 -355q0 -355 -374 -387v-183h-100v183q-361 33 -374 397zM208 1030 q0 -184 266 -252v536q-266 -26 -266 -284zM574 85q274 25 274 285q0 186 -274 255v-540z" />
<glyph unicode="%" horiz-adv-x="1600" d="M100 990v90q5 320 300 320t300 -320v-90q0 -330 -300 -330t-300 330zM210 990q0 -220 190 -220q195 0 200 210v90q0 220 -200 220q-187 0 -190 -210v-90zM350 0l790 1400h110l-790 -1400h-110zM900 330v90q5 320 300 320t300 -320v-90q0 -330 -300 -330t-300 330z M1010 330q0 -220 190 -220q195 0 200 210v90q0 220 -200 220q-187 0 -190 -210v-90z" />
<glyph unicode="&#x26;" horiz-adv-x="1250" d="M100 400q0 263 302 373q-102 151 -102 277q0 350 350 350t350 -310q0 -230 -459 -375q118 -225 341 -449q179 216 238 384l80 -50q-71 -195 -252 -394q53 -43 110.5 -90.5t121.5 -99.5l-69 -79q-122 103 -225 201q-170 -138 -386 -138q-400 0 -400 400zM200 400 q0 -300 300 -300q133 0 315 106q-118 122 -210.5 242t-159.5 241q-245 -113 -245 -289zM400 1050q0 -97 95 -246q405 120 405 286q0 210 -250 210t-250 -250z" />
<glyph unicode="'" horiz-adv-x="500" d="M200 1200v200h100v-200l-20 -200h-60z" />
<glyph unicode="(" horiz-adv-x="600" d="M100 700q0 600 300 900h100q-300 -300 -300 -900t300 -900h-100q-300 300 -300 900z" />
<glyph unicode=")" horiz-adv-x="600" d="M100 -200q300 300 300 900t-300 900h100q300 -300 300 -900t-300 -900h-100z" />
<glyph unicode="*" horiz-adv-x="700" d="M80 1130l20 110l195 -40l-10 200h115l-10 -201l190 41l30 -110l-190 -30l130 -200l-100 -40l-105 180l-105 -180l-100 40l140 200z" />
<glyph unicode="+" horiz-adv-x="1200" d="M100 650v100h450v450h100v-450h450v-100h-450v-450h-100v450h-450z" />
<glyph unicode="," horiz-adv-x="550" d="M200 0v200h150v-200q0 -200 -150 -200v100q70 0 70 100h-70z" />
<glyph unicode="-" horiz-adv-x="800" d="M100 650v100h600v-100h-600z" />
<glyph unicode="." horiz-adv-x="550" d="M200 0v200h150v-200h-150z" />
<glyph unicode="/" horiz-adv-x="700" d="M0 -200l600 1800h100l-600 -1800h-100z" />
<glyph unicode="0" d="M100 480v458q0 482 400 482t400 -482v-458q0 -500 -400 -500t-400 500zM200 480q0 -400 300 -400t300 400v458q0 382 -300 382t-300 -382v-458z" />
<glyph unicode="1" horiz-adv-x="750" d="M200 1100v100q100 0 250 200h100v-1400h-100v1250q-120 -150 -250 -150z" />
<glyph unicode="2" d="M100 0v100q30 299 365 505t335 415q-2 300 -301 300q-300 0 -300 -340l-98 38q27 402 398 402q400 0 401 -400q0 -270 -340 -475q-339 -205 -350 -445h690v-100h-800z" />
<glyph unicode="3" horiz-adv-x="1050" d="M100 380l99 30q0 -330 320 -330q329 0 331 300q0 270 -370 270v100q350 0 350 270q-2 300 -311 300q-300 0 -300 -340l-98 38q27 402 398 402q410 0 411 -400q0 -237 -195 -318q215 -80 215 -322q-1 -400 -431 -400q-394 0 -419 400z" />
<glyph unicode="4" horiz-adv-x="1050" d="M100 400v100l550 900h150v-900h150v-100h-150v-400h-100v400h-600zM200 500h500v800z" />
<glyph unicode="5" horiz-adv-x="1050" d="M100 380l99 30q0 -330 320 -330q330 0 331 370v50q0 350 -300 350q-291 0 -340 -270l-90 50l50 770h730v-100h-630l-40 -500q90 150 320 150q400 0 400 -450v-50q-2 -470 -431 -470q-394 0 -419 400z" />
<glyph unicode="6" horiz-adv-x="1050" d="M100 480v430q0 510 430 510q391 0 418 -402l-98 -38q0 340 -320 340q-330 0 -330 -410v-220q106 210 360 210q385 0 390 -440q-6 -480 -420 -480q-430 0 -430 500zM200 480q0 -400 330 -400q316 0 320 370q0 350 -290 350q-240 0 -360 -200v-120z" />
<glyph unicode="7" horiz-adv-x="1050" d="M100 1000v400h850v-100l-570 -1380l-80 80l540 1300h-640v-300h-100z" />
<glyph unicode="8" horiz-adv-x="1050" d="M100 400q0 222 199 303q-179 83 -179 297q0 400 400 400q410 0 410 -400q0 -215 -183 -297q203 -81 203 -303q0 -400 -430 -400q-420 0 -420 400zM200 400q0 -300 320 -300q330 0 330 300q0 250 -330 250q-320 0 -320 -250zM220 1000q0 -240 300 -240q310 0 310 240 q0 300 -310 300q-300 0 -300 -300z" />
<glyph unicode="9" horiz-adv-x="1050" d="M100 940q6 480 420 480q430 0 430 -500v-430q0 -510 -430 -510q-391 0 -418 402l98 38q0 -340 320 -340q330 0 330 410v220q-107 -210 -360 -210q-385 0 -390 440zM200 950q0 -350 290 -350q240 0 360 200v120q0 400 -330 400q-316 0 -320 -370z" />
<glyph unicode=":" horiz-adv-x="550" d="M200 0v200h150v-200h-150zM200 800v200h150v-200h-150z" />
<glyph unicode=";" horiz-adv-x="550" d="M200 0v200h150v-200q0 -200 -150 -200v100q70 0 70 100h-70zM200 800v200h150v-200h-150z" />
<glyph unicode="&#x3c;" d="M100 650v100l800 400v-110l-650 -340l650 -340v-110z" />
<glyph unicode="=" d="M100 400v100h800v-100h-800zM100 900v100h800v-100h-800z" />
<glyph unicode="&#x3e;" d="M100 250v110l650 340l-650 340v110l800 -400v-100z" />
<glyph unicode="?" horiz-adv-x="1099" d="M101 1018q27 402 448 402q450 0 450 -420q0 -200 -225 -345q-224 -145 -235 -255h-80q0 171 220 310t220 290q0 320 -350 320t-350 -340zM419 0v200h150v-200h-150z" />
<glyph unicode="@" horiz-adv-x="1200" d="M100 350v650q0 400 400 400h200q400 0 400 -400v-1000h-100v150q-101 -150 -260 -150q-370 0 -370 450v100q0 450 370 450q159 0 260 -150v150q0 300 -300 300h-200q-300 0 -300 -300v-650q0 -230 165 -276l-74 -86q-191 86 -191 362zM470 450q0 -350 270 -350 q159 0 260 200v400q-101 200 -260 200q-270 0 -270 -350v-100z" />
<glyph unicode="A" d="M0 0l430 1400h140l430 -1400h-100l-101 300h-599l-100 -300h-100zM224 400h552l-276 920z" />
<glyph unicode="B" horiz-adv-x="1100" d="M100 0v1400h480q400 0 400 -400q0 -211 -146 -295q166 -79 166 -305q0 -400 -400 -400h-500zM200 100h400q300 0 300 300q0 250 -300 250h-400v-550zM200 750h380q300 0 300 250q0 300 -300 300h-380v-550z" />
<glyph unicode="C" horiz-adv-x="1099" d="M100 530v330q0 560 450 560q421 0 448 -402l-98 -38q0 340 -350 340t-350 -460v-330q0 -450 350 -450t350 330l99 -30q-25 -400 -449 -400q-450 0 -450 550z" />
<glyph unicode="D" horiz-adv-x="1100" d="M100 0v1400h450q450 0 450 -560v-290q0 -550 -450 -550h-450zM200 100h350q350 0 350 450v290q0 460 -350 460h-350v-1200z" />
<glyph unicode="E" d="M100 0v1400h800v-100h-700v-550h650v-100h-650v-550h700v-100h-800z" />
<glyph unicode="F" d="M100 0v1400h800v-110h-700v-540h650v-100h-650v-650h-100z" />
<glyph unicode="G" horiz-adv-x="1100" d="M100 530v330q0 560 450 560q421 0 448 -402l-98 -38q0 340 -350 340t-350 -460v-330q0 -450 350 -450q200 0 350 150v420h-300v100h400v-570q-150 -200 -450 -200q-450 0 -450 550z" />
<glyph unicode="H" horiz-adv-x="1100" d="M100 0v1400h100v-650h700v650h100v-1400h-100v650h-700v-650h-100z" />
<glyph unicode="I" horiz-adv-x="500" d="M200 0v1400h100v-1400h-100z" />
<glyph unicode="J" horiz-adv-x="1001" d="M100 380l99 30q0 -330 300 -330t302 350v970h100v-970q-2 -450 -402 -450q-375 0 -399 400z" />
<glyph unicode="K" d="M100 0v1400h100v-730l570 730h130l-424 -554l424 -846h-130l-380 745l-190 -245v-500h-100z" />
<glyph unicode="L" d="M100 0v1400h100v-1300h700v-100h-800z" />
<glyph unicode="M" horiz-adv-x="1300" d="M100 0v1400h100l450 -1020l450 1020h100v-1400h-100v1125l-400 -925h-100l-400 925v-1125h-100z" />
<glyph unicode="N" horiz-adv-x="1100" d="M100 0v1400h170l630 -1300v1300h100v-1400h-170l-630 1300v-1300h-100z" />
<glyph unicode="O" horiz-adv-x="1100" d="M100 530v330q0 560 450 560t450 -560v-330q0 -550 -450 -550t-450 550zM200 530q0 -450 350 -450t350 450v330q0 460 -350 460t-350 -460v-330z" />
<glyph unicode="P" horiz-adv-x="1100" d="M100 0v1400h500q400 0 400 -400t-400 -400h-400v-600h-100zM200 700h400q300 0 300 300t-300 300h-400v-600z" />
<glyph unicode="Q" horiz-adv-x="1100" d="M100 530v330q0 560 450 560t450 -560v-330q0 -404 -260 -530q175 -120 260 -120l-50 -100q-101 0 -225 100t-225 100v2q-400 28 -400 548zM200 530q0 -450 350 -450t350 450v330q0 460 -350 460t-350 -460v-330z" />
<glyph unicode="R" horiz-adv-x="1100" d="M100 0v1400h500q400 0 400 -400q0 -370 -380 -400l480 -600h-140l-460 600h-300v-600h-100zM200 700h400q300 0 300 300t-300 300h-400v-600z" />
<glyph unicode="S" horiz-adv-x="1098" d="M100 380l98 20q0 -320 350 -320t350 290q0 210 -395 290t-395 370q0 390 440 390q420 0 438 -395l-98 -25q0 320 -340 320t-340 -290q0 -210 395 -290t395 -370q0 -390 -450 -390q-432 0 -448 400z" />
<glyph unicode="T" horiz-adv-x="1100" d="M100 1300v100h900v-100h-400v-1300h-100v1300h-400z" />
<glyph unicode="U" horiz-adv-x="1100" d="M100 530v870h100v-870q0 -450 350 -450t350 450v870h100v-870q0 -550 -450 -550t-450 550z" />
<glyph unicode="V" d="M0 1400h100l400 -1220l400 1220h100l-450 -1400h-100z" />
<glyph unicode="W" horiz-adv-x="1500" d="M0 1400h100l300 -1220l300 1220h100l300 -1220l300 1220h100l-340 -1400h-120l-290 1194l-290 -1194h-120z" />
<glyph unicode="X" horiz-adv-x="1100" d="M50 0l425 700l-425 700h130l370 -611l370 611h130l-425 -700l425 -700h-130l-370 611l-370 -611h-130z" />
<glyph unicode="Y" d="M0 1400h100l400 -690l400 690h100l-450 -800v-600h-100v600z" />
<glyph unicode="Z" horiz-adv-x="1100" d="M100 0v100l770 1200h-740v100h850v-100l-770 -1200h790v-100h-900z" />
<glyph unicode="[" horiz-adv-x="650" d="M100 -200v1800h450v-100h-350v-1600h350v-100h-450z" />
<glyph unicode="\" horiz-adv-x="700" d="M0 1600h100l600 -1800h-100z" />
<glyph unicode="]" horiz-adv-x="650" d="M100 -100h350v1600h-350v100h450v-1800h-450v100z" />
<glyph unicode="^" d="M100 700l330 700h140l330 -700h-110l-290 610l-290 -610h-110z" />
<glyph unicode="_" horiz-adv-x="800" d="M0 -300h800v-100h-800v100z" />
<glyph unicode="`" horiz-adv-x="630" d="M200 1400h130l100 -200h-60z" />
<glyph unicode="a" horiz-adv-x="900" d="M100 280q0 320 400 320h200v20q0 280 -250 280q-150 0 -250 -100l-80 60q130 160 330 160q350 0 350 -420v-400q0 -98 50 -200h-100q-33 66 -45 132q-72 -152 -285 -152q-320 0 -320 300zM200 290q0 -200 220 -200q250 0 280 240v170h-200q-300 0 -300 -210z" />
<glyph unicode="b" horiz-adv-x="930" d="M100 0v1400h100v-550q100 150 260 150q370 0 370 -450v-100q0 -450 -370 -450q-160 0 -260 150v-150h-100zM200 300q101 -200 260 -200q270 0 270 350v100q0 350 -270 350q-159 0 -260 -200v-400z" />
<glyph unicode="c" horiz-adv-x="900" d="M100 450v100q5 470 380 470q244 0 319 -200l-69 -60q-79 160 -250 160q-276 0 -280 -370v-90q0 -380 280 -380q171 0 250 160l69 -60q-75 -200 -319 -200q-375 0 -380 470z" />
<glyph unicode="d" horiz-adv-x="930" d="M100 450v100q0 450 370 450q159 0 260 -150v550h100v-1400h-100v150q-101 -150 -260 -150q-370 0 -370 450zM200 450q0 -350 270 -350q159 0 260 200v400q-101 200 -260 200q-270 0 -270 -350v-100z" />
<glyph unicode="e" horiz-adv-x="900" d="M100 450v80q4 490 360 490q340 0 340 -490v-90h-600q9 -360 280 -360q170 0 250 150l69 -50q-75 -200 -319 -200q-375 0 -380 470zM200 540h500q-5 380 -240 380q-252 0 -260 -380z" />
<glyph unicode="f" horiz-adv-x="650" d="M100 900v100h100v150q0 250 200 250q71 0 150 -40v-100q-79 40 -150 40q-100 0 -100 -150v-150h250v-100h-250v-900h-100v900h-100z" />
<glyph unicode="g" horiz-adv-x="930" d="M100 450v100q0 450 370 450q159 0 260 -150v150h100v-990q0 -430 -360 -430q-264 0 -339 200l79 50q70 -150 260 -150q260 0 260 330v140q-101 -150 -260 -150q-370 0 -370 450zM200 450q0 -350 270 -350q159 0 260 200v400q-101 200 -260 200q-270 0 -270 -350v-100z " />
<glyph unicode="h" horiz-adv-x="930" d="M100 0v1400h100v-550q100 150 260 150q370 0 370 -450v-550h-100v550q0 350 -270 350q-159 0 -260 -200v-700h-100z" />
<glyph unicode="i" horiz-adv-x="550" d="M200 1200v200h150v-200h-150zM225 0v1000h100v-1000h-100z" />
<glyph unicode="j" horiz-adv-x="550" d="M-75 -375l29 84q66 -29 144 -29q120 0 122 300v1020h100v-1020q-1 -400 -222 -400q-112 0 -173 45zM194 1200v200h150v-200h-150z" />
<glyph unicode="k" horiz-adv-x="853" d="M100 0v1400h100v-950l510 550h140l-420 -449l420 -551h-150l-354 466l-146 -166v-300h-100z" />
<glyph unicode="l" horiz-adv-x="500" d="M200 0v1400h100v-1400h-100z" />
<glyph unicode="m" horiz-adv-x="1500" d="M100 0v1000h100v-150q100 150 280 150q199 0 270 -210q120 210 300 210q350 0 350 -450v-550h-100v550q0 350 -250 350q-150 0 -250 -210v-690h-100v550q-20 350 -220 350q-179 0 -280 -200v-700h-100z" />
<glyph unicode="n" horiz-adv-x="930" d="M100 0v1000h100v-150q100 150 260 150q370 0 370 -450v-550h-100v550q0 350 -270 350q-159 0 -260 -200v-700h-100z" />
<glyph unicode="o" horiz-adv-x="960" d="M100 450v100q5 470 380 470t380 -470v-100q-5 -470 -380 -470t-380 470zM200 460q0 -380 280 -380t280 380v80q0 380 -280 380t-280 -380v-80z" />
<glyph unicode="p" horiz-adv-x="930" d="M100 -400v1400h100v-150q100 150 260 150q370 0 370 -450v-100q0 -450 -370 -450q-160 0 -260 150v-550h-100zM200 300q101 -200 260 -200q270 0 270 350v100q0 350 -270 350q-159 0 -260 -200v-400z" />
<glyph unicode="q" horiz-adv-x="930" d="M100 450v100q0 450 370 450q159 0 260 -150v150h100v-1400h-100v550q-101 -150 -260 -150q-370 0 -370 450zM200 450q0 -350 270 -350q159 0 260 200v400q-101 200 -260 200q-270 0 -270 -350v-100z" />
<glyph unicode="r" horiz-adv-x="700" d="M100 0v1000h100v-160q100 160 260 160q101 0 187 -51l-38 -90q-73 41 -149 41q-159 0 -260 -200v-700h-100z" />
<glyph unicode="s" horiz-adv-x="900" d="M100 70l42 85q134 -85 301 -85q250 0 250 210q-11 170 -259 180q-330 10 -330 270q6 290 340 290q161 0 324 -94l-41 -86q-141 90 -283 90q-235 0 -240 -203q3 -157 250 -167q340 -10 340 -290h-2q-5 -290 -349 -290q-228 0 -343 90z" />
<glyph unicode="t" horiz-adv-x="650" d="M100 900v100h100v300h100v-300h250v-100h-250v-650q0 -150 100 -150q71 0 150 40v-100q-79 -40 -150 -40q-200 0 -200 250v650h-100z" />
<glyph unicode="u" horiz-adv-x="930" d="M100 450v550h100v-550q0 -350 270 -350q159 0 260 200v700h100v-1000h-100v150q-101 -150 -260 -150q-370 0 -370 450z" />
<glyph unicode="v" horiz-adv-x="800" d="M0 1000h110l290 -840l290 840h110l-350 -1000h-100z" />
<glyph unicode="w" horiz-adv-x="1300" d="M0 1000h110l240 -800l240 800h120l240 -800l240 800h110l-300 -1000h-100l-250 833l-250 -833h-100z" />
<glyph unicode="x" d="M100 0l315 500l-315 500h130l270 -429l270 429h130l-315 -500l315 -500h-130l-270 428l-270 -428h-130z" />
<glyph unicode="y" horiz-adv-x="800" d="M-50 -390l21 96q39 -6 79 -6q179 0 271 200l29 100l-350 1000h110l290 -840l290 840h110l-385 -1100q-95 -300 -365 -300q-25 0 -50 2.5t-50 7.5z" />
<glyph unicode="z" horiz-adv-x="900" d="M100 0v100l560 800h-530v100h650v-100l-560 -800h580v-100h-700z" />
<glyph unicode="{" horiz-adv-x="700" d="M100 650v100q200 0 200 250v300q0 300 300 300v-100q-200 0 -200 -200v-300q0 -217 -155 -300q155 -83 155 -300v-300q0 -200 200 -200v-100q-300 0 -300 300v300q0 250 -200 250z" />
<glyph unicode="|" horiz-adv-x="500" d="M200 -200v1800h100v-1800h-100z" />
<glyph unicode="}" horiz-adv-x="700" d="M100 -100q200 0 200 200v300q0 217 155 300q-155 83 -155 300v300q0 200 -200 200v100q300 0 300 -300v-300q0 -250 200 -250v-100q-200 0 -200 -250v-300q0 -300 -300 -300v100z" />
<glyph unicode="~" horiz-adv-x="1200" d="M100 570v100q100 150 250 150q149 0 265 -65t255 -65q130 0 230 130v-100q-101 -150 -250 -150t-265 65t-255 65q-130 0 -230 -130z" />
<glyph unicode="&#xa1;" horiz-adv-x="500" d="M200 0l20 600h60l20 -600v-400h-100v400zM200 900v100h100v-100h-100z" />
<glyph unicode="&#xa2;" horiz-adv-x="900" d="M100 650v100q3 418 300 464v186h100v-181q227 -8 299 -199l-69 -60q-75 150 -230 159v-839q155 9 230 160l69 -60q-72 -192 -299 -200v-180h-100v186q-297 46 -300 464zM200 660q0 -321 200 -371v821q-197 -48 -200 -360v-90z" />
<glyph unicode="&#xa3;" horiz-adv-x="1100" d="M100 650v100h100v200q5 470 430 470q294 0 369 -200l-69 -50q-80 150 -300 150q-326 0 -330 -370v-200h400v-100h-400v-550h700v-100h-800v650h-100z" />
<glyph unicode="&#xa5;" d="M0 1400h100l400 -690l400 690h100l-394 -700h294v-100h-350v-300h350v-100h-350v-200h-100v200h-350v100h350v300h-350v100h293z" />
<glyph unicode="&#xa6;" horiz-adv-x="500" d="M200 -200v800h100v-800h-100zM200 800v800h100v-800h-100z" />
<glyph unicode="&#xa8;" horiz-adv-x="700" d="M100 1200v200h150v-200h-150zM450 1200v200h150v-200h-150z" />
<glyph unicode="&#xa9;" horiz-adv-x="1475" d="M100 850q0 264 187 451t451 187t450 -187q187 -187 187 -451t-187 -451q-186 -186 -450 -186t-451 186q-187 187 -187 451zM200 850q0 -232 153 -385q154 -152 385 -152q230 0 384 152q153 153 153 385t-153 385t-384 153q-232 0 -385 -153t-153 -385zM400 850 q0 140 99 239t239 99q139 0 238 -99q73 -73 92 -165h-107q-14 61 -65 113q-50 51 -158 51t-173 -65t-65 -173t65 -173q64 -64 173 -64q54 0 93.5 12.5t66.5 34.5t43 53t22 69h105q-18 -96 -92 -170q-99 -99 -238 -99q-140 0 -239 99t-99 238z" />
<glyph unicode="&#xab;" horiz-adv-x="900" d="M100 700l300 400h100l-250 -400l250 -400h-100zM400 700l300 400h100l-250 -400l250 -400h-100z" />
<glyph unicode="&#xac;" horiz-adv-x="1200" d="M100 650v100h1000v-550h-100v450h-900z" />
<glyph unicode="&#xad;" horiz-adv-x="800" d="M100 650v100h600v-100h-600z" />
<glyph unicode="&#xae;" horiz-adv-x="1050" d="M100 1275q0 176 124 300q125 125 301 125q175 0 300 -125t125 -300q0 -176 -125 -301q-124 -124 -300 -124q-177 0 -301 124t-124 301zM200 1275q0 -133 95 -230q97 -95 230 -95q135 0 230 95q95 97 95 230q0 135 -95 230t-230 95q-133 0 -230 -95q-95 -95 -95 -230z M325 1050v450h250q150 0 150 -150q0 -125 -104 -146l104 -154h-115l-101 150h-84v-150h-100zM425 1300h150q50 0 50 50t-50 50h-150v-100z" />
<glyph unicode="&#xb0;" horiz-adv-x="800" d="M100 1100q0 124 88 212t212 88t212 -88t88 -212t-88 -212t-212 -88t-212 88t-88 212zM200 1100q0 -84 58 -142t142 -58q83 0 141 58q59 59 59 142q0 82 -59 141t-141 59q-83 0 -142 -59q-58 -58 -58 -141z" />
<glyph unicode="&#xb1;" horiz-adv-x="1200" d="M100 0v100h1000v-100h-1000zM100 850v100h450v450h100v-450h450v-100h-450v-450h-100v450h-450z" />
<glyph unicode="&#xb4;" horiz-adv-x="630" d="M200 1200l100 200h130l-170 -200h-60z" />
<glyph unicode="&#xb5;" horiz-adv-x="900" d="M100 -400v1400h100v-700q101 -200 250 -200t250 200v700h100v-1000h-100v150q-101 -150 -250 -150q-150 0 -250 150v-550h-100z" />
<glyph unicode="&#xb6;" d="M100 1000q0 400 400 400h400v-1600h-100v1500h-200v-1500h-100v800q-400 0 -400 400z" />
<glyph unicode="&#xb7;" horiz-adv-x="700" d="M200 550v300h300v-300h-300z" />
<glyph unicode="&#xb8;" horiz-adv-x="630" d="M200 -400l170 200h60l-100 -200h-130z" />
<glyph unicode="&#xbb;" horiz-adv-x="900" d="M100 300l250 400l-250 400h100l300 -400l-300 -400h-100zM400 300l250 400l-250 400h100l300 -400l-300 -400h-100z" />
<glyph unicode="&#xbf;" horiz-adv-x="1099" d="M101 0q0 200 225 345q224 145 235 255h80q0 -171 -220 -310t-220 -290q0 -320 350 -320t350 340l98 -38q-27 -402 -448 -402q-450 0 -450 420zM531 800v200h150v-200h-150z" />
<glyph unicode="&#xc0;" d="M0 0l430 1400h140l430 -1400h-100l-101 300h-599l-100 -300h-100zM224 400h552l-276 920zM347 1800h130l100 -200h-60z" />
<glyph unicode="&#xc1;" d="M0 0l430 1400h140l430 -1400h-100l-101 300h-599l-100 -300h-100zM224 400h552l-276 920zM423 1600l100 200h130l-170 -200h-60z" />
<glyph unicode="&#xc2;" d="M0 0l430 1400h140l430 -1400h-100l-101 300h-599l-100 -300h-100zM224 400h552l-276 920zM250 1600l180 200h140l180 -200h-130l-120 120l-120 -120h-130z" />
<glyph unicode="&#xc3;" d="M0 0l430 1400h140l430 -1400h-100l-101 300h-599l-100 -300h-100zM170 1602v99q66 99 175 99q90 0 160 -40q70 -39 153 -39q96 0 172 79v-99q-66 -99 -175 -99q-90 0 -160 39q-70 40 -153 40q-96 0 -172 -79zM224 400h552l-276 920z" />
<glyph unicode="&#xc4;" d="M0 0l430 1400h140l430 -1400h-100l-101 300h-599l-100 -300h-100zM224 400h552l-276 920zM250 1600v200h150v-200h-150zM600 1600v200h150v-200h-150z" />
<glyph unicode="&#xc5;" d="M0 0l430 1400h140l430 -1400h-100l-101 300h-599l-100 -300h-100zM224 400h552l-276 920zM300 1700q0 83 58 141q59 59 142 59q82 0 141 -59t59 -141q0 -83 -59 -142q-58 -58 -141 -58q-84 0 -142 58t-58 142zM374 1700q0 -52 37 -89t89 -37t89 37t37 89t-37 89t-89 37 t-89 -37t-37 -89z" />
<glyph unicode="&#xc6;" horiz-adv-x="1600" d="M0 0l400 1400h1100v-100h-600v-550h550v-100h-550v-550h600v-100h-700v300h-615l-85 -300h-100zM211 400h589v900h-330z" />
<glyph unicode="&#xc7;" horiz-adv-x="1099" d="M100 530v330q0 560 450 560q421 0 448 -402l-98 -38q0 340 -350 340t-350 -460v-330q0 -450 350 -450t350 330l99 -30q-25 -400 -449 -400q-450 0 -450 550zM435 -400l170 200h60l-100 -200h-130z" />
<glyph unicode="&#xc8;" d="M100 0v1400h800v-100h-700v-550h650v-100h-650v-550h700v-100h-800zM347 1800h130l100 -200h-60z" />
<glyph unicode="&#xc9;" d="M100 0v1400h800v-100h-700v-550h650v-100h-650v-550h700v-100h-800zM423 1600l100 200h130l-170 -200h-60z" />
<glyph unicode="&#xca;" d="M100 0v1400h800v-100h-700v-550h650v-100h-650v-550h700v-100h-800zM250 1600l180 200h140l180 -200h-130l-120 120l-120 -120h-130z" />
<glyph unicode="&#xcb;" d="M100 0v1400h800v-100h-700v-550h650v-100h-650v-550h700v-100h-800zM250 1600v200h150v-200h-150zM600 1600v200h150v-200h-150z" />
<glyph unicode="&#xcc;" horiz-adv-x="500" d="M99 1800h130l100 -200h-60zM200 0v1400h100v-1400h-100z" />
<glyph unicode="&#xcd;" horiz-adv-x="500" d="M175 1600l100 200h130l-170 -200h-60zM200 0v1400h100v-1400h-100z" />
<glyph unicode="&#xce;" horiz-adv-x="500" d="M2 1600l180 200h140l180 -200h-130l-120 120l-120 -120h-130zM200 0v1400h100v-1400h-100z" />
<glyph unicode="&#xcf;" horiz-adv-x="500" d="M2 1600v200h150v-200h-150zM200 0v1400h100v-1400h-100zM352 1600v200h150v-200h-150z" />
<glyph unicode="&#xd0;" horiz-adv-x="1200" d="M100 640v110h100v650h450q450 0 450 -560v-290q0 -550 -450 -550h-450v640h-100zM300 100h350q350 0 350 450v290q0 460 -350 460h-350v-550h400v-110h-400v-540z" />
<glyph unicode="&#xd1;" horiz-adv-x="1100" d="M100 0v1400h170l630 -1300v1300h100v-1400h-170l-630 1300v-1300h-100zM220 1602v99q66 99 175 99q90 0 160 -40q70 -39 153 -39q96 0 172 79v-99q-66 -99 -175 -99q-90 0 -160 39q-70 40 -153 40q-96 0 -172 -79z" />
<glyph unicode="&#xd2;" horiz-adv-x="1100" d="M100 530v330q0 560 450 560t450 -560v-330q0 -550 -450 -550t-450 550zM200 530q0 -450 350 -450t350 450v330q0 460 -350 460t-350 -460v-330zM397 1800h130l100 -200h-60z" />
<glyph unicode="&#xd3;" horiz-adv-x="1100" d="M100 530v330q0 560 450 560t450 -560v-330q0 -550 -450 -550t-450 550zM200 530q0 -450 350 -450t350 450v330q0 460 -350 460t-350 -460v-330zM473 1600l100 200h130l-170 -200h-60z" />
<glyph unicode="&#xd4;" horiz-adv-x="1100" d="M100 530v330q0 560 450 560t450 -560v-330q0 -550 -450 -550t-450 550zM200 530q0 -450 350 -450t350 450v330q0 460 -350 460t-350 -460v-330zM300 1600l180 200h140l180 -200h-130l-120 120l-120 -120h-130z" />
<glyph unicode="&#xd5;" horiz-adv-x="1100" d="M100 530v330q0 560 450 560t450 -560v-330q0 -550 -450 -550t-450 550zM200 530q0 -450 350 -450t350 450v330q0 460 -350 460t-350 -460v-330zM220 1602v99q66 99 175 99q90 0 160 -40q70 -39 153 -39q96 0 172 79v-99q-66 -99 -175 -99q-90 0 -160 39q-70 40 -153 40 q-96 0 -172 -79z" />
<glyph unicode="&#xd6;" horiz-adv-x="1100" d="M100 530v330q0 560 450 560t450 -560v-330q0 -550 -450 -550t-450 550zM200 530q0 -450 350 -450t350 450v330q0 460 -350 460t-350 -460v-330zM300 1600v200h150v-200h-150zM650 1600v200h150v-200h-150z" />
<glyph unicode="&#xd7;" d="M111 382l318 318l-318 318l71 71l318 -318l318 318l71 -71l-318 -318l318 -318l-71 -71l-318 318l-318 -318z" />
<glyph unicode="&#xd8;" horiz-adv-x="1100" d="M100 530v330q0 560 450 560q101 0 180 -29l70 209h100l-85 -253q185 -129 185 -487v-330q0 -550 -450 -550q-103 0 -181 28l-69 -208h-100l84 252q-184 126 -184 478zM200 530q0 -262 119 -372l378 1135q-63 27 -147 27q-350 0 -350 -460v-330zM402 106q66 -26 148 -26 q350 0 350 450v330q0 269 -120 380z" />
<glyph unicode="&#xd9;" horiz-adv-x="1100" d="M100 530v870h100v-870q0 -450 350 -450t350 450v870h100v-870q0 -550 -450 -550t-450 550zM397 1800h130l100 -200h-60z" />
<glyph unicode="&#xda;" horiz-adv-x="1100" d="M100 530v870h100v-870q0 -450 350 -450t350 450v870h100v-870q0 -550 -450 -550t-450 550zM473 1600l100 200h130l-170 -200h-60z" />
<glyph unicode="&#xdb;" horiz-adv-x="1100" d="M100 530v870h100v-870q0 -450 350 -450t350 450v870h100v-870q0 -550 -450 -550t-450 550zM300 1600l180 200h140l180 -200h-130l-120 120l-120 -120h-130z" />
<glyph unicode="&#xdc;" horiz-adv-x="1100" d="M100 530v870h100v-870q0 -450 350 -450t350 450v870h100v-870q0 -550 -450 -550t-450 550zM300 1600v200h150v-200h-150zM650 1600v200h150v-200h-150z" />
<glyph unicode="&#xdd;" d="M0 1400h100l400 -690l400 690h100l-450 -800v-600h-100v600zM423 1600l100 200h130l-170 -200h-60z" />
<glyph unicode="&#xde;" horiz-adv-x="1100" d="M100 0v1400h100v-300h400q400 0 400 -400t-400 -400h-400v-300h-100zM200 400h400q300 0 300 300t-300 300h-400v-600z" />
<glyph unicode="&#xdf;" d="M100 0v950q0 450 400 450t400 -400q0 -215 -188 -298q208 -81 208 -302q0 -400 -520 -400v100q420 0 420 300q0 250 -420 250v100q400 0 400 250q0 300 -300 300t-300 -350v-950h-100z" />
<glyph unicode="&#xe0;" horiz-adv-x="900" d="M100 280q0 320 400 320h200v20q0 280 -250 280q-150 0 -250 -100l-80 60q130 160 330 160q350 0 350 -420v-400q0 -98 50 -200h-100q-33 66 -45 132q-72 -152 -285 -152q-320 0 -320 300zM200 290q0 -200 220 -200q250 0 280 240v170h-200q-300 0 -300 -210zM322 1400 h130l100 -200h-60z" />
<glyph unicode="&#xe1;" horiz-adv-x="900" d="M100 280q0 320 400 320h200v20q0 280 -250 280q-150 0 -250 -100l-80 60q130 160 330 160q350 0 350 -420v-400q0 -98 50 -200h-100q-33 66 -45 132q-72 -152 -285 -152q-320 0 -320 300zM200 290q0 -200 220 -200q250 0 280 240v170h-200q-300 0 -300 -210zM398 1200 l100 200h130l-170 -200h-60z" />
<glyph unicode="&#xe2;" horiz-adv-x="900" d="M100 280q0 320 400 320h200v20q0 280 -250 280q-150 0 -250 -100l-80 60q130 160 330 160q350 0 350 -420v-400q0 -98 50 -200h-100q-33 66 -45 132q-72 -152 -285 -152q-320 0 -320 300zM200 290q0 -200 220 -200q250 0 280 240v170h-200q-300 0 -300 -210zM225 1200 l180 200h140l180 -200h-130l-120 120l-120 -120h-130z" />
<glyph unicode="&#xe3;" horiz-adv-x="900" d="M100 280q0 320 400 320h200v20q0 280 -250 280q-150 0 -250 -100l-80 60q130 160 330 160q350 0 350 -420v-400q0 -98 50 -200h-100q-33 66 -45 132q-72 -152 -285 -152q-320 0 -320 300zM145 1202v99q66 99 175 99q90 0 160 -40q70 -39 153 -39q96 0 172 79v-99 q-66 -99 -175 -99q-90 0 -160 39q-70 40 -153 40q-96 0 -172 -79zM200 290q0 -200 220 -200q250 0 280 240v170h-200q-300 0 -300 -210z" />
<glyph unicode="&#xe4;" horiz-adv-x="900" d="M100 280q0 320 400 320h200v20q0 280 -250 280q-150 0 -250 -100l-80 60q130 160 330 160q350 0 350 -420v-400q0 -98 50 -200h-100q-33 66 -45 132q-72 -152 -285 -152q-320 0 -320 300zM200 290q0 -200 220 -200q250 0 280 240v170h-200q-300 0 -300 -210zM225 1200 v200h150v-200h-150zM575 1200v200h150v-200h-150z" />
<glyph unicode="&#xe5;" horiz-adv-x="900" d="M100 280q0 320 400 320h200v20q0 280 -250 280q-150 0 -250 -100l-80 60q130 160 330 160q350 0 350 -420v-400q0 -98 50 -200h-100q-33 66 -45 132q-72 -152 -285 -152q-320 0 -320 300zM200 290q0 -200 220 -200q250 0 280 240v170h-200q-300 0 -300 -210zM275 1300 q0 83 58 141q59 59 142 59q82 0 141 -59t59 -141q0 -83 -59 -142q-58 -58 -141 -58q-84 0 -142 58t-58 142zM349 1300q0 -52 37 -89t89 -37t89 37t37 89t-37 89t-89 37t-89 -37t-37 -89z" />
<glyph unicode="&#xe6;" horiz-adv-x="1500" d="M100 280q0 320 400 320h200v20q0 280 -250 280q-150 0 -250 -100l-80 60q130 160 330 160q232 0 310 -186q85 186 305 186q340 0 340 -490v-90h-600q9 -360 280 -360q170 0 250 150l69 -50q-75 -200 -319 -200q-238 0 -328 189q-89 -189 -307 -189q-350 0 -350 300z M200 290q0 -210 250 -210q220 0 250 200v220h-200q-300 0 -300 -210zM805 540h500q-5 380 -240 380q-252 0 -260 -380z" />
<glyph unicode="&#xe7;" horiz-adv-x="900" d="M100 450v100q5 470 380 470q244 0 319 -200l-69 -60q-79 160 -250 160q-276 0 -280 -370v-90q0 -380 280 -380q171 0 250 160l69 -60q-75 -200 -319 -200q-375 0 -380 470zM335 -400l170 200h60l-100 -200h-130z" />
<glyph unicode="&#xe8;" horiz-adv-x="900" d="M100 450v80q4 490 360 490q340 0 340 -490v-90h-600q9 -360 280 -360q170 0 250 150l69 -50q-75 -200 -319 -200q-375 0 -380 470zM200 540h500q-5 380 -240 380q-252 0 -260 -380zM297 1400h130l100 -200h-60z" />
<glyph unicode="&#xe9;" horiz-adv-x="900" d="M100 450v80q4 490 360 490q340 0 340 -490v-90h-600q9 -360 280 -360q170 0 250 150l69 -50q-75 -200 -319 -200q-375 0 -380 470zM200 540h500q-5 380 -240 380q-252 0 -260 -380zM373 1200l100 200h130l-170 -200h-60z" />
<glyph unicode="&#xea;" horiz-adv-x="900" d="M100 450v80q4 490 360 490q340 0 340 -490v-90h-600q9 -360 280 -360q170 0 250 150l69 -50q-75 -200 -319 -200q-375 0 -380 470zM200 540h500q-5 380 -240 380q-252 0 -260 -380zM200 1200l180 200h140l180 -200h-130l-120 120l-120 -120h-130z" />
<glyph unicode="&#xeb;" horiz-adv-x="900" d="M100 450v80q4 490 360 490q340 0 340 -490v-90h-600q9 -360 280 -360q170 0 250 150l69 -50q-75 -200 -319 -200q-375 0 -380 470zM200 540h500q-5 380 -240 380q-252 0 -260 -380zM200 1200v200h150v-200h-150zM550 1200v200h150v-200h-150z" />
<glyph unicode="&#xec;" horiz-adv-x="550" d="M124 1400h130l100 -200h-60zM225 0v1000h100v-1000h-100z" />
<glyph unicode="&#xed;" horiz-adv-x="550" d="M200 1200l100 200h130l-170 -200h-60zM225 0v1000h100v-1000h-100z" />
<glyph unicode="&#xee;" horiz-adv-x="550" d="M27 1200l180 200h140l180 -200h-130l-120 120l-120 -120h-130zM225 0v1000h100v-1000h-100z" />
<glyph unicode="&#xef;" horiz-adv-x="550" d="M27 1200v200h150v-200h-150zM225 0v1000h100v-1000h-100zM377 1200v200h150v-200h-150z" />
<glyph unicode="&#xf0;" horiz-adv-x="930" d="M100 450v100q0 450 370 450q159 0 260 -150v320h-210v110h210v120h100v-120h190v-110h-190v-1170h-100v150q-101 -150 -260 -150q-370 0 -370 450zM200 450q0 -350 270 -350q159 0 260 200v400q-101 200 -260 200q-270 0 -270 -350v-100z" />
<glyph unicode="&#xf1;" horiz-adv-x="930" d="M100 0v1000h100v-150q100 150 260 150q370 0 370 -450v-550h-100v550q0 350 -270 350q-159 0 -260 -200v-700h-100zM135 1202v99q66 99 175 99q90 0 160 -40q70 -39 153 -39q96 0 172 79v-99q-66 -99 -175 -99q-90 0 -160 39q-70 40 -153 40q-96 0 -172 -79z" />
<glyph unicode="&#xf2;" horiz-adv-x="960" d="M100 450v100q5 470 380 470t380 -470v-100q-5 -470 -380 -470t-380 470zM200 460q0 -380 280 -380t280 380v80q0 380 -280 380t-280 -380v-80zM327 1400h130l100 -200h-60z" />
<glyph unicode="&#xf3;" horiz-adv-x="960" d="M100 450v100q5 470 380 470t380 -470v-100q-5 -470 -380 -470t-380 470zM200 460q0 -380 280 -380t280 380v80q0 380 -280 380t-280 -380v-80zM403 1200l100 200h130l-170 -200h-60z" />
<glyph unicode="&#xf4;" horiz-adv-x="960" d="M100 450v100q5 470 380 470t380 -470v-100q-5 -470 -380 -470t-380 470zM200 460q0 -380 280 -380t280 380v80q0 380 -280 380t-280 -380v-80zM230 1200l180 200h140l180 -200h-130l-120 120l-120 -120h-130z" />
<glyph unicode="&#xf5;" horiz-adv-x="960" d="M100 450v100q5 470 380 470t380 -470v-100q-5 -470 -380 -470t-380 470zM150 1202v99q66 99 175 99q90 0 160 -40q70 -39 153 -39q96 0 172 79v-99q-66 -99 -175 -99q-90 0 -160 39q-70 40 -153 40q-96 0 -172 -79zM200 460q0 -380 280 -380t280 380v80q0 380 -280 380 t-280 -380v-80z" />
<glyph unicode="&#xf6;" horiz-adv-x="960" d="M100 450v100q5 470 380 470t380 -470v-100q-5 -470 -380 -470t-380 470zM200 460q0 -380 280 -380t280 380v80q0 380 -280 380t-280 -380v-80zM230 1200v200h150v-200h-150zM580 1200v200h150v-200h-150z" />
<glyph unicode="&#xf7;" horiz-adv-x="1200" d="M100 650v100h1000v-100h-1000zM530 200v200h150v-200h-150zM530 1000v200h150v-200h-150z" />
<glyph unicode="&#xf8;" horiz-adv-x="960" d="M100 450v100q5 470 380 470q62 0 118 -14l132 394h100l-144 -431q169 -103 174 -419v-100q-5 -470 -380 -470q-63 0 -119 14l-131 -394h-100l143 430q-172 104 -173 420zM200 460q0 -238 108 -326l258 775q-41 11 -86 11q-280 0 -280 -380v-80zM393 90q39 -10 87 -10 q280 0 280 380v80q0 236 -108 325z" />
<glyph unicode="&#xf9;" horiz-adv-x="930" d="M100 450v550h100v-550q0 -350 270 -350q159 0 260 200v700h100v-1000h-100v150q-101 -150 -260 -150q-370 0 -370 450zM312 1400h130l100 -200h-60z" />
<glyph unicode="&#xfa;" horiz-adv-x="930" d="M100 450v550h100v-550q0 -350 270 -350q159 0 260 200v700h100v-1000h-100v150q-101 -150 -260 -150q-370 0 -370 450zM388 1200l100 200h130l-170 -200h-60z" />
<glyph unicode="&#xfb;" horiz-adv-x="930" d="M100 450v550h100v-550q0 -350 270 -350q159 0 260 200v700h100v-1000h-100v150q-101 -150 -260 -150q-370 0 -370 450zM215 1200l180 200h140l180 -200h-130l-120 120l-120 -120h-130z" />
<glyph unicode="&#xfc;" horiz-adv-x="930" d="M100 450v550h100v-550q0 -350 270 -350q159 0 260 200v700h100v-1000h-100v150q-101 -150 -260 -150q-370 0 -370 450zM215 1200v200h150v-200h-150zM565 1200v200h150v-200h-150z" />
<glyph unicode="&#xfd;" horiz-adv-x="800" d="M-50 -390l21 96q39 -6 79 -6q179 0 271 200l29 100l-350 1000h110l290 -840l290 840h110l-385 -1100q-95 -300 -365 -300q-25 0 -50 2.5t-50 7.5zM298 1200l100 200h130l-170 -200h-60z" />
<glyph unicode="&#xfe;" horiz-adv-x="930" d="M100 -400v1800h100v-550q100 150 260 150q370 0 370 -450v-100q0 -450 -370 -450q-160 0 -260 150v-550h-100zM200 300q101 -200 260 -200q270 0 270 350v100q0 350 -270 350q-159 0 -260 -200v-400z" />
<glyph unicode="&#xff;" horiz-adv-x="800" d="M-50 -390l21 96q39 -6 79 -6q179 0 271 200l29 100l-350 1000h110l290 -840l290 840h110l-385 -1100q-95 -300 -365 -300q-25 0 -50 2.5t-50 7.5zM125 1200v200h150v-200h-150zM475 1200v200h150v-200h-150z" />
<glyph unicode="&#x152;" horiz-adv-x="1552" d="M100 530v330q0 560 400 560q226 0 300 -126v106h650v-100h-550v-550h500v-100h-500v-550h550v-100h-650v102q-74 -122 -300 -122q-400 0 -400 550zM200 530q0 -450 300 -450q293 0 300 337v556q-6 347 -300 347q-300 0 -300 -460v-330z" />
<glyph unicode="&#x153;" horiz-adv-x="1554" d="M100 450v100q5 470 380 470q249 0 335 -209q83 209 315 209q340 0 340 -490v-90h-600q9 -360 280 -360q170 0 250 150l69 -50q-75 -200 -319 -200q-249 0 -336 207q-86 -207 -334 -207q-375 0 -380 470zM200 460q0 -380 280 -380t280 380v80q0 380 -280 380t-280 -380 v-80zM870 540h500q-5 380 -240 380q-252 0 -260 -380z" />
<glyph unicode="&#x178;" d="M0 1400h100l400 -690l400 690h100l-450 -800v-600h-100v600zM250 1600v200h150v-200h-150zM600 1600v200h150v-200h-150z" />
<glyph unicode="&#x2c6;" horiz-adv-x="700" d="M100 1200l180 200h140l180 -200h-130l-120 120l-120 -120h-130z" />
<glyph unicode="&#x2dc;" horiz-adv-x="860" d="M100 1202v99q66 99 175 99q90 0 160 -40q70 -39 153 -39q96 0 172 79v-99q-66 -99 -175 -99q-90 0 -160 39q-70 40 -153 40q-96 0 -172 -79z" />
<glyph unicode="&#x2000;" horiz-adv-x="950" />
<glyph unicode="&#x2001;" horiz-adv-x="1900" />
<glyph unicode="&#x2002;" horiz-adv-x="950" />
<glyph unicode="&#x2003;" horiz-adv-x="1900" />
<glyph unicode="&#x2004;" horiz-adv-x="633" />
<glyph unicode="&#x2005;" horiz-adv-x="475" />
<glyph unicode="&#x2006;" horiz-adv-x="316" />
<glyph unicode="&#x2007;" horiz-adv-x="316" />
<glyph unicode="&#x2008;" horiz-adv-x="237" />
<glyph unicode="&#x2009;" horiz-adv-x="380" />
<glyph unicode="&#x200a;" horiz-adv-x="105" />
<glyph unicode="&#x2010;" horiz-adv-x="800" d="M100 650v100h600v-100h-600z" />
<glyph unicode="&#x2011;" horiz-adv-x="800" d="M100 650v100h600v-100h-600z" />
<glyph unicode="&#x2012;" horiz-adv-x="800" d="M100 650v100h600v-100h-600z" />
<glyph unicode="&#x2013;" horiz-adv-x="800" d="M100 650v100h600v-100h-600z" />
<glyph unicode="&#x2014;" d="M100 650v100h800v-100h-800z" />
<glyph unicode="&#x2018;" horiz-adv-x="550" d="M200 1000v200q0 200 150 200v-100q-70 0 -70 -100h70v-200h-150z" />
<glyph unicode="&#x2019;" horiz-adv-x="550" d="M200 1000v100q70 0 70 100h-70v200h150v-200q0 -200 -150 -200z" />
<glyph unicode="&#x201a;" horiz-adv-x="550" d="M200 0v200h150v-200q0 -200 -150 -200v100q70 0 70 100h-70z" />
<glyph unicode="&#x201c;" horiz-adv-x="800" d="M200 1000v200q0 200 150 200v-100q-70 0 -70 -100h70v-200h-150zM450 1000v200q0 200 150 200v-100q-70 0 -70 -100h70v-200h-150z" />
<glyph unicode="&#x201d;" horiz-adv-x="800" d="M200 1000v100q70 0 70 100h-70v200h150v-200q0 -200 -150 -200zM450 1000v100q70 0 70 100h-70v200h150v-200q0 -200 -150 -200z" />
<glyph unicode="&#x201e;" horiz-adv-x="800" d="M200 0v200h150v-200q0 -200 -150 -200v100q70 0 70 100h-70zM450 0v200h150v-200q0 -200 -150 -200v100q70 0 70 100h-70z" />
<glyph unicode="&#x2022;" horiz-adv-x="700" d="M200 550v300h300v-300h-300z" />
<glyph unicode="&#x2026;" horiz-adv-x="1650" d="M200 0v200h150v-200h-150zM750 0v200h150v-200h-150zM1300 0v200h150v-200h-150z" />
<glyph unicode="&#x202f;" horiz-adv-x="380" />
<glyph unicode="&#x2039;" horiz-adv-x="600" d="M100 700l300 400h100l-250 -400l250 -400h-100z" />
<glyph unicode="&#x203a;" horiz-adv-x="600" d="M100 300l250 400l-250 400h100l300 -400l-300 -400h-100z" />
<glyph unicode="&#x205f;" horiz-adv-x="475" />
<glyph unicode="&#x20ac;" horiz-adv-x="1299" d="M100 440v110h200v300h-200v110h204q37 460 446 460q421 0 448 -402l-98 -38q0 340 -350 340q-314 0 -345 -360h495l-30 -110h-470v-300h403l-30 -110h-368q28 -360 345 -360q350 0 350 330l99 -30q-25 -400 -449 -400q-413 0 -447 460h-203z" />
<glyph unicode="&#x2122;" horiz-adv-x="1300" d="M100 1300v100h450v-100h-180v-500h-100v500h-170zM640 800v600h180l100 -460l100 460h180v-600h-110v450l-100 -450h-140l-100 450v-450h-110z" />
<glyph unicode="&#xe000;" d="M0 0v1000h1000v-1000h-1000z" />
</font>
</defs>
</svg>
